<svg width="382" height="332" viewBox="0 0 382 332" fill="none" xmlns="http://www.w3.org/2000/svg">
<path d="M270.28 69.4C261.078 70.1462 252.04 72.2657 243.466 75.688C243.436 75.702 243.406 75.7181 243.378 75.736C243.461 75.7207 243.546 75.7235 243.628 75.7442C243.71 75.765 243.786 75.8032 243.852 75.8562C243.917 75.9092 243.97 75.9758 244.008 76.0514C244.045 76.127 244.066 76.2097 244.068 76.294C244.232 82.778 245.192 89.214 246.926 95.464C248.268 100.212 250.538 105.64 255.16 108.064C256.199 108.703 257.372 109.092 258.587 109.2C259.801 109.308 261.025 109.132 262.16 108.686C263.295 108.24 264.311 107.536 265.127 106.63C265.943 105.723 266.537 104.639 266.862 103.464C268.862 98.402 268.8 92.616 268.89 87.264C268.988 81.478 269.544 75.758 269.834 69.984C269.84 69.8487 269.892 69.7196 269.982 69.6184C270.072 69.5171 270.194 69.4499 270.328 69.428L270.28 69.4Z" fill="white"/>
<path d="M342.322 92.7839C341.264 96.7599 339.674 101.416 338.51 104.96C334.11 118.338 333.494 119.044 331.06 132.944C331.04 133.018 331.006 133.087 330.959 133.148C330.912 133.208 330.853 133.259 330.786 133.296C330.719 133.333 330.645 133.357 330.569 133.365C330.493 133.373 330.415 133.366 330.342 133.344C330.168 133.294 329.184 132.572 321.182 128.69C314.118 125.244 307.124 121.656 300.204 117.928L300.146 118.028C299.626 119.187 298.837 120.206 297.846 121.001C296.854 121.795 295.687 122.342 294.442 122.596C293.197 122.85 291.909 122.804 290.685 122.462C289.462 122.12 288.337 121.491 287.404 120.628C285.08 131.554 283.452 142.616 282.53 153.748C280.634 190.772 322.628 206.718 348.662 174.986C356.668 162.452 360.38 147.654 359.236 132.825C358.093 117.996 352.156 103.942 342.322 92.7839ZM320.94 183.524C318.854 182.374 316.758 181.238 314.714 180.018C314.549 179.912 314.418 179.76 314.337 179.581C314.255 179.402 314.228 179.203 314.257 179.009C314.286 178.814 314.371 178.632 314.501 178.485C314.631 178.338 314.801 178.231 314.99 178.178C315.242 178.105 315.513 178.131 315.746 178.252C317.832 179.402 319.926 180.538 321.972 181.758C322.137 181.864 322.268 182.016 322.35 182.195C322.431 182.374 322.458 182.573 322.429 182.767C322.4 182.962 322.315 183.143 322.185 183.291C322.055 183.438 321.885 183.545 321.696 183.598C321.444 183.672 321.173 183.646 320.94 183.524Z" fill="white"/>
<path d="M280.72 150.452C281.773 139.719 283.455 129.056 285.758 118.52C285.175 117.481 284.841 116.322 284.78 115.132C284.719 113.942 284.934 112.755 285.408 111.662C286.008 110.296 289.608 104.488 289.75 103.954C285.672 100.754 280.974 95.63 282.55 90.72C283.104 88.9428 284.237 87.4024 285.768 86.3445C287.3 85.2867 289.142 84.7725 291 84.884C291.674 84.933 292.343 85.0367 293 85.194C292.952 85.15 292.902 85.11 292.856 85.066C290.981 83.4695 289.637 81.3407 289 78.962C288.719 77.3282 288.948 75.6474 289.657 74.1488C290.366 72.6502 291.52 71.4067 292.962 70.588C294.994 69.508 296.784 69.828 295.398 69.698C287.093 68.8132 278.723 68.7061 270.398 69.378C270.247 69.3839 270.104 69.4465 269.997 69.5533C269.891 69.6601 269.828 69.8032 269.822 69.954C269.532 75.728 268.976 81.448 268.878 87.234C268.788 92.588 268.842 98.374 266.85 103.434C266.524 104.609 265.929 105.692 265.113 106.598C264.298 107.504 263.282 108.209 262.148 108.656C261.013 109.102 259.79 109.278 258.575 109.17C257.36 109.062 256.187 108.673 255.148 108.034C250.526 105.618 248.256 100.19 246.914 95.434C245.18 89.1852 244.22 82.7469 244.056 76.264C244.052 76.1486 244.014 76.037 243.947 75.9428C243.88 75.8487 243.788 75.7761 243.68 75.734C243.609 75.7066 243.532 75.6937 243.456 75.696C243.406 75.696 243.382 75.696 243.328 75.708C233.647 79.5971 224.892 85.4803 217.634 92.9752C210.376 100.47 204.776 109.409 201.2 119.21C197.905 129.193 195.193 139.359 193.078 149.656C194.776 150.62 196.384 151.736 197.878 152.992C199.352 154.222 202.106 156.544 201.09 158.764C201.012 158.895 200.886 158.989 200.738 159.027C200.591 159.064 200.435 159.042 200.304 158.964C199.79 158.606 195.046 155.288 193.192 153.978L222.468 175.274C222.544 175.318 222.608 175.38 222.655 175.453C222.703 175.527 222.733 175.611 222.742 175.698C222.753 175.784 222.744 175.872 222.717 175.955C222.69 176.038 222.644 176.113 222.584 176.176C222.384 176.376 194.17 203.286 193.89 203.556C197.513 205.973 201.664 207.484 205.992 207.964C210.321 208.443 214.702 207.876 218.766 206.31C228.524 202.696 236.156 194.216 240.812 184.82C247.116 191.597 254.728 197.024 263.189 200.774C271.65 204.525 280.784 206.52 290.039 206.64C299.293 206.759 308.475 205 317.03 201.47C325.585 197.939 333.336 192.71 339.812 186.098C312.724 205.4 277.064 187.82 280.72 150.452ZM224.92 146.096C225.049 146.06 225.185 146.05 225.318 146.067C225.451 146.083 225.58 146.126 225.697 146.192C225.814 146.259 225.917 146.347 225.999 146.453C226.082 146.559 226.142 146.68 226.178 146.81C228.196 158.782 232.618 170.222 239.178 180.438C239.89 181.55 238.118 182.576 237.41 181.47C230.763 171.1 226.273 159.497 224.21 147.354C224.144 147.094 224.18 146.819 224.311 146.584C224.442 146.35 224.658 146.175 224.914 146.096H224.92Z" fill="white"/>
<path d="M343.8 76.278C342.884 72.184 339.846 69.372 336.706 66.828C334.376 64.9358 331.894 63.2381 329.286 61.752L325.472 68.282C325.85 69.228 324.638 70.282 323.844 69.408C323.246 68.768 322.574 68.2002 321.844 67.716C318.546 65.3901 315.059 63.3442 311.42 61.6C310.573 61.1679 309.678 60.8357 308.754 60.61C308.374 60.5646 307.992 60.5413 307.61 60.54C306.868 60.54 306.128 60.632 305.41 60.818C304.748 60.9472 304.12 61.215 303.569 61.6038C303.017 61.9926 302.554 62.4937 302.21 63.074C301.525 64.4499 301.306 66.0109 301.586 67.522C302.36 69.6926 303.854 71.5331 305.818 72.738C306.75 73.482 305.536 74.938 304.58 74.338C302.09 72.7181 299.191 71.838 296.22 71.8C295.314 71.8759 294.438 72.1649 293.665 72.6435C292.892 73.1221 292.242 73.7768 291.77 74.554C291.299 75.3318 291.018 76.2099 290.951 77.1168C290.884 78.0236 291.033 78.9334 291.384 79.772C293.074 83.518 297.262 85.9 299.128 87.572C299.28 87.7347 299.375 87.942 299.399 88.163C299.424 88.3841 299.377 88.6072 299.264 88.7991C299.152 88.9911 298.981 89.1418 298.776 89.2288C298.571 89.3158 298.344 89.3345 298.128 89.282C295.944 88.534 293.582 86.906 290.212 86.91C289.01 86.9513 287.846 87.3438 286.864 88.039C285.883 88.7342 285.126 89.7017 284.688 90.822C281.498 98.004 297.354 106.768 303.652 110.84C303.828 110.958 303.965 111.128 304.043 111.325C304.121 111.522 304.137 111.739 304.09 111.946C304.042 112.153 303.932 112.341 303.774 112.484C303.617 112.626 303.419 112.717 303.208 112.744C302.408 114.13 300.396 117.586 300.208 117.928C307.128 121.656 314.122 125.244 321.186 128.69C324.226 130.164 327.276 131.624 330.218 133.29C330.294 133.333 330.38 133.359 330.467 133.365C330.555 133.37 330.643 133.356 330.724 133.323C330.806 133.29 330.879 133.239 330.937 133.173C330.996 133.108 331.04 133.03 331.064 132.946C331.931 127.545 333.107 122.197 334.584 116.93C340.484 98.954 345.85 85.432 343.8 76.278ZM310.742 101.646L305.802 97.322C304.802 96.452 306.26 95.012 307.248 95.876L312.188 100.2C313.182 101.07 311.73 102.51 310.742 101.646ZM322.274 86.06L316.76 82.66C315.64 81.968 316.668 80.2 317.792 80.894L323.306 84.294C324.426 84.984 323.4 86.752 322.274 86.06Z" fill="white"/>
<path d="M369.948 248.03C368.304 213.288 364.748 171.43 359.42 137.03C359.587 147.631 357.298 158.127 352.732 167.696C351.494 170.303 350.07 172.817 348.472 175.22C322.536 206.476 280.628 190.878 282.53 153.734C283.45 142.602 285.078 131.539 287.404 120.614C286.742 120.01 286.186 119.299 285.758 118.512C283.456 129.048 281.774 139.711 280.72 150.444C277.058 187.868 312.6 205.2 339.636 186.262C327.886 198.178 312.175 205.374 295.477 206.488C278.78 207.602 262.253 202.556 249.024 192.306C239.424 239.906 236.728 247.94 236.238 260.062C235.5 278.34 249.94 292.822 264.058 291.326C272.086 290.474 279.006 285.346 283.796 279.106C287.663 273.916 290.66 268.131 292.67 261.978C297.624 247.5 301.512 233.724 303.682 224.428C306.496 233.906 317.54 264.264 322.082 272.802C326.102 280.358 334.044 286.306 343.192 286.144C348.408 285.88 353.445 284.153 357.725 281.159C362.005 278.166 365.355 274.027 367.392 269.218C369.736 262.416 370.608 255.194 369.948 248.03ZM251.568 252.63C251.316 252.69 251.051 252.653 250.826 252.524C250.601 252.396 250.433 252.187 250.356 251.94C249.456 249.01 248.596 246.068 247.718 243.14C247.677 242.949 247.692 242.75 247.76 242.567C247.828 242.383 247.946 242.223 248.102 242.105C248.258 241.987 248.444 241.915 248.638 241.899C248.833 241.882 249.029 241.921 249.202 242.012C249.433 242.138 249.607 242.346 249.69 242.596C250.588 245.528 251.448 248.468 252.328 251.396C252.361 251.527 252.367 251.664 252.346 251.797C252.325 251.931 252.277 252.059 252.206 252.174C252.136 252.29 252.044 252.391 251.934 252.47C251.824 252.549 251.7 252.606 251.568 252.636V252.63ZM326.354 250.054C326.119 250.186 325.841 250.221 325.58 250.153C325.319 250.085 325.095 249.918 324.954 249.688L320.654 243.842C320.518 243.607 320.48 243.329 320.549 243.067C320.617 242.804 320.787 242.58 321.02 242.442C321.256 242.312 321.532 242.278 321.793 242.346C322.053 242.414 322.278 242.579 322.42 242.808L326.72 248.656C326.824 248.831 326.873 249.032 326.862 249.235C326.85 249.438 326.777 249.633 326.654 249.794C326.572 249.901 326.47 249.992 326.354 250.06V250.054Z" fill="#AEFFD3"/>
<path d="M62.544 252.276C62.438 252.476 56.906 262.588 56.79 262.792C56.5043 263.306 56.1166 263.757 55.6506 264.116C55.1846 264.475 54.6501 264.735 54.08 264.88C53.5105 265.028 52.9169 265.057 52.3356 264.967C51.7543 264.876 51.1977 264.668 50.7 264.354C49.9487 263.884 49.3597 263.195 49.0128 262.379C48.6658 261.564 48.5776 260.661 48.76 259.794C48.88 259.218 49.114 258.674 49.452 258.192C50.5 256.264 54.626 248.628 54.862 248.178C51.1219 245.987 47.5596 243.506 44.208 240.758C37.7017 241.578 31.263 242.866 24.942 244.612C21.3469 245.546 17.8841 246.93 14.636 248.732C12.4623 249.748 10.7402 251.531 9.8 253.738C9.57774 254.699 9.62296 255.703 9.93077 256.64C10.2386 257.577 10.7972 258.412 11.546 259.054C13.8231 261.024 16.4463 262.554 19.282 263.566C28.9217 266.946 38.9572 269.068 49.14 269.88C61.806 271.22 74.554 271.636 87.28 271.12C87.28 270.52 87.658 260.566 87.668 259.9C78.9511 258.666 70.4768 256.094 62.544 252.276Z" fill="#E3F1FF"/>
<path d="M143.302 251.818L135.2 259.544C134.661 260.071 133.953 260.392 133.201 260.451C132.45 260.509 131.701 260.303 131.086 259.866C130.472 259.43 130.029 258.792 129.835 258.064C129.64 257.336 129.707 256.562 130.022 255.878C130.09 255.728 134.784 246.642 134.858 246.502C134.058 246.192 133.254 245.9 132.446 245.626C124.218 256.58 109.91 260.734 96.32 260.544C96.27 262.076 95.942 270.294 95.92 270.682C106.01 270.117 116.032 268.673 125.872 266.368C129.87 265.395 133.773 264.067 137.536 262.402C139.98 261.39 142.117 259.757 143.736 257.666C144.323 256.781 144.599 255.726 144.521 254.668C144.442 253.609 144.013 252.606 143.302 251.818Z" fill="#E3F1FF"/>
<path d="M253.062 45.458C251.911 44.9546 250.671 44.683 249.415 44.6587C248.158 44.6343 246.909 44.8577 245.739 45.316C243.375 46.2417 241.477 48.0683 240.46 50.394C239.443 52.7197 239.392 55.3539 240.318 57.7173C241.244 60.0806 243.07 61.9794 245.396 62.996C247.722 64.0126 250.356 64.0636 252.719 63.1379C255.083 62.2123 256.981 60.3857 257.998 58.06C259.015 55.7343 259.066 53.1 258.14 50.7367C257.214 48.3734 255.388 46.4746 253.062 45.458Z" fill="white"/>
<path d="M254.474 40.736C249.976 39.84 247.074 35.654 245.216 31.468C244.896 30.533 244.334 29.6998 243.586 29.054C243.218 28.7469 242.767 28.5574 242.29 28.51C241.813 28.4626 241.333 28.5594 240.912 28.788C240.632 28.938 240.386 29.144 240.186 29.39C239.524 30.546 239.264 31.8883 239.444 33.208C238.324 31.1792 236.956 29.298 235.37 27.608C234.906 27.0927 234.266 26.7698 233.576 26.7028C232.886 26.6358 232.196 26.8296 231.642 27.246C231.08 27.7508 230.626 28.3643 230.307 29.0493C229.989 29.7344 229.812 30.4768 229.788 31.232C229.51 38.128 235.366 42.698 242.082 43.136C246.254 43.42 250.442 42.986 254.466 41.852C254.588 41.819 254.696 41.7467 254.773 41.6462C254.85 41.5457 254.892 41.4226 254.892 41.296C254.892 41.17 254.852 41.0473 254.776 40.9463C254.701 40.8453 254.595 40.7715 254.474 40.736Z" fill="#333333"/>
<path d="M222.458 175.28C221.258 174.404 189.542 151.44 187.938 150.342C188.171 153.585 189.231 156.714 191.018 159.43C192.066 160.876 193.286 162.19 194.65 163.342C197.622 166.142 200.582 169.16 200.85 173.454C201.03 174.728 200.743 176.025 200.043 177.104C199.342 178.184 198.275 178.974 197.038 179.328C196.218 179.564 195.353 179.598 194.516 179.428C192.976 178.896 191.584 178.01 190.45 176.84C188.79 175.386 187.126 173.932 185.464 172.482C186.634 174.882 187.818 177.296 188.81 179.766C189.429 180.942 189.746 182.253 189.732 183.581C189.718 184.91 189.373 186.214 188.728 187.376C186.166 190.928 181.154 190.176 177.81 187.376C180.448 191.5 180.844 196.892 176.55 198.362C173.568 199.384 170.594 197.3 168.314 195.592C166.563 194.274 164.913 192.827 163.378 191.264C161.462 194.976 130.508 254.814 130.024 255.864C129.666 256.641 129.63 257.528 129.925 258.331C130.22 259.134 130.822 259.787 131.598 260.146C132.191 260.414 132.851 260.499 133.492 260.389C134.134 260.279 134.728 259.98 135.198 259.53C135.462 259.28 222.376 176.358 222.566 176.168C222.625 176.106 222.669 176.031 222.696 175.95C222.722 175.87 222.732 175.784 222.722 175.698C222.71 175.614 222.681 175.533 222.635 175.461C222.59 175.389 222.529 175.327 222.458 175.28Z" fill="#333333"/>
<path d="M197.868 153C196.372 151.745 194.766 150.629 193.068 149.664C189.13 147.512 184.711 146.394 180.224 146.414C175.737 146.434 171.328 147.592 167.41 149.78C163.492 151.967 160.193 155.112 157.821 158.921C155.449 162.73 154.082 167.079 153.848 171.56C153.514 178.33 156.72 183.902 161.238 188.984C163.367 191.424 165.74 193.642 168.318 195.602C170.598 197.31 173.572 199.402 176.554 198.372C180.816 196.912 180.482 191.558 177.814 187.386C181.16 190.186 186.172 190.928 188.732 187.386C189.377 186.224 189.722 184.92 189.736 183.591C189.75 182.263 189.433 180.951 188.814 179.776C187.814 177.306 186.638 174.896 185.468 172.492L190.454 176.85C191.587 178.02 192.98 178.906 194.52 179.438C198.17 180.438 201.082 177.066 200.854 173.464C200.582 169.17 197.622 166.15 194.654 163.352C193.29 162.2 192.07 160.886 191.022 159.44C189.243 156.72 188.183 153.593 187.942 150.352C189.542 151.45 199.784 158.622 200.298 158.98C200.363 159.019 200.434 159.044 200.509 159.055C200.583 159.066 200.659 159.062 200.733 159.043C200.806 159.025 200.874 158.992 200.935 158.947C200.995 158.902 201.046 158.845 201.084 158.78C202.096 156.544 199.342 154.222 197.868 153ZM168.9 177.362C167.742 175.44 166.617 173.499 165.526 171.538C165.405 171.305 165.378 171.034 165.451 170.782C165.524 170.529 165.691 170.315 165.918 170.182C166.145 170.05 166.414 170.009 166.67 170.07C166.925 170.13 167.148 170.286 167.292 170.506C168.454 172.426 169.572 174.372 170.666 176.33C170.787 176.563 170.814 176.834 170.741 177.086C170.668 177.339 170.501 177.553 170.274 177.686C170.047 177.818 169.778 177.859 169.522 177.798C169.266 177.738 169.044 177.582 168.9 177.362ZM178.444 159.308C178.705 159.243 178.982 159.28 179.216 159.413C179.45 159.546 179.624 159.764 179.702 160.022C180.502 161.956 181.306 163.89 182.116 165.822C182.152 165.952 182.162 166.087 182.146 166.22C182.129 166.354 182.087 166.483 182.021 166.599C181.954 166.716 181.865 166.819 181.759 166.902C181.653 166.984 181.532 167.045 181.402 167.08C181.141 167.147 180.864 167.109 180.629 166.976C180.395 166.843 180.221 166.624 180.144 166.366C179.344 164.432 178.54 162.498 177.73 160.566C177.658 160.305 177.693 160.025 177.827 159.789C177.961 159.554 178.183 159.38 178.444 159.308Z" fill="white"/>
<path d="M289.124 316.932C278.524 305.332 263.418 303.51 247.86 305.444C239.26 306.514 226.964 309.644 222.536 317.096C222.486 317.184 222.46 317.283 222.461 317.383C222.461 317.484 222.487 317.583 222.537 317.67C222.587 317.758 222.659 317.831 222.746 317.882C222.833 317.933 222.931 317.961 223.032 317.962C227.908 317.996 288.69 317.962 288.896 317.87C288.983 317.835 289.06 317.779 289.121 317.707C289.182 317.635 289.225 317.55 289.246 317.458C289.269 317.367 289.269 317.272 289.248 317.18C289.227 317.089 289.184 317.004 289.124 316.932Z" fill="#333333"/>
<path d="M380.922 316.932C370.322 305.332 355.218 303.51 339.658 305.444C331.058 306.514 318.764 309.644 314.334 317.096C314.284 317.184 314.258 317.283 314.259 317.383C314.259 317.484 314.285 317.583 314.335 317.67C314.385 317.758 314.457 317.831 314.544 317.882C314.631 317.933 314.729 317.961 314.83 317.962C319.706 317.996 380.488 317.962 380.694 317.87C380.782 317.835 380.861 317.78 380.923 317.709C380.986 317.637 381.031 317.552 381.054 317.46C381.076 317.368 381.075 317.272 381.052 317.18C381.029 317.088 380.985 317.003 380.922 316.932Z" fill="#333333"/>
<path d="M24.17 171.222C21.9739 170.039 19.4027 169.759 17.0037 170.443C14.6046 171.127 12.5672 172.72 11.3252 174.883C10.0832 177.047 9.73464 179.61 10.3538 182.026C10.9729 184.443 12.5107 186.522 14.64 187.822C14.7713 187.899 14.9275 187.921 15.0749 187.883C15.2223 187.846 15.3491 187.752 15.428 187.622C18.088 183.102 24.004 172.664 24.378 172.008C24.4538 171.876 24.4745 171.719 24.4356 171.572C24.3966 171.425 24.3012 171.299 24.17 171.222Z" fill="#333333"/>
<path d="M368.974 27.62C368.664 27.438 327.344 3.46001 325.682 2.47601C323.738 1.28836 321.426 0.856279 319.184 1.26188C316.943 1.66749 314.928 2.8825 313.524 4.67601C312.784 5.65601 314.09 4.46001 301.04 26.002C300.514 26.8304 300.056 27.6999 299.67 28.602C298.863 30.6952 298.848 33.0113 299.628 35.1148C300.409 37.2182 301.931 38.9641 303.908 40.024L347.174 65.15C348.242 65.7685 349.424 66.1669 350.648 66.3216C351.873 66.4762 353.116 66.3841 354.305 66.0507C355.493 65.7172 356.603 65.1491 357.568 64.3799C358.534 63.6107 359.335 62.656 359.926 61.572C359.926 61.572 371.624 41.406 372.182 40.468C372.832 39.4188 373.265 38.2498 373.456 37.0303C373.646 35.8107 373.59 34.5654 373.29 33.368C372.99 32.1706 372.454 31.0453 371.713 30.0581C370.971 29.071 370.04 28.2421 368.974 27.62ZM319.76 6.17201C319.901 5.942 320.125 5.7753 320.386 5.70672C320.647 5.63815 320.924 5.67301 321.16 5.80401C325.333 7.69318 329.374 9.86004 333.256 12.29C334.37 12.986 333.342 14.756 332.222 14.056C328.34 11.6254 324.299 9.45847 320.126 7.57001C320.01 7.50243 319.908 7.4126 319.827 7.30569C319.746 7.19878 319.687 7.07689 319.653 6.94701C319.619 6.81712 319.611 6.68181 319.629 6.54881C319.648 6.41582 319.692 6.28777 319.76 6.17201Z" fill="#E3F1FF"/>
<path d="M71.044 150.138C70.4032 149.634 69.6366 149.314 68.8273 149.214C68.018 149.114 67.1967 149.238 66.4525 149.571C65.7082 149.904 65.0693 150.435 64.605 151.105C64.1406 151.775 63.8685 152.56 63.818 153.374C63.712 155.574 63.494 161.726 63.45 162.602C66.4037 162.732 69.3474 163.034 72.266 163.506L72.604 154.422C72.7034 153.635 72.6137 152.836 72.3423 152.091C72.071 151.346 71.6259 150.677 71.044 150.138Z" fill="#333333"/>
<path d="M138.514 186.328C137.724 185.972 136.847 185.854 135.99 185.987C135.133 186.121 134.334 186.502 133.69 187.082C131.04 189.506 128.382 191.93 125.768 194.396C127.665 196.695 129.393 199.128 130.94 201.676C131.794 200.854 130.238 202.298 139.062 194.126C139.732 193.692 140.274 193.087 140.631 192.373C140.988 191.659 141.147 190.862 141.092 190.066C141.036 189.269 140.768 188.502 140.314 187.845C139.861 187.187 139.239 186.663 138.514 186.328Z" fill="#333333"/>
<path d="M111.326 158.664C111 157.906 110.47 157.253 109.795 156.778C109.12 156.303 108.327 156.024 107.503 155.973C106.68 155.922 105.858 156.1 105.129 156.487C104.401 156.875 103.794 157.456 103.376 158.168C102.274 160.124 101.232 162.112 100.16 164.084C97.81 168.406 96.722 169.816 96.6 171.43C99.0279 172.6 101.39 173.902 103.674 175.332C104.718 174.522 104.552 174.472 110.804 162.97C111.212 162.339 111.472 161.623 111.562 160.877C111.653 160.131 111.572 159.374 111.326 158.664Z" fill="#333333"/>
<path d="M87.668 259.9C87.652 260.912 87.28 271.12 87.28 271.12C87.2346 271.822 87.3486 272.525 87.6136 273.176C87.8786 273.828 88.2876 274.411 88.81 274.882C89.4375 275.379 90.1893 275.694 90.9836 275.793C91.7778 275.891 92.584 275.77 93.314 275.442C94.0446 275.116 94.6716 274.595 95.1268 273.937C95.5821 273.279 95.8481 272.509 95.896 271.71C95.896 271.71 96.276 262.076 96.326 260.544C93.4293 260.512 90.5376 260.296 87.668 259.9Z" fill="#333333"/>
<path d="M29.47 225.266C29.208 225.512 29.978 224.796 22.35 231.866C21.8384 232.188 21.3998 232.613 21.0623 233.115C20.7248 233.616 20.4958 234.183 20.39 234.778C20.2287 235.674 20.3518 236.598 20.7421 237.42C21.1323 238.242 21.7701 238.922 22.566 239.363C23.3619 239.805 24.2761 239.986 25.1803 239.882C26.0845 239.778 26.9334 239.393 27.608 238.782C30.056 236.542 32.478 234.274 34.916 232.02C32.9647 229.882 31.146 227.626 29.47 225.266Z" fill="#333333"/>
<path d="M54.862 248.172C53.674 250.436 56.186 245.802 49.452 258.186C49.0628 258.806 48.8218 259.508 48.7479 260.236C48.674 260.965 48.7692 261.7 49.026 262.386C49.3555 263.118 49.8804 263.745 50.543 264.198C51.2057 264.651 51.9804 264.913 52.782 264.954C53.5832 264.996 54.3806 264.817 55.0873 264.438C55.7941 264.058 56.383 263.491 56.79 262.8C57.888 260.852 61.742 253.848 62.544 252.284C59.9233 251.029 57.36 249.657 54.862 248.172Z" fill="#333333"/>
<path d="M136.664 214.086C127.496 185.628 94 163.844 63.45 162.6C47.338 161.944 30.85 167.028 23.02 181.188C23.0582 181.123 23.1089 181.066 23.1694 181.02C23.2298 180.975 23.2987 180.941 23.3721 180.923C23.4454 180.904 23.5218 180.9 23.5966 180.912C23.6715 180.923 23.7433 180.949 23.808 180.988C24.008 181.096 133.95 240.712 134.656 241.116C134.785 241.195 134.879 241.321 134.916 241.468C134.954 241.615 134.932 241.771 134.856 241.902C137.029 237.631 138.309 232.962 138.62 228.18C138.931 223.398 138.265 218.603 136.664 214.086Z" fill="#AEFFD3"/>
<path d="M134.656 241.112C134.456 241 23.76 180.912 23.536 180.912C23.4321 180.897 23.3261 180.916 23.2334 180.965C23.1407 181.014 23.066 181.092 23.02 181.186C15.432 196.058 20.24 212.772 30.146 226.204C44.4885 244.771 65.5745 256.933 88.828 260.05C106.728 262.188 126.146 257.614 134.862 241.894C134.936 241.762 134.956 241.607 134.918 241.461C134.879 241.315 134.785 241.19 134.656 241.112Z" fill="#AEFFD3"/>
<path d="M66.916 114.128V90.158C66.9043 89.8945 66.7915 89.6456 66.6009 89.4633C66.4103 89.281 66.1567 89.1792 65.893 89.1792C65.6292 89.1792 65.3757 89.281 65.1851 89.4633C64.9945 89.6456 64.8816 89.8945 64.87 90.158V114.128C64.8816 114.391 64.9945 114.64 65.1851 114.823C65.3757 115.005 65.6292 115.107 65.893 115.107C66.1567 115.107 66.4103 115.005 66.6009 114.823C66.7915 114.64 66.9043 114.391 66.916 114.128Z" fill="#333333"/>
<path d="M48.552 115.492C48.7464 115.671 49.0028 115.768 49.2672 115.763C49.5316 115.757 49.7837 115.65 49.9706 115.463C50.1575 115.276 50.2648 115.023 50.2699 114.759C50.275 114.494 50.1775 114.238 49.998 114.044L32.738 96.786C32.5429 96.6112 32.2883 96.5178 32.0265 96.5249C31.7647 96.5321 31.5156 96.6392 31.3304 96.8244C31.1452 97.0096 31.038 97.2588 31.0308 97.5206C31.0237 97.7824 31.1171 98.037 31.292 98.232L48.552 115.492Z" fill="#333333"/>
<path d="M82.2779 115.492L97.842 96.954C98.684 95.954 97.242 94.498 96.396 95.508L80.8319 114.044C79.9999 115.046 81.4299 116.502 82.2779 115.492Z" fill="#333333"/>
<path d="M249.69 242.6C249.627 242.415 249.513 242.252 249.36 242.129C249.208 242.007 249.024 241.93 248.83 241.909C248.636 241.887 248.439 241.921 248.264 242.006C248.088 242.092 247.941 242.226 247.838 242.392C247.704 242.618 247.661 242.887 247.718 243.144C248.596 246.08 249.456 249.022 250.356 251.944C250.419 252.129 250.533 252.292 250.686 252.415C250.838 252.537 251.022 252.614 251.216 252.635C251.41 252.657 251.607 252.623 251.782 252.538C251.958 252.452 252.106 252.318 252.208 252.152C252.342 251.926 252.385 251.657 252.328 251.4C251.448 248.466 250.588 245.524 249.69 242.6Z" fill="#333333"/>
<path d="M322.422 242.814C322.28 242.585 322.055 242.42 321.795 242.352C321.535 242.284 321.258 242.318 321.022 242.448C320.906 242.516 320.804 242.606 320.723 242.713C320.641 242.82 320.582 242.942 320.548 243.072C320.514 243.202 320.506 243.338 320.524 243.471C320.543 243.604 320.588 243.732 320.656 243.848L324.956 249.694C325.098 249.923 325.322 250.089 325.583 250.157C325.843 250.226 326.12 250.191 326.356 250.06C326.472 249.992 326.574 249.902 326.656 249.796C326.817 249.578 326.888 249.307 326.854 249.038C326.836 248.905 326.792 248.776 326.724 248.66L322.422 242.814Z" fill="#333333"/>
<path d="M321.972 181.758C319.926 180.538 317.832 179.402 315.746 178.252C315.512 178.115 315.233 178.077 314.97 178.146C314.708 178.215 314.484 178.385 314.347 178.619C314.21 178.853 314.172 179.132 314.241 179.395C314.31 179.657 314.48 179.881 314.714 180.018C316.758 181.238 318.854 182.374 320.94 183.524C321.173 183.645 321.444 183.672 321.696 183.599C321.949 183.526 322.163 183.359 322.296 183.132C322.428 182.905 322.469 182.636 322.408 182.38C322.348 182.125 322.192 181.902 321.972 181.758Z" fill="white"/>
<path d="M310.742 101.646C311.73 102.51 313.182 101.07 312.188 100.2L307.248 95.876C306.26 95.012 304.808 96.452 305.802 97.322L310.742 101.646Z" fill="#333333"/>
<path d="M323.306 84.294L317.792 80.894C316.668 80.2 315.64 81.968 316.76 82.66L322.274 86.06C323.4 86.752 324.426 84.984 323.306 84.294Z" fill="#333333"/>
<path d="M237.4 181.47C238.11 182.576 239.88 181.55 239.168 180.438C232.61 170.221 228.188 158.782 226.168 146.81C226.113 146.616 226.003 146.443 225.85 146.312C225.697 146.181 225.509 146.098 225.309 146.074C225.11 146.049 224.907 146.084 224.727 146.174C224.547 146.264 224.398 146.405 224.298 146.58C224.165 146.815 224.129 147.092 224.196 147.354C226.264 159.497 230.754 171.099 237.4 181.47Z" fill="white"/>
<path d="M168.9 177.362C169.037 177.596 169.261 177.766 169.523 177.835C169.786 177.904 170.065 177.866 170.299 177.729C170.533 177.592 170.703 177.368 170.772 177.105C170.841 176.843 170.803 176.564 170.666 176.33C169.575 174.369 168.45 172.428 167.292 170.506C167.155 170.272 166.931 170.102 166.668 170.033C166.406 169.964 166.127 170.002 165.893 170.139C165.659 170.276 165.489 170.5 165.42 170.762C165.351 171.025 165.389 171.304 165.526 171.538C166.617 173.499 167.742 175.44 168.9 177.362Z" fill="#333333"/>
<path d="M180.144 166.366C180.221 166.624 180.395 166.843 180.629 166.976C180.864 167.109 181.141 167.146 181.402 167.08C181.663 167.008 181.885 166.834 182.019 166.599C182.153 166.363 182.188 166.084 182.116 165.822C181.316 163.888 180.512 161.954 179.702 160.022C179.624 159.764 179.45 159.546 179.216 159.413C178.982 159.28 178.705 159.243 178.444 159.308C178.183 159.38 177.961 159.554 177.827 159.789C177.693 160.025 177.658 160.305 177.73 160.566L180.144 166.366Z" fill="#333333"/>
<path d="M156.98 279.042C-1.44997 277.926 1.46803 278.922 1.22203 279.242C0.998027 279.478 0.782027 276.928 1.07803 319.042C1.07959 319.194 1.14078 319.34 1.24846 319.448C1.35614 319.555 1.50175 319.616 1.65403 319.618H13.096V291.2C13.1896 290.882 13.3615 290.592 13.596 290.358C13.8304 290.123 14.1199 289.952 14.438 289.858H19.552C19.8231 289.858 20.083 289.966 20.2747 290.157C20.4664 290.349 20.574 290.609 20.574 290.88C20.574 291.151 20.4664 291.411 20.2747 291.603C20.083 291.794 19.8231 291.902 19.552 291.902H15.14V319.632H42.498V298.924H40.964C40.6998 298.914 40.4499 298.801 40.2671 298.61C40.0843 298.419 39.9828 298.164 39.984 297.9C39.9833 297.636 40.085 297.382 40.2678 297.191C40.4506 297.001 40.7002 296.888 40.964 296.878H43.2C43.4934 296.917 43.7714 297.033 44.0067 297.212C44.2421 297.392 44.4265 297.629 44.542 297.902V319.622H48.57V293.172H41.6C41.3358 293.162 41.0859 293.049 40.9031 292.858C40.7203 292.667 40.6188 292.412 40.62 292.148C40.6193 291.884 40.721 291.63 40.9038 291.439C41.0866 291.249 41.3362 291.136 41.6 291.126H49.27C49.5886 291.219 49.8787 291.39 50.1133 291.625C50.3479 291.859 50.5194 292.149 50.612 292.468V319.622H117.286V293.172H89.864C89.5998 293.162 89.3499 293.049 89.1671 292.858C88.9843 292.667 88.8828 292.412 88.884 292.148C88.8833 291.884 88.985 291.63 89.1678 291.439C89.3506 291.249 89.6002 291.136 89.864 291.126C109.448 290.792 115.77 290.812 117.886 291.012C119.306 291.148 119.298 291.494 119.328 292.852C119.376 295.092 119.328 301.404 119.328 319.622H138.7V298.924H136.2C135.936 298.914 135.686 298.801 135.503 298.61C135.32 298.419 135.219 298.164 135.22 297.9C135.219 297.636 135.321 297.382 135.504 297.191C135.687 297.001 135.936 296.888 136.2 296.878H139.4C139.694 296.917 139.972 297.033 140.208 297.212C140.443 297.392 140.628 297.629 140.744 297.902V319.622H145.728V292.212H142.28C142.016 292.202 141.766 292.089 141.583 291.898C141.4 291.707 141.299 291.452 141.3 291.188C141.299 290.924 141.401 290.67 141.584 290.479C141.767 290.289 142.016 290.176 142.28 290.166H146.434C146.657 290.166 146.873 290.241 147.047 290.38C147.221 290.518 147.343 290.711 147.394 290.928C147.426 291.072 147.426 291.222 147.392 291.366C147.515 291.453 147.615 291.57 147.682 291.706C147.749 291.841 147.781 291.991 147.776 292.142V319.616H156.976C157.128 319.613 157.273 319.552 157.38 319.444C157.488 319.337 157.549 319.192 157.552 319.04V279.618C157.55 279.466 157.49 279.321 157.383 279.214C157.276 279.106 157.132 279.045 156.98 279.042ZM36.414 298.76L21.014 298.788C20.9129 298.788 20.8136 298.761 20.7261 298.71C20.6387 298.659 20.5662 298.586 20.5159 298.498C20.4656 298.41 20.4393 298.311 20.4397 298.21C20.4401 298.109 20.4671 298.009 20.518 297.922C22.8946 293.77 25.3795 289.68 27.97 285.658C28.0451 285.55 28.154 285.469 28.2795 285.43C28.4051 285.39 28.5403 285.393 28.664 285.438C28.7459 285.467 28.8203 285.515 28.882 285.576C29.082 285.762 28.978 285.68 36.912 297.894C36.988 298.026 37.0084 298.183 36.9687 298.331C36.9289 298.478 36.8323 298.604 36.7 298.68C36.6133 298.731 36.5147 298.759 36.414 298.76ZM81.704 299.522C80.1202 300.021 78.4183 300.003 76.8457 299.469C75.2732 298.935 73.912 297.913 72.96 296.552C72.3509 295.706 71.9175 294.746 71.6855 293.73C71.4534 292.714 71.4273 291.661 71.6088 290.635C71.7903 289.608 72.1757 288.629 72.7422 287.754C73.3087 286.878 74.0448 286.126 74.907 285.54C75.7693 284.954 76.7402 284.547 77.7624 284.343C78.7847 284.138 79.8375 284.141 80.8587 284.35C81.8799 284.56 82.8488 284.972 83.7081 285.562C84.5675 286.152 85.2999 286.908 85.862 287.786C86.5271 288.793 86.9495 289.941 87.0958 291.138C87.2422 292.336 87.1086 293.552 86.7056 294.689C86.3026 295.827 85.6411 296.855 84.7732 297.694C83.9054 298.533 82.8547 299.158 81.704 299.522ZM138.262 292.03C136.279 294.047 134.279 296.047 132.262 298.03C132.153 298.136 132.007 298.195 131.855 298.195C131.703 298.195 131.557 298.136 131.448 298.03C129.431 296.047 127.431 294.047 125.448 292.03C125.341 291.922 125.281 291.776 125.281 291.624C125.281 291.472 125.341 291.326 125.448 291.218C127.432 289.202 129.458 287.218 131.448 285.218C131.544 285.118 131.676 285.061 131.814 285.058H131.908C132.042 285.064 132.168 285.12 132.262 285.216C134.262 287.216 136.284 289.192 138.262 291.216C138.369 291.324 138.43 291.47 138.43 291.623C138.43 291.775 138.369 291.922 138.262 292.03Z" fill="#E3F1FF"/>
<path d="M36.91 297.894C29.086 285.852 29.082 285.754 28.88 285.576C28.819 285.518 28.7469 285.472 28.668 285.442C28.5882 285.414 28.5035 285.403 28.4193 285.409C28.335 285.416 28.2529 285.439 28.178 285.478C28.103 285.517 28.0375 285.573 27.986 285.64C25.3887 289.668 22.8979 293.763 20.516 297.922C20.4663 298.01 20.4403 298.109 20.4406 298.209C20.4408 298.31 20.4672 298.409 20.5173 298.496C20.5673 298.584 20.6392 298.657 20.726 298.708C20.8127 298.759 20.9113 298.786 21.012 298.788C21.012 298.788 35.772 298.766 36.412 298.76C36.5129 298.759 36.6117 298.731 36.6987 298.68C36.7857 298.629 36.858 298.557 36.9082 298.469C36.9585 298.382 36.9851 298.283 36.9854 298.182C36.9858 298.081 36.9598 297.982 36.91 297.894Z" fill="#AEFFD3"/>
<path d="M82.278 284.85C80.7449 284.233 79.0554 284.118 77.4529 284.522C75.8504 284.926 74.4177 285.829 73.3611 287.1C72.3046 288.371 71.6789 289.945 71.5741 291.594C71.4693 293.243 71.8908 294.884 72.778 296.278C73.4435 297.319 74.3467 298.188 75.4134 298.811C76.48 299.435 77.6796 299.797 78.9134 299.867C80.1471 299.937 81.3798 299.712 82.51 299.212C83.6401 298.713 84.6355 297.952 85.414 296.992C86.183 296.045 86.719 294.931 86.9789 293.739C87.2387 292.547 87.2152 291.311 86.9101 290.13C86.6051 288.948 86.027 287.855 85.2225 286.938C84.4179 286.021 83.4094 285.306 82.278 284.85Z" fill="#AEFFD3"/>
<path d="M138.262 291.218C136.276 289.204 134.244 287.236 132.262 285.218C132.168 285.122 132.042 285.066 131.908 285.06H131.814C131.676 285.063 131.544 285.12 131.448 285.22C129.468 287.238 127.448 289.22 125.448 291.22C125.341 291.328 125.281 291.474 125.281 291.626C125.281 291.778 125.341 291.924 125.448 292.032C127.434 294.046 129.434 296.046 131.448 298.032C131.557 298.138 131.703 298.198 131.855 298.198C132.007 298.198 132.153 298.138 132.262 298.032C134.275 296.045 136.275 294.045 138.262 292.032C138.37 291.924 138.43 291.778 138.43 291.625C138.43 291.472 138.37 291.326 138.262 291.218Z" fill="#AEFFD3"/>
<path d="M49.274 291.126H41.6C41.3361 291.136 41.0866 291.249 40.9038 291.439C40.721 291.63 40.6193 291.884 40.62 292.148C40.6193 292.412 40.7209 292.667 40.9036 292.857C41.0864 293.048 41.3359 293.161 41.6 293.172H48.568V330.4C48.5673 330.602 48.6268 330.8 48.739 330.969C48.8511 331.137 49.0109 331.269 49.1978 331.346C49.3848 331.423 49.5906 331.443 49.789 331.403C49.9874 331.364 50.1695 331.266 50.312 331.122C50.407 331.027 50.4824 330.915 50.5339 330.791C50.5854 330.667 50.6119 330.534 50.612 330.4V292.468C50.5581 292.132 50.3998 291.822 50.1597 291.581C49.9195 291.34 49.6097 291.181 49.274 291.126Z" fill="#333333"/>
<path d="M43.44 296.926C43.24 296.858 43.316 296.838 40.964 296.878C40.6998 296.888 40.4499 297.001 40.2671 297.192C40.0843 297.383 39.9828 297.638 39.984 297.902C39.9833 298.166 40.085 298.42 40.2678 298.611C40.4506 298.801 40.7001 298.914 40.964 298.924H42.498V330.4C42.5053 330.597 42.5696 330.788 42.6831 330.949C42.7966 331.111 42.9545 331.236 43.1376 331.309C43.3206 331.382 43.5211 331.401 43.7146 331.363C43.9082 331.325 44.0865 331.231 44.228 331.094C44.4191 330.912 44.5324 330.664 44.544 330.4V297.902C44.5462 297.762 44.5181 297.623 44.4616 297.495C44.4051 297.367 44.3215 297.253 44.2166 297.16C44.1117 297.067 43.988 296.998 43.8539 296.958C43.7199 296.918 43.5787 296.907 43.44 296.926Z" fill="#333333"/>
<path d="M19.552 289.848H14.438C14.1194 289.941 13.8294 290.112 13.5948 290.347C13.3602 290.581 13.1886 290.871 13.096 291.19V330.39C13.0952 330.524 13.1211 330.658 13.1722 330.782C13.2233 330.906 13.2985 331.019 13.3936 331.114C13.4886 331.21 13.6016 331.285 13.726 331.336C13.8503 331.387 13.9836 331.413 14.118 331.412C14.2523 331.412 14.3853 331.386 14.5094 331.335C14.6336 331.284 14.7463 331.208 14.8413 331.113C14.9362 331.018 15.0115 330.906 15.0628 330.781C15.114 330.657 15.1403 330.524 15.14 330.39V291.892H19.552C19.8231 291.892 20.083 291.784 20.2747 291.593C20.4664 291.401 20.574 291.141 20.574 290.87C20.574 290.599 20.4664 290.339 20.2747 290.147C20.083 289.956 19.8231 289.848 19.552 289.848Z" fill="#333333"/>
<path d="M117.4 290.97C114.87 290.804 108.156 290.814 89.862 291.126C89.5977 291.136 89.3479 291.249 89.1651 291.44C88.9822 291.631 88.8807 291.886 88.882 292.15C88.8812 292.414 88.983 292.668 89.1657 292.859C89.3485 293.049 89.5981 293.162 89.862 293.172H117.286V330.4C117.293 330.597 117.358 330.788 117.471 330.949C117.585 331.111 117.742 331.236 117.926 331.309C118.109 331.382 118.309 331.401 118.503 331.363C118.696 331.325 118.874 331.231 119.016 331.094C119.207 330.912 119.32 330.664 119.332 330.4C119.786 304.178 119.46 295.918 119.494 292.984C119.514 291.142 118.974 291.072 117.4 290.97Z" fill="#333333"/>
<path d="M147.4 291.372C147.433 291.228 147.433 291.079 147.401 290.935C147.368 290.791 147.303 290.656 147.211 290.541C147.119 290.425 147.002 290.332 146.869 290.268C146.735 290.204 146.59 290.172 146.442 290.172H142.28C142.083 290.179 141.892 290.244 141.731 290.357C141.569 290.471 141.444 290.628 141.371 290.812C141.297 290.995 141.279 291.195 141.317 291.389C141.355 291.582 141.449 291.761 141.586 291.902C141.768 292.093 142.016 292.206 142.28 292.218H145.73V330.4C145.737 330.598 145.801 330.789 145.915 330.951C146.028 331.112 146.186 331.238 146.37 331.311C146.553 331.385 146.754 331.403 146.948 331.365C147.142 331.326 147.321 331.232 147.462 331.094C147.652 330.912 147.765 330.663 147.776 330.4V292.148C147.781 291.998 147.75 291.849 147.684 291.713C147.619 291.578 147.521 291.461 147.4 291.372Z" fill="#333333"/>
<path d="M139.64 296.926C139.422 296.854 139.536 296.822 136.206 296.878C135.942 296.888 135.692 297.001 135.509 297.192C135.326 297.383 135.225 297.638 135.226 297.902C135.225 298.166 135.327 298.42 135.51 298.611C135.693 298.801 135.942 298.914 136.206 298.924H138.7V330.4C138.707 330.597 138.772 330.788 138.885 330.949C138.999 331.111 139.156 331.236 139.34 331.309C139.523 331.382 139.723 331.401 139.917 331.363C140.11 331.325 140.288 331.231 140.43 331.094C140.621 330.912 140.734 330.663 140.746 330.4V297.902C140.75 297.691 140.684 297.484 140.559 297.313C140.434 297.143 140.257 297.018 140.054 296.958C139.92 296.918 139.779 296.907 139.64 296.926Z" fill="#333333"/>
<path d="M332.336 56.536L318.49 48.494C316.598 51.756 312.532 58.748 312.018 59.634C311.204 59.2538 310.363 58.9356 309.502 58.682C307.931 58.3186 306.29 58.3882 304.755 58.8834C303.22 59.3786 301.849 60.2808 300.786 61.494C299.907 62.798 299.427 64.3296 299.404 65.902C299.381 67.4743 299.817 69.0192 300.658 70.348C298.164 69.4049 295.397 69.4913 292.966 70.588C291.524 71.4068 290.37 72.6501 289.66 74.1485C288.95 75.647 288.72 77.3278 289 78.962C289.632 81.3392 290.972 83.468 292.842 85.066C292.888 85.11 292.938 85.15 292.986 85.194C292.329 85.0356 291.66 84.9319 290.986 84.884C289.128 84.7731 287.287 85.2876 285.756 86.3454C284.226 87.4032 283.093 88.9433 282.54 90.72C281.056 95.34 284.84 99.978 289.786 103.992C289.354 104.642 288.852 105.726 286.654 109.354C286.186 110.094 285.766 110.866 285.398 111.662C284.698 113.357 284.6 115.241 285.122 116.999C285.643 118.757 286.752 120.283 288.263 121.322C289.773 122.361 291.595 122.85 293.423 122.708C295.251 122.567 296.976 121.802 298.308 120.542C299.424 119.444 299.622 118.91 303.204 112.742C303.414 112.713 303.61 112.621 303.767 112.478C303.923 112.335 304.033 112.148 304.082 111.942C304.13 111.735 304.114 111.519 304.036 111.322C303.959 111.124 303.824 110.955 303.648 110.836C294.648 105.026 278.682 96.13 286.248 88.548C287.315 87.5257 288.727 86.9405 290.204 86.908C293.622 86.908 295.804 88.486 298.12 89.28C298.337 89.3374 298.567 89.322 298.775 89.2362C298.982 89.1504 299.156 88.999 299.27 88.805C299.383 88.6111 299.43 88.3853 299.403 88.1623C299.376 87.9393 299.276 87.7312 299.12 87.57C296.27 85.004 289.584 81.304 291.158 75.97C291.5 74.6264 292.325 73.4556 293.475 72.6811C294.625 71.9065 296.02 71.5822 297.394 71.77C299.948 72.092 302.4 72.97 304.58 74.34C305.536 74.928 306.75 73.478 305.818 72.74C303.046 70.528 300.818 68.582 301.604 64.87C301.726 64.246 301.928 63.642 302.204 63.07C302.932 62.0767 303.932 61.3147 305.083 60.8755C306.234 60.4363 307.487 60.3386 308.692 60.594C314.191 62.6745 319.308 65.6522 323.834 69.406C324.634 70.284 325.816 69.23 325.462 68.28C326.65 66.274 332.12 56.908 332.336 56.536Z" fill="#333333"/>
<path d="M247.846 44.254C245.728 44.5481 243.758 45.5092 242.222 46.998C240.687 48.4868 239.665 50.4259 239.306 52.5343C238.946 54.6427 239.268 56.8107 240.223 58.7242C241.179 60.6377 242.719 62.1971 244.62 63.1766C246.521 64.156 248.685 64.5045 250.798 64.1716C252.911 63.8386 254.862 62.8415 256.37 61.3248C257.878 59.8081 258.864 57.8506 259.185 55.736C259.505 53.6214 259.144 51.4596 258.154 49.564C257.184 47.7316 255.676 46.2404 253.834 45.291C251.991 44.3416 249.901 43.9797 247.846 44.254ZM241.744 51.628C242.273 50.0733 243.276 48.7239 244.613 47.7701C245.949 46.8163 247.552 46.3062 249.194 46.312C250.875 46.3057 252.514 46.8343 253.875 47.8214C255.235 48.8084 256.246 50.2028 256.762 51.8026C257.278 53.4024 257.271 55.1248 256.743 56.7206C256.214 58.3163 255.192 59.7026 253.824 60.6789C252.456 61.6552 250.812 62.1709 249.132 62.1514C247.451 62.1318 245.82 61.5781 244.475 60.5702C243.13 59.5623 242.14 58.1526 241.649 56.5451C241.158 54.9375 241.191 53.2154 241.744 51.628Z" fill="#333333"/>
<path d="M233.352 40.3C236.436 42.665 240.253 43.8687 244.136 43.7C247.673 43.7312 251.197 43.2653 254.604 42.316C254.831 42.2492 255.029 42.1095 255.168 41.9186C255.307 41.7277 255.38 41.4962 255.374 41.26C255.368 41.0247 255.285 40.7978 255.139 40.6133C254.993 40.4287 254.791 40.2963 254.564 40.236C250.994 39.51 248.004 36.49 245.688 31.294C245.339 30.2751 244.725 29.3679 243.908 28.666C243.613 28.4206 243.272 28.2362 242.904 28.1234C242.537 28.0107 242.152 27.9718 241.77 28.009C241.387 28.0462 241.016 28.1587 240.678 28.3401C240.34 28.5216 240.04 28.7683 239.798 29.066C239.308 29.766 239.022 30.586 238.966 31.44C238.211 30.2562 237.375 29.1267 236.462 28.06C235.862 27.1976 235 26.5512 234.004 26.216C233.052 26.0917 232.088 26.3224 231.296 26.8641C230.504 27.4057 229.939 28.2202 229.71 29.152C229.154 31.1624 229.202 33.2922 229.85 35.275C230.498 37.2579 231.716 39.0057 233.352 40.3ZM232.418 28.748C232.524 28.6125 232.66 28.5033 232.815 28.4291C232.97 28.3548 233.14 28.3175 233.312 28.32C233.484 28.3213 233.653 28.3622 233.807 28.4395C233.961 28.5169 234.094 28.6286 234.198 28.766C236.504 31.3389 238.382 34.2647 239.762 37.432C239.886 37.6678 240.093 37.8493 240.343 37.9411C240.593 38.033 240.868 38.0286 241.115 37.9289C241.362 37.8292 241.563 37.6413 241.679 37.4016C241.796 37.162 241.819 36.8877 241.744 36.632C241.104 34.8811 240.912 32.9981 241.184 31.154C241.298 30.676 241.558 30.108 242.008 30.134C243.856 30.216 243.522 34.722 249.162 39.934C249.636 40.324 250.138 40.678 250.666 40.99C248.312 41.3936 245.926 41.5883 243.538 41.572C237.492 41.562 231.812 38.172 231.408 32.384C231.32 31.7411 231.364 31.0869 231.537 30.4616C231.711 29.8363 232.011 29.2532 232.418 28.748Z" fill="#333333"/>
<path d="M278.186 308.252C266.012 302.642 251.278 303.998 241.062 306.124C236.178 307.082 231.514 308.938 227.308 311.598C225.222 312.96 223.449 314.75 222.108 316.85C222.037 316.973 221.992 317.108 221.973 317.249C221.955 317.39 221.965 317.532 222.002 317.669C222.039 317.806 222.103 317.934 222.19 318.046C222.277 318.158 222.385 318.252 222.508 318.322C223.108 318.652 288.054 318.416 288.72 318.408C288.876 318.403 289.029 318.365 289.169 318.296C289.309 318.227 289.432 318.129 289.531 318.008C289.629 317.887 289.701 317.747 289.741 317.596C289.781 317.445 289.788 317.288 289.762 317.134C289.724 316.928 289.628 316.737 289.486 316.584C286.301 313.094 282.461 310.264 278.186 308.252ZM286.14 316.252C277.046 316.252 231.156 316.302 225.24 316.304C227.64 313.715 230.624 311.737 233.942 310.532C241.585 307.738 249.671 306.352 257.808 306.44C270.08 306.446 279.162 309.6 286.14 316.258V316.252Z" fill="#333333"/>
<path d="M381.284 316.586C374.744 309.527 365.748 305.243 356.146 304.614C348.352 303.92 340.497 304.43 332.858 306.124C327.975 307.084 323.313 308.94 319.106 311.598C317.019 312.959 315.246 314.749 313.906 316.85C313.815 317.014 313.768 317.198 313.768 317.386C313.769 317.573 313.818 317.757 313.91 317.92C314.004 318.082 314.138 318.217 314.3 318.312C314.461 318.407 314.645 318.459 314.832 318.462C317.588 318.48 377.08 318.462 380.524 318.408C380.732 318.402 380.934 318.336 381.106 318.218C381.278 318.1 381.413 317.936 381.494 317.744C381.573 317.551 381.596 317.339 381.558 317.134C381.521 316.929 381.426 316.739 381.284 316.586ZM377.936 316.258C366.244 316.258 324.998 316.308 317.04 316.31C319.439 313.72 322.422 311.741 325.74 310.538C333.382 307.744 341.468 306.358 349.604 306.446C361.878 306.446 370.958 309.6 377.936 316.258Z" fill="#333333"/>
<path d="M14.388 188.258C14.5163 188.332 14.6586 188.379 14.8058 188.396C14.9531 188.413 15.1022 188.399 15.244 188.356C15.82 188.27 15.518 188.488 24.812 172.258C24.952 172.011 24.9897 171.719 24.9172 171.445C24.8447 171.17 24.6677 170.935 24.424 170.79C23.2944 170.124 22.0431 169.69 20.7435 169.514C19.4439 169.337 18.1223 169.423 16.856 169.764C14.9287 170.281 13.1975 171.357 11.8803 172.856C10.5631 174.355 9.71895 176.21 9.45401 178.188C9.18975 180.166 9.51734 182.178 10.3955 183.97C11.2736 185.763 12.6629 187.255 14.388 188.258ZM11.588 178.258C11.7768 177.084 12.2285 175.969 12.9095 174.994C13.5904 174.02 14.4828 173.213 15.52 172.632C16.5561 172.049 17.7105 171.709 18.8968 171.636C20.0832 171.564 21.2706 171.76 22.37 172.212L14.592 185.78C13.4589 184.912 12.581 183.754 12.0509 182.429C11.5208 181.104 11.3581 179.66 11.58 178.25L11.588 178.258Z" fill="#333333"/>
<path d="M77.112 284.1C76.9281 284.126 76.7497 284.182 76.584 284.266C75.1014 284.807 73.7978 285.749 72.818 286.986C71.825 288.257 71.2231 289.79 71.0857 291.397C70.9482 293.004 71.2812 294.617 72.044 296.038C72.7872 297.411 73.9028 298.546 75.2626 299.313C76.6223 300.08 78.171 300.448 79.7304 300.374C81.2899 300.3 82.7968 299.788 84.078 298.896C85.3591 298.003 86.3624 296.768 86.9725 295.331C87.5826 293.894 87.7746 292.314 87.5266 290.772C87.2786 289.231 86.6006 287.791 85.5706 286.617C84.5406 285.444 83.2003 284.586 81.704 284.14C80.2076 283.695 78.616 283.681 77.112 284.1ZM85.416 292.942C85.3165 293.75 85.0571 294.531 84.6527 295.237C84.2484 295.944 83.7073 296.564 83.0611 297.059C82.4148 297.555 81.6763 297.916 80.8887 298.123C80.1011 298.33 79.2802 298.378 78.4738 298.265C77.6674 298.151 76.8918 297.878 76.1921 297.461C75.4925 297.044 74.8829 296.493 74.3988 295.838C73.9147 295.183 73.566 294.438 73.3729 293.647C73.1798 292.856 73.1462 292.034 73.274 291.23C73.5265 289.642 74.3923 288.217 75.6851 287.262C76.9779 286.306 78.5942 285.896 80.1861 286.121C81.778 286.345 83.218 287.186 84.1962 288.462C85.1744 289.737 85.6124 291.346 85.416 292.942Z" fill="#333333"/>
<path d="M37.136 297.32C30.078 286.37 29.382 285.38 29.242 285.23C29.1287 285.117 28.9922 285.03 28.842 284.975C28.6918 284.92 28.5315 284.899 28.3721 284.912C28.2127 284.925 28.0581 284.972 27.9189 285.051C27.7797 285.13 27.6593 285.238 27.566 285.368C25.106 289.168 22.658 293.194 20.082 297.674C19.9901 297.838 19.9424 298.023 19.9436 298.211C19.9448 298.399 19.9948 298.583 20.0888 298.746C20.1828 298.909 20.3175 299.044 20.4797 299.139C20.6419 299.234 20.826 299.286 21.014 299.288C21.014 299.288 35.776 299.266 36.414 299.26C36.6014 299.259 36.7854 299.209 36.9473 299.115C37.1092 299.02 37.2433 298.885 37.336 298.722C37.4489 298.496 37.4903 298.24 37.4545 297.99C37.4188 297.739 37.3077 297.506 37.136 297.32ZM34.436 297.136H22.898C24.562 294.306 26.478 291.098 28.48 287.936L34.436 297.136Z" fill="#333333"/>
<path d="M138.612 290.86C132.026 284.4 132.454 284.46 131.794 284.566C131.525 284.574 131.27 284.686 131.082 284.878C130.05 285.932 126.042 289.92 125.094 290.878C124.896 291.08 124.785 291.352 124.785 291.635C124.785 291.918 124.896 292.19 125.094 292.392C127.083 294.407 129.088 296.407 131.108 298.392C131.31 298.59 131.582 298.702 131.865 298.702C132.148 298.702 132.42 298.59 132.622 298.392C133.69 297.34 137.67 293.318 138.622 292.392C138.824 292.187 138.936 291.911 138.934 291.624C138.932 291.337 138.816 291.062 138.612 290.86ZM136.334 291.626L131.862 296.112L127.378 291.64L131.848 287.154L136.334 291.626Z" fill="#333333"/>
<path d="M65.93 115.116C66.189 115.107 66.4349 115 66.6179 114.816C66.801 114.633 66.9075 114.387 66.916 114.128V90.158C66.9043 89.8945 66.7915 89.6456 66.6009 89.4633C66.4103 89.281 66.1567 89.1792 65.893 89.1792C65.6292 89.1792 65.3757 89.281 65.1851 89.4633C64.9945 89.6456 64.8816 89.8945 64.87 90.158V114.128C64.8746 114.262 64.9057 114.395 64.9615 114.517C65.0173 114.64 65.0967 114.75 65.1952 114.842C65.2936 114.933 65.4092 115.005 65.5353 115.052C65.6614 115.099 65.7955 115.121 65.93 115.116Z" fill="#333333"/>
<path d="M48.552 115.492C48.747 115.667 49.0016 115.76 49.2634 115.753C49.5252 115.746 49.7744 115.639 49.9596 115.454C50.1448 115.268 50.252 115.019 50.2591 114.757C50.2663 114.496 50.1728 114.241 49.998 114.046L32.738 96.7859C32.5429 96.6111 32.2883 96.5177 32.0265 96.5248C31.7647 96.5319 31.5156 96.6391 31.3304 96.8243C31.1452 97.0095 31.038 97.2587 31.0308 97.5205C31.0237 97.7823 31.1171 98.0369 31.292 98.2319L48.552 115.492Z" fill="#333333"/>
<path d="M82.2779 115.492L97.842 96.954C98.684 95.954 97.242 94.498 96.396 95.508L80.83 114.048C80 115.048 81.4299 116.502 82.2779 115.492Z" fill="#333333"/>
<path d="M249.69 242.6C249.627 242.415 249.513 242.252 249.36 242.129C249.208 242.007 249.024 241.93 248.83 241.909C248.636 241.887 248.439 241.921 248.264 242.006C248.088 242.092 247.94 242.226 247.838 242.392C247.704 242.618 247.661 242.887 247.718 243.144C248.596 246.08 249.456 249.022 250.356 251.944C250.419 252.129 250.533 252.292 250.686 252.415C250.838 252.537 251.022 252.614 251.216 252.635C251.41 252.657 251.606 252.623 251.782 252.538C251.958 252.452 252.105 252.318 252.208 252.152C252.342 251.926 252.385 251.657 252.328 251.4C251.448 248.466 250.588 245.524 249.69 242.6Z" fill="#333333"/>
<path d="M322.422 242.814C322.28 242.585 322.055 242.42 321.795 242.352C321.535 242.284 321.258 242.318 321.022 242.448C320.906 242.516 320.804 242.606 320.723 242.713C320.641 242.82 320.582 242.942 320.548 243.072C320.514 243.202 320.506 243.338 320.524 243.471C320.543 243.604 320.588 243.732 320.656 243.848L324.956 249.694C325.096 249.925 325.321 250.092 325.582 250.16C325.843 250.229 326.121 250.193 326.356 250.06C326.59 249.923 326.76 249.698 326.829 249.436C326.897 249.173 326.859 248.894 326.722 248.66L322.422 242.814Z" fill="#333333"/>
<path d="M321.972 181.758C319.926 180.538 317.832 179.402 315.746 178.252C315.513 178.131 315.242 178.104 314.99 178.177C314.737 178.25 314.523 178.417 314.39 178.644C314.258 178.871 314.217 179.14 314.278 179.396C314.338 179.651 314.494 179.874 314.714 180.018C316.758 181.238 318.854 182.374 320.94 183.524C321.174 183.661 321.453 183.699 321.715 183.63C321.978 183.561 322.202 183.391 322.339 183.157C322.476 182.923 322.514 182.644 322.445 182.381C322.376 182.119 322.206 181.895 321.972 181.758Z" fill="#333333"/>
<path d="M305.8 97.322L310.74 101.646C311.728 102.512 313.18 101.07 312.188 100.2L307.246 95.876C306.262 95.012 304.81 96.452 305.8 97.322Z" fill="#333333"/>
<path d="M316.76 82.656L322.274 86.056C323.398 86.748 324.426 84.98 323.306 84.29L317.792 80.89C316.668 80.2 315.64 81.966 316.76 82.656Z" fill="#333333"/>
<path d="M226.172 146.81C226.1 146.548 225.927 146.326 225.691 146.192C225.454 146.058 225.175 146.023 224.913 146.095C224.651 146.167 224.429 146.34 224.295 146.576C224.161 146.813 224.126 147.092 224.198 147.354C226.264 159.497 230.754 171.1 237.398 181.472C238.106 182.576 239.876 181.552 239.164 180.438C232.61 170.22 228.19 158.781 226.172 146.81Z" fill="#333333"/>
<path d="M167.292 170.506C167.155 170.272 166.931 170.102 166.668 170.033C166.406 169.964 166.127 170.002 165.893 170.139C165.659 170.276 165.489 170.5 165.42 170.762C165.351 171.025 165.389 171.304 165.526 171.538C166.618 173.498 167.742 175.44 168.9 177.362C168.968 177.478 169.058 177.579 169.165 177.661C169.272 177.742 169.394 177.801 169.523 177.835C169.653 177.869 169.789 177.877 169.922 177.859C170.055 177.841 170.183 177.797 170.299 177.729C170.415 177.661 170.516 177.571 170.598 177.464C170.679 177.357 170.738 177.235 170.772 177.105C170.806 176.976 170.814 176.84 170.796 176.707C170.778 176.574 170.734 176.446 170.666 176.33C169.574 174.37 168.449 172.428 167.292 170.506Z" fill="#333333"/>
<path d="M179.702 160.022C179.624 159.764 179.45 159.547 179.216 159.414C178.981 159.281 178.705 159.243 178.444 159.308C178.314 159.344 178.193 159.405 178.087 159.488C177.981 159.57 177.892 159.673 177.826 159.79C177.76 159.907 177.717 160.036 177.701 160.169C177.684 160.303 177.694 160.438 177.73 160.568C178.53 162.5 179.334 164.432 180.144 166.366C180.221 166.624 180.395 166.843 180.629 166.976C180.864 167.109 181.141 167.146 181.402 167.08C181.663 167.008 181.885 166.834 182.019 166.599C182.153 166.363 182.188 166.083 182.116 165.822L179.702 160.022Z" fill="#333333"/>
<path d="M320.126 7.57002C324.299 9.45844 328.341 11.6253 332.224 14.056C333.342 14.756 334.37 12.986 333.256 12.29C329.374 9.85871 325.332 7.6918 321.158 5.80402C320.922 5.67301 320.645 5.63816 320.384 5.70673C320.123 5.7753 319.899 5.942 319.758 6.17202C319.655 6.34642 319.607 6.54764 319.619 6.74974C319.632 6.95185 319.704 7.1456 319.828 7.30602C319.909 7.41274 320.01 7.50245 320.126 7.57002Z" fill="#333333"/>
<path d="M156.982 278.542H1.64799C1.36515 278.546 1.09509 278.66 0.895263 278.861C0.695434 279.061 0.581603 279.331 0.577986 279.614C0.305986 318.32 0.377987 319.538 0.927987 319.836C1.24399 320.2 1.01799 320.134 13.096 320.122V330.4C13.1033 330.597 13.1676 330.788 13.2811 330.949C13.3946 331.111 13.5524 331.236 13.7355 331.309C13.9186 331.382 14.1191 331.401 14.3126 331.363C14.5062 331.325 14.6845 331.231 14.826 331.094C15.0171 330.912 15.1303 330.663 15.142 330.4V320.128H42.498V330.4C42.5053 330.597 42.5696 330.788 42.6831 330.949C42.7966 331.111 42.9544 331.236 43.1375 331.309C43.3206 331.382 43.5211 331.401 43.7146 331.363C43.9082 331.325 44.0865 331.231 44.228 331.094C44.4191 330.912 44.5323 330.663 44.544 330.4V320.128H48.57V330.4C48.5773 330.597 48.6416 330.788 48.7551 330.949C48.8686 331.111 49.0264 331.236 49.2095 331.309C49.3926 331.382 49.5931 331.401 49.7866 331.363C49.9802 331.325 50.1585 331.231 50.3 331.094C50.4911 330.912 50.6043 330.663 50.616 330.4V320.128H117.286V330.4C117.293 330.597 117.358 330.788 117.471 330.949C117.585 331.111 117.742 331.236 117.926 331.309C118.109 331.382 118.309 331.401 118.503 331.363C118.696 331.325 118.874 331.231 119.016 331.094C119.207 330.912 119.32 330.663 119.332 330.4V320.128H138.7V330.4C138.699 330.602 138.759 330.8 138.871 330.969C138.983 331.137 139.143 331.269 139.33 331.346C139.517 331.423 139.723 331.443 139.921 331.404C140.119 331.364 140.301 331.266 140.444 331.122C140.539 331.027 140.614 330.915 140.666 330.791C140.717 330.667 140.744 330.534 140.744 330.4V320.128H145.732V330.4C145.731 330.602 145.791 330.8 145.903 330.969C146.015 331.137 146.175 331.269 146.362 331.346C146.549 331.423 146.755 331.443 146.953 331.404C147.151 331.364 147.333 331.266 147.476 331.122C147.571 331.027 147.646 330.915 147.698 330.791C147.749 330.667 147.776 330.534 147.776 330.4V320.128H156.988C157.272 320.125 157.543 320.01 157.743 319.809C157.942 319.608 158.055 319.336 158.056 319.052V279.61C158.054 279.326 157.94 279.055 157.739 278.855C157.538 278.655 157.266 278.543 156.982 278.542ZM146.434 290.166H142.278C142.014 290.176 141.765 290.289 141.582 290.479C141.399 290.67 141.297 290.924 141.298 291.188C141.297 291.452 141.399 291.707 141.582 291.897C141.764 292.088 142.014 292.201 142.278 292.212H145.732V317.972H140.744V297.9C140.629 297.628 140.444 297.39 140.209 297.211C139.973 297.032 139.695 296.917 139.402 296.878H136.2C135.936 296.888 135.686 297.001 135.503 297.192C135.32 297.383 135.219 297.638 135.22 297.902C135.219 298.166 135.321 298.42 135.504 298.611C135.687 298.801 135.936 298.914 136.2 298.924H138.7V317.972H119.332C119.332 290.352 119.446 291.892 119.08 291.5C118.658 290.932 120.368 290.604 89.864 291.126C89.6001 291.136 89.3505 291.249 89.1678 291.439C88.985 291.63 88.8833 291.884 88.884 292.148C88.8832 292.412 88.9849 292.667 89.1676 292.857C89.3503 293.048 89.5999 293.161 89.864 293.172H117.286V317.972H50.616V292.468C50.5224 292.15 50.3505 291.86 50.1161 291.626C49.8816 291.391 49.5921 291.22 49.274 291.126H41.6C41.3361 291.136 41.0865 291.249 40.9038 291.439C40.721 291.63 40.6193 291.884 40.62 292.148C40.6192 292.412 40.7209 292.667 40.9036 292.857C41.0864 293.048 41.3359 293.161 41.6 293.172H48.566V317.972H44.544V297.9C44.4286 297.628 44.244 297.39 44.0087 297.211C43.7733 297.032 43.4953 296.917 43.202 296.878H40.964C40.6998 296.888 40.4499 297.001 40.2671 297.192C40.0842 297.383 39.9827 297.638 39.984 297.902C39.9833 298.166 40.085 298.42 40.2678 298.611C40.4505 298.801 40.7001 298.914 40.964 298.924H42.498V317.972H15.14V291.894H19.552C19.8159 291.884 20.0654 291.771 20.2482 291.581C20.431 291.39 20.5327 291.136 20.532 290.872C20.5327 290.608 20.4311 290.353 20.2483 290.163C20.0656 289.972 19.816 289.859 19.552 289.848H14.438C14.1194 289.941 13.8293 290.112 13.5947 290.347C13.3601 290.581 13.1886 290.871 13.096 291.19V317.972H2.72999V280.692H155.904V317.972H147.776V292.148C147.782 291.946 147.4 290.158 146.434 290.166Z" fill="#333333"/>
<path d="M326.066 279.064C328.729 282.024 332.117 284.239 335.897 285.49C339.676 286.741 343.717 286.986 347.62 286.2C352.161 285.239 356.396 283.174 359.951 280.188C363.505 277.202 366.27 273.387 368 269.08C371.762 259.558 370.548 249.016 370 238.938C368.016 203.114 364.6 167.926 360.368 139.858C360.349 139.742 360.29 139.636 360.202 139.558C360.113 139.481 360 139.437 359.882 139.434C360.214 122.267 354.122 105.595 342.8 92.686C344.188 88.052 344.786 83.22 344.57 78.388C344.42 76.434 343.864 74.5328 342.937 72.8058C342.011 71.0788 340.735 69.564 339.19 68.358C336.312 65.8166 333.189 63.5663 329.868 61.64L332.468 57.192L346.92 65.592C348.615 66.5741 350.567 67.0226 352.52 66.8788C354.474 66.735 356.339 66.0057 357.872 64.786C358.889 63.976 359.734 62.9701 360.356 61.828C361.906 59.098 372.17 41.472 372.616 40.718C373.296 39.6112 373.748 38.3799 373.946 37.0961C374.144 35.8124 374.083 34.5021 373.768 33.242C373.454 31.9814 372.89 30.7967 372.11 29.7579C371.33 28.719 370.349 27.8472 369.226 27.194C369.132 27.14 327.084 2.73398 325.922 2.04798C323.863 0.785547 321.409 0.332113 319.035 0.7755C316.661 1.21889 314.536 2.52754 313.072 4.44798C312.36 5.40598 302.484 22.664 300.576 25.81C300.014 26.6983 299.532 27.6354 299.138 28.61C298.316 30.8346 298.341 33.2838 299.207 35.4916C300.073 37.6994 301.721 39.5118 303.836 40.584C305.686 41.626 317.848 48.722 317.848 48.722L311.608 59.466C309.57 58.4489 307.228 58.2195 305.032 58.822C303.346 59.2005 301.844 60.1519 300.782 61.514C299.776 63.0618 299.298 64.8939 299.42 66.736C299.506 67.7928 299.792 68.8237 300.262 69.774C281.252 67.188 261.108 68.026 243.342 75.266C243.318 75.276 243.298 75.292 243.274 75.304C243.254 75.3067 243.235 75.3114 243.216 75.318C226.124 82.592 212.07 95.634 204.854 109.748C198.482 122.204 196.282 134.276 192.782 148.966C184.62 144.366 174.198 145.438 166.744 149.612C162.343 152.171 158.761 155.929 156.417 160.448C154.073 164.966 153.063 170.059 153.506 175.13C154.12 180.28 157.122 185.574 162.686 191.314C162.876 191.514 165.042 187.114 134.648 245.954C134.236 245.796 133.712 245.6 133.228 245.418C141.702 233.748 141.09 217.514 131.562 201.772C132.434 200.972 138.122 195.748 140.056 193.906C140.788 193.229 141.296 192.344 141.51 191.369C141.725 190.395 141.636 189.379 141.256 188.457C140.875 187.534 140.222 186.751 139.383 186.211C138.545 185.671 137.561 185.4 136.564 185.436C134.116 185.476 132.55 187.468 130.93 188.972L125.83 193.694C119.786 186.376 112.557 180.124 104.444 175.2C105.284 174.26 105.958 173.186 106.444 172.022C111.668 162.422 111.626 162.588 111.944 161.654C112.242 160.604 112.183 159.484 111.774 158.472C111.365 157.459 110.63 156.612 109.686 156.064C108.742 155.515 107.643 155.297 106.561 155.443C105.479 155.59 104.476 156.092 103.712 156.872C102.443 158.58 101.37 160.425 100.512 162.372C96.512 169.746 96.48 169.584 96.18 170.68C88.7821 167.044 80.9024 164.485 72.78 163.08C72.816 162.146 73.08 155.87 73.132 153.662C73.1668 152.7 72.9165 151.749 72.4124 150.928C71.9084 150.108 71.1731 149.455 70.299 149.051C69.4249 148.648 68.451 148.511 67.4996 148.659C66.5483 148.808 65.6619 149.234 64.952 149.884C64.3146 150.553 63.8321 151.353 63.5387 152.229C63.2452 153.105 63.148 154.034 63.254 154.952L63 162.116C52.536 161.772 34.046 163.56 23.904 178.752C13.868 193.782 20.228 213.068 28.82 225.196C28.066 225.892 23.074 230.472 21.364 232.102C20.8363 232.591 20.4253 233.192 20.1616 233.861C19.8979 234.531 19.7883 235.251 19.8407 235.968C19.8931 236.686 20.1064 237.382 20.4646 238.006C20.8228 238.63 21.3168 239.165 21.91 239.572C22.702 240.118 23.64 240.412 24.602 240.418C26.99 240.476 28.474 238.67 30.078 237.178L34.894 232.72C37.436 235.494 40.1765 238.08 43.094 240.456C33.844 241.75 9.05397 245.856 9.12197 255.116C9.22694 256.117 9.54245 257.084 10.0478 257.955C10.5531 258.825 11.2368 259.579 12.054 260.166C14.3781 261.881 16.9379 263.252 19.654 264.236C41.812 272.174 73.6 272.084 86.794 271.636C86.8122 272.892 87.3206 274.091 88.2106 274.977C89.1007 275.864 90.3019 276.367 91.558 276.38C92.5685 276.367 93.5513 276.047 94.3762 275.463C95.2011 274.879 95.8294 274.059 96.178 273.11C96.41 272.478 96.51 271.808 96.476 271.138C106.401 270.556 116.258 269.126 125.94 266.866C129.565 265.991 133.116 264.835 136.562 263.41C138.992 262.464 141.218 261.06 143.118 259.274C144.158 258.36 144.82 257.092 144.974 255.716C145.128 254.341 144.764 252.957 143.952 251.836L193.952 204.124C197.09 206.158 200.61 207.532 204.296 208.161C207.983 208.79 211.759 208.661 215.394 207.782C226.662 205.112 235.638 196.004 240.928 185.598C243.293 188.08 245.839 190.384 248.544 192.49C248.372 192.708 248.834 191.29 244.102 213.312C241.288 226.418 238.628 238.8 236.652 250.748C235.835 255.333 235.589 260.002 235.918 264.648C237.09 279.028 248.718 291.944 261.968 291.944C275.218 291.944 286.1 279.744 291.062 267.618C296.101 254.119 300.339 240.335 303.756 226.338C306.678 235.552 313.944 255.662 319.118 267.596C320.634 271.85 322.997 275.751 326.066 279.064ZM359.254 147.218C363.368 176.494 366.422 210.65 368.33 248.778C368.608 253.811 368.266 258.859 367.31 263.808C366.221 268.935 363.627 273.621 359.86 277.266C356.093 280.911 351.324 283.349 346.164 284.268C341.62 284.838 337.011 283.983 332.974 281.822C328.937 279.66 325.67 276.298 323.626 272.2C318.862 263.444 307.16 230.954 304.608 221.768C304.54 221.541 304.399 221.342 304.208 221.203C304.016 221.063 303.783 220.991 303.546 220.997C303.309 221.003 303.08 221.087 302.896 221.235C302.711 221.384 302.58 221.59 302.524 221.82C301.96 224.902 301.232 227.951 300.344 230.956C297.344 241.674 295.498 249.066 290.65 262.724C280.802 290.454 261.064 294.482 249.36 285.262C244.04 281.078 240.289 275.22 238.714 268.638C236.852 260.726 238.394 252.466 239.89 244.478C243.69 224.142 246.728 211.946 250.38 193.894C264.075 203.879 280.973 208.458 297.836 206.755C314.699 205.052 330.34 197.186 341.762 184.664C341.876 184.599 341.966 184.499 342.018 184.378C351.442 174.054 357.46 161.08 359.254 147.218ZM340.346 183.2C321.882 197.968 296.068 193.652 286.26 173.294C282.93 165.807 281.756 157.54 282.87 149.422C283.855 139.938 285.337 130.513 287.308 121.184C288.752 122.41 290.566 123.116 292.46 123.189C294.353 123.261 296.216 122.696 297.75 121.584C298.87 120.781 299.78 119.72 300.402 118.49C320.922 129.372 318.166 127.542 326.584 131.864C330.158 133.7 330.154 133.998 330.894 133.744C331.864 133.412 331.27 132.944 333.53 122.682C334.002 120.485 334.592 118.315 335.298 116.182C335.654 115.102 341.562 97.062 342.146 95.064C352.585 107.475 358.157 123.257 357.826 139.471C357.495 155.684 351.283 171.225 340.346 183.2ZM286.516 113.488C287.069 111.663 287.93 109.945 289.062 108.41C289.576 107.522 290.146 106.646 290.63 105.734C294.299 107.915 298.001 110.039 301.736 112.104L299.124 116.604C294.822 125.144 285.158 120.246 286.516 113.488ZM311.236 42.382C303.652 37.982 303.772 38.066 302.944 37.272C301.963 36.3268 301.262 35.1287 300.919 33.81C300.576 32.4914 300.604 31.1036 301 29.8C301.332 28.8237 301.784 27.8925 302.346 27.028C303.784 24.688 314.182 6.64798 314.256 6.52198C314.92 5.39915 315.859 4.46332 316.983 3.80219C318.108 3.14105 319.382 2.77625 320.686 2.74198C322.696 2.85452 324.632 3.54173 326.264 4.72198C326.264 4.72198 366.984 28.364 368.084 29.01C369.838 30.057 371.107 31.7554 371.614 33.7345C372.12 35.7137 371.823 37.8129 370.788 39.574C369.76 41.33 360.022 58.132 359.788 58.542C358.888 60.6256 357.436 62.4237 355.588 63.742C354.432 64.3994 353.124 64.7436 351.794 64.7405C350.463 64.7373 349.157 64.3869 348.004 63.724C344.378 61.636 322.094 48.672 311.236 42.382ZM319.648 49.686L330.73 56.12L324.33 67.06C320.888 64.54 317.28 62.2561 313.53 60.224C315.44 56.93 319.52 49.904 319.648 49.686ZM298.1 71.852C299.784 72.112 301.416 72.648 302.926 73.438C303.526 73.818 304.158 74.146 304.812 74.42C305.013 74.4915 305.232 74.4966 305.437 74.4345C305.641 74.3723 305.82 74.2462 305.947 74.0747C306.075 73.9032 306.144 73.6954 306.144 73.4818C306.145 73.2682 306.077 73.06 305.95 72.888C305.207 72.1022 304.395 71.3834 303.526 70.74C303.054 70.2695 302.638 69.746 302.286 69.18C301.785 68.2246 301.599 67.1354 301.754 66.0678C301.909 65.0003 302.398 64.0091 303.15 63.236C303.9 62.4613 304.876 61.9433 305.938 61.7558C307 61.5684 308.094 61.721 309.064 62.192C314.293 64.1552 319.317 66.6257 324.064 69.568C324.202 69.6673 324.367 69.7219 324.537 69.7244C324.707 69.7269 324.873 69.6772 325.014 69.582C325.544 69.348 325.494 69.146 328.852 63.402C331.696 65.0533 334.393 66.947 336.912 69.062C339.717 70.9848 341.676 73.9129 342.382 77.24C342.904 82.5852 342.29 87.9803 340.582 93.072C338.582 100.26 333.428 114.672 332.292 119.034C331.278 122.936 330.43 127.414 329.756 131.224C323.65 127.922 321.156 127.19 301.436 116.708C304.302 111.772 304.398 112.028 303.982 111.14C303.332 110.14 289.382 103.558 285.122 95.818C284.795 93.6407 285.276 91.4193 286.474 89.572C286.95 88.8066 287.614 88.1755 288.403 87.7387C289.191 87.3019 290.078 87.0738 290.98 87.076C291.514 87.076 292.05 87.11 292.58 87.178C295.556 87.896 297.754 89.412 298.55 89.314C298.738 89.2862 298.914 89.2068 299.06 89.0847C299.205 88.9625 299.314 88.8023 299.374 88.622C299.435 88.442 299.445 88.2488 299.404 88.0633C299.363 87.8778 299.271 87.7072 299.14 87.57C297.4 86.2557 295.803 84.7615 294.376 83.112C290.546 78.586 292.846 72.174 298.1 71.852ZM269.172 71.108C268.842 75.578 268.372 80.038 268.358 84.52C268.438 89.2471 268.164 93.9736 267.54 98.66C267.004 102.16 265.684 106.68 262.024 108.132C258.2 109.65 254.088 107.368 251.746 104.386C248.944 100.34 247.108 95.7052 246.38 90.838C245.464 86.2448 244.898 81.5888 244.686 76.91C252.54 73.8514 260.781 71.8987 269.172 71.108ZM189.754 160.414C191.83 163.488 195.126 165.488 197.308 168.488C199.04 170.87 200.39 174.754 197.908 177.144C195.734 179.238 193.108 177.054 191.372 175.528C189.068 173.512 186.728 171.538 184.458 169.484C184.28 169.32 184.049 169.226 183.807 169.216C183.565 169.207 183.328 169.284 183.138 169.434C182.947 169.582 182.814 169.792 182.763 170.028C182.712 170.264 182.745 170.51 182.858 170.724L186.546 178.56C187.546 180.688 188.702 183.24 187.86 185.612C187.5 186.469 186.867 187.183 186.059 187.643C185.252 188.104 184.315 188.285 183.394 188.158C181.532 187.876 179.799 187.04 178.42 185.758C176.893 184.392 175.518 182.864 174.32 181.202C173.574 180.144 171.826 181.114 172.556 182.234C173.8 184.144 175.002 186.084 176.27 187.98C177.226 189.38 177.872 190.968 178.164 192.638C178.315 193.311 178.286 194.011 178.079 194.669C177.873 195.327 177.496 195.918 176.988 196.384C175.152 197.734 173.002 196.758 171.312 195.708C168.959 194.196 166.778 192.432 164.808 190.446C164.695 190.338 164.558 190.258 164.408 190.212V190.2C164.411 190.133 164.4 190.065 164.376 190.002C164.352 189.939 164.315 189.882 164.268 189.834C161.2 186.678 156.988 181.82 155.836 176.116C155.137 171.516 155.781 166.813 157.69 162.57C159.6 158.328 162.694 154.727 166.6 152.2C169.625 150.314 172.995 149.046 176.513 148.47C180.032 147.895 183.629 148.022 187.098 148.846C186.708 149.31 186.446 149.866 186.338 150.464C186.572 154.025 187.751 157.46 189.754 160.414ZM134.636 260.51C135.402 260.04 135.036 260.336 142.348 253.346C142.756 254.045 142.906 254.865 142.772 255.664C142.638 256.462 142.228 257.189 141.614 257.716C139.933 259.3 137.964 260.546 135.814 261.388C126.282 265.286 113.414 267.77 96.494 268.988L96.79 261.052C111.578 261.276 124.306 256.238 131.844 247.184C132.422 247.398 133.114 247.66 133.656 247.866C132.744 249.632 130.39 254.178 129.714 255.504C129.349 256.195 129.214 256.985 129.327 257.758C129.441 258.531 129.797 259.249 130.345 259.806C130.893 260.363 131.604 260.732 132.376 260.858C133.147 260.985 133.939 260.863 134.636 260.51ZM65.436 154.11C65.3694 153.649 65.4138 153.18 65.5655 152.74C65.7173 152.3 65.972 151.903 66.3083 151.581C66.6447 151.26 67.0531 151.023 67.4993 150.892C67.9456 150.76 68.4169 150.737 68.874 150.824C69.4901 150.994 70.032 151.364 70.4135 151.877C70.7951 152.39 70.9944 153.015 70.98 153.654C70.92 155.794 70.64 162.784 70.64 162.784C68.8134 162.525 66.9773 162.337 65.136 162.222C65.2 160.422 65.44 154.102 65.44 154.102L65.436 154.11ZM98.268 171.726C98.4651 170.595 98.9157 169.524 99.586 168.592L103.926 160.592C104.308 159.517 104.996 158.577 105.906 157.888C106.278 157.689 106.69 157.577 107.112 157.561C107.534 157.545 107.953 157.625 108.339 157.796C108.725 157.967 109.067 158.224 109.338 158.547C109.61 158.87 109.804 159.251 109.906 159.66C110.042 160.66 109.784 161.674 109.186 162.486L104.606 170.92C104.16 172.109 103.444 173.178 102.516 174.044C101.112 173.249 99.6973 172.474 98.272 171.718L98.268 171.726ZM94.268 271.184C94.3376 271.737 94.2344 272.299 93.9727 272.792C93.7109 273.284 93.3033 273.684 92.8056 273.936C92.3079 274.188 91.7445 274.28 91.1925 274.199C90.6405 274.119 90.1269 273.87 89.722 273.486C88.606 272.388 88.922 271.216 89.008 268.944C89.054 267.626 89.14 265.182 89.31 260.592C91.08 260.792 92.91 260.93 94.646 260.992L94.268 271.184ZM55.698 261.36C55.5653 261.821 55.3149 262.239 54.9716 262.574C54.6282 262.909 54.2036 263.149 53.7396 263.27C53.2756 263.391 52.788 263.389 52.3249 263.264C51.8617 263.14 51.4389 262.897 51.098 262.56C50.7092 262.16 50.4551 261.648 50.3712 261.096C50.2873 260.544 50.3777 259.98 50.63 259.482C50.902 258.882 51.144 258.54 56.078 249.466C58.078 250.606 59.152 251.174 60.796 251.984L55.698 261.36ZM50.41 255.386C49.238 257.542 47.634 259.602 48.41 262.158C48.6552 262.921 49.0862 263.611 49.6643 264.166C50.2423 264.721 50.9492 265.124 51.7215 265.338C52.4937 265.552 53.3071 265.571 54.0885 265.393C54.8699 265.215 55.5948 264.846 56.198 264.318C57.1005 263.356 57.8208 262.238 58.324 261.018L62.724 252.922C70.4567 256.59 78.6934 259.084 87.162 260.322C87.162 260.322 86.842 268.764 86.798 269.504C75.718 269.866 64.626 269.59 53.578 268.678C44.5021 267.974 35.5028 266.498 26.678 264.264C23.5819 263.443 20.5558 262.379 17.628 261.08C15.645 260.222 13.8399 259.001 12.306 257.48C11.8485 257.042 11.5256 256.482 11.375 255.867C11.2244 255.251 11.2525 254.606 11.456 254.006C12.4883 252.096 14.1516 250.604 16.162 249.784C24.338 245.474 37.868 243.27 45.346 242.328C48.1889 244.51 51.1494 246.535 54.214 248.394L50.41 255.386ZM22.852 233.646C24.57 232.078 30.086 226.946 30.086 226.946C31.154 228.372 32.286 229.77 33.454 231.116L27.522 236.612C26.9724 237.26 26.2904 237.782 25.522 238.144C24.9398 238.352 24.3035 238.351 23.722 238.141C23.1405 237.931 22.6501 237.526 22.3347 236.994C22.0194 236.463 21.8987 235.838 21.9934 235.227C22.0882 234.616 22.3924 234.057 22.854 233.646H22.852ZM138.564 192.34C136.624 194.112 130.4 199.902 130.4 199.902C129.389 198.344 128.314 196.829 127.178 195.36L133.578 189.426C134.171 188.734 134.889 188.16 135.694 187.732C136.293 187.499 136.955 187.482 137.565 187.685C138.175 187.887 138.695 188.297 139.035 188.843C139.376 189.388 139.515 190.036 139.428 190.673C139.342 191.31 139.035 191.897 138.562 192.332L138.564 192.34ZM25.03 181.052C28.1949 175.829 32.8103 171.639 38.314 168.992C66.768 155.342 106.186 172.062 125.152 196.246C136.876 211.196 140.126 227.556 133.902 240.132C125.568 235.6 32.668 185.124 25.03 181.052ZM31.266 224.9C20.71 210.378 18.066 195.126 23.984 182.958C23.984 182.958 127.076 238.958 132.856 242.036C114.4 271.826 56.6 259.758 31.266 224.9ZM134.108 258.384C133.89 258.603 133.614 258.756 133.313 258.824C133.012 258.893 132.697 258.874 132.406 258.771C132.115 258.667 131.859 258.483 131.668 258.239C131.478 257.996 131.361 257.704 131.33 257.396C131.289 257.013 131.383 256.627 131.596 256.306C133.074 253.452 163.304 194.906 164.366 192.848C166.079 194.502 167.95 195.984 169.952 197.272C170.951 198.094 172.143 198.646 173.416 198.875C174.689 199.105 175.999 199.005 177.222 198.584C181.11 196.874 180.622 192.056 179.094 188.796C185.336 192.596 192.79 188.48 189.246 179.648C188.514 177.826 187.68 176.048 186.824 174.26C188.67 176.112 190.692 177.78 192.864 179.238C193.61 179.689 194.451 179.957 195.32 180.02C196.189 180.084 197.061 179.94 197.864 179.602C201.136 178.202 201.79 174.144 200.892 171.058C199.692 166.92 196.026 164.198 193.118 161.27C190.879 158.869 189.342 155.9 188.674 152.686C189.788 153.486 219.72 175.26 220.57 175.886C172.638 221.618 135.054 257.466 134.108 258.384ZM241.386 183.13C241.218 182.967 241.001 182.866 240.769 182.842C240.536 182.819 240.303 182.874 240.106 183C239.976 183.084 239.866 183.197 239.786 183.33C233.586 196.406 220.986 208.052 205.586 206.31C201.971 205.906 198.5 204.663 195.45 202.68C195.45 202.68 222.534 176.854 222.9 176.492C223.009 176.382 223.091 176.248 223.14 176.101C223.19 175.954 223.204 175.798 223.184 175.644C223.165 175.49 223.112 175.343 223.028 175.213C222.944 175.083 222.832 174.973 222.7 174.892L201.238 159.292C201.908 158.82 202.326 156.81 199.894 154.266C198.333 152.651 196.564 151.252 194.632 150.106C197.604 137.692 199.904 124.916 205.388 113.306C213.128 97.3884 226.33 84.7823 242.588 77.786C242.836 83.482 243.668 89.138 245.07 94.664C246.402 99.828 248.628 105.532 253.178 108.704C257.298 111.574 263.316 111.602 266.484 107.386C268.044 105.238 269.072 102.751 269.484 100.128C270 97.2 270.312 94.24 270.418 91.27C270.818 78.332 270.218 86.898 271.386 70.914C278.365 70.3081 285.384 70.3322 292.358 70.986C291.099 71.8599 290.115 73.0739 289.52 74.4862C288.926 75.8985 288.745 77.4509 289 78.962C289.637 81.352 290.988 83.491 292.872 85.094C292.672 85.068 292.46 85.054 292.252 85.04C290.616 84.6963 288.914 84.848 287.365 85.4757C285.815 86.1033 284.488 87.1785 283.552 88.564C279.9 94.078 284.352 99.318 289.268 103.764C289.2 103.948 285.448 110.388 284.954 111.624C284.459 112.843 284.261 114.162 284.375 115.473C284.49 116.784 284.913 118.049 285.612 119.164C283.724 128 282.386 136.952 281.212 145.904C280.527 150.644 280.34 155.443 280.654 160.222C282.678 186.27 308.608 201.848 333.094 190.04C319.825 200.837 302.922 206.139 285.863 204.854C268.805 203.568 252.887 195.794 241.386 183.13Z" fill="#333333"/>
</svg>
