<svg width="24" height="24" viewBox="0 0 24 24" fill="none" xmlns="http://www.w3.org/2000/svg">
<path fill-rule="evenodd" clip-rule="evenodd" d="M0 2.75598C0 1.24789 1.22189 0 2.69856 0H14.3923C15.869 0 17.0909 1.24789 17.0909 2.75598V7.34928C17.0909 7.85664 16.6882 8.26794 16.1914 8.26794C15.6946 8.26794 15.2919 7.85664 15.2919 7.34928V2.75598C15.2919 2.26261 14.8754 1.83732 14.3923 1.83732H2.69856C2.21547 1.83732 1.79904 2.26261 1.79904 2.75598V14.6986C1.79904 15.1919 2.21547 15.6172 2.69856 15.6172H7.19617C7.69296 15.6172 8.09569 16.0285 8.09569 16.5359C8.09569 17.0432 7.69296 17.4545 7.19617 17.4545H2.69856C1.22189 17.4545 0 16.2067 0 14.6986V2.75598Z" fill="#333333"/>
<path fill-rule="evenodd" clip-rule="evenodd" d="M6.18182 9.30145C6.18182 7.79336 7.42971 6.54547 8.9378 6.54547H20.8804C22.3886 6.54547 23.6364 7.79337 23.6364 9.30145V21.244C23.6364 22.7662 22.4025 24 20.8804 24H8.9378C7.42973 24 6.18182 22.7522 6.18182 21.244V9.30145ZM8.9378 8.38279C8.44443 8.38279 8.01914 8.80808 8.01914 9.30145V21.244C8.01914 21.7374 8.44442 22.1627 8.9378 22.1627H20.8804C21.3878 22.1627 21.799 21.7514 21.799 21.244V9.30145C21.799 8.80806 21.3738 8.38279 20.8804 8.38279H8.9378Z" fill="#333333"/>
</svg>
