<svg width="344" height="70" viewBox="0 0 344 70" fill="none" xmlns="http://www.w3.org/2000/svg">
<path d="M210.185 69.9112C210.665 69.8908 211.12 69.697 211.46 69.368C211.801 69.039 212.002 68.5986 212.024 68.1332V2.07685C211.955 1.63707 211.725 1.23612 211.375 0.947362C211.026 0.658606 210.582 0.5013 210.123 0.504167C209.664 0.503225 209.221 0.661228 208.872 0.949641C208.523 1.23805 208.292 1.63789 208.221 2.07685V68.1332C208.244 68.6197 208.462 69.0783 208.829 69.4106C209.196 69.743 209.683 69.9227 210.185 69.9112Z" fill="#D9D9D9"/>
<path d="M193.008 19.1621C193.517 19.3968 193.908 19.7294 194.182 20.1597C194.456 20.5509 194.593 21.0007 194.593 21.5093C194.593 21.8613 194.495 22.2329 194.299 22.6241L181.856 48.8526C181.27 50.144 180.369 50.7889 179.157 50.7889C178.492 50.7889 177.944 50.652 177.513 50.3781C177.082 50.0654 176.692 49.5567 176.339 48.8526L163.896 22.6241C163.74 22.3111 163.661 21.9591 163.661 21.5679C163.661 20.5117 164.209 19.7098 165.305 19.1621C165.657 18.9666 166.068 18.8688 166.537 18.8688C167.007 18.8688 167.457 19.0057 167.887 19.2795C168.318 19.5142 168.651 19.8663 168.886 20.3357L179.098 42.3399L189.193 20.3357C189.428 19.8663 189.761 19.5142 190.191 19.2795C190.661 19.0057 191.149 18.8688 191.658 18.8688C192.167 18.8688 192.617 18.9666 193.008 19.1621Z" fill="#D9D9D9"/>
<path d="M161.809 34.3009C161.809 35.0438 161.555 35.6701 161.046 36.1788C160.537 36.6479 159.892 36.8828 159.109 36.8828H136.806C137.236 39.6211 138.468 41.8312 140.503 43.513C142.577 45.1957 145.101 46.0366 148.074 46.0366C149.249 46.0366 150.462 45.8211 151.714 45.3909C153.005 44.9607 154.061 44.4325 154.883 43.8063C155.431 43.3761 156.077 43.1614 156.82 43.1614C157.564 43.1614 158.15 43.3567 158.581 43.748C159.285 44.3345 159.637 44.9996 159.637 45.7433C159.637 46.4473 159.325 47.0339 158.698 47.503C157.368 48.5594 155.705 49.4198 153.71 50.0849C151.753 50.75 149.875 51.083 148.074 51.083C144.866 51.083 141.99 50.3984 139.446 49.0293C136.904 47.6204 134.908 45.6842 133.46 43.2198C132.051 40.7553 131.347 37.9587 131.347 34.8291C131.347 31.6996 132.012 28.9026 133.343 26.4382C134.712 23.9346 136.591 21.9982 138.977 20.6291C141.404 19.2208 144.143 18.5167 147.194 18.5167C150.207 18.5167 152.809 19.1818 155.001 20.5118C157.192 21.8418 158.874 23.6999 160.048 26.0861C161.222 28.4723 161.809 31.2103 161.809 34.3009ZM147.194 23.563C144.338 23.563 142.01 24.3454 140.21 25.9101C138.449 27.4748 137.334 29.5676 136.865 32.1889H156.409C156.057 29.5676 155.079 27.4748 153.475 25.9101C151.87 24.3454 149.777 23.563 147.194 23.563Z" fill="#D9D9D9"/>
<path d="M122.526 18.3994C124.6 18.3994 126.224 18.7123 127.398 19.3382C128.571 19.9641 129.159 20.7465 129.159 21.6853C129.159 21.9592 129.139 22.1547 129.1 22.2721C128.748 23.5239 127.965 24.1498 126.752 24.1498C126.557 24.1498 126.263 24.1107 125.872 24.0324C124.306 23.7586 123.035 23.6217 122.057 23.6217C119.239 23.6217 116.97 24.2671 115.248 25.558C113.527 26.8489 112.666 28.5897 112.666 30.7801V47.9137C112.666 48.8527 112.411 49.5769 111.903 50.0849C111.433 50.5937 110.709 50.848 109.731 50.848C108.792 50.848 108.068 50.6131 107.559 50.144C107.051 49.6353 106.796 48.8924 106.796 47.9137V21.6853C106.796 20.7465 107.051 20.0228 107.559 19.5142C108.068 19.0057 108.792 18.7514 109.731 18.7514C111.687 18.7514 112.666 19.7294 112.666 21.6853V22.8002C113.84 21.431 115.287 20.3553 117.009 19.5729C118.731 18.7906 120.57 18.3994 122.526 18.3994Z" fill="#D9D9D9"/>
<path d="M81.7457 51.083C78.6152 51.083 75.8179 50.3984 73.3527 49.0293C70.8876 47.6204 68.9703 45.6842 67.6008 43.2198C66.2313 40.7553 65.5465 37.9587 65.5465 34.8291C65.5465 31.6607 66.2313 28.8439 67.6008 26.3795C68.9703 23.915 70.8876 21.9982 73.3527 20.6291C75.8179 19.2208 78.6152 18.5167 81.7457 18.5167C84.8372 18.5167 87.5957 19.2208 90.0219 20.6291C92.487 21.9982 94.4043 23.915 95.7738 26.3795C97.1822 28.8439 97.8865 31.6607 97.8865 34.8291C97.8865 37.9587 97.2017 40.7553 95.8322 43.2198C94.4627 45.6842 92.5453 47.6204 90.0802 49.0293C87.654 50.3984 84.8761 51.083 81.7457 51.083ZM81.7457 45.8017C83.7416 45.8017 85.5219 45.3326 87.0868 44.3936C88.6913 43.4547 89.9238 42.1634 90.7844 40.5204C91.6847 38.8385 92.1345 36.9412 92.1345 34.8291C92.1345 32.7163 91.6847 30.8197 90.7844 29.1373C89.9238 27.4552 88.6913 26.1448 87.0868 25.206C85.5219 24.2671 83.7416 23.7977 81.7457 23.7977C79.7505 23.7977 77.9499 24.2671 76.3462 25.206C74.7806 26.1448 73.548 27.4552 72.6485 29.1373C71.7482 30.8197 71.2985 32.7163 71.2985 34.8291C71.2985 36.9412 71.7482 38.8385 72.6485 40.5204C73.548 42.1634 74.7806 43.4547 76.3462 44.3936C77.9499 45.3326 79.7505 45.8017 81.7457 45.8017Z" fill="#D9D9D9"/>
<path d="M46.4955 51.083C43.404 51.083 40.6261 50.3782 38.161 48.9701C35.6958 47.5621 33.7591 45.6259 32.3499 43.1614C30.9804 40.6573 30.2956 37.8801 30.2956 34.8291C30.2956 31.6996 30.9609 28.9026 32.2915 26.4382C33.661 23.9346 35.5589 21.9982 37.9851 20.6291C40.4105 19.2208 43.1496 18.5167 46.2022 18.5167C50.8188 18.5167 54.6535 20.2771 57.7061 23.7977C58.0967 24.228 58.2928 24.7365 58.2928 25.3233C58.2928 26.1839 57.8625 26.9076 57.0011 27.4944C56.6105 27.7682 56.1599 27.9051 55.6518 27.9051C54.7515 27.9051 53.9882 27.553 53.3625 26.8489C52.3844 25.7927 51.3083 25.0299 50.1341 24.5604C48.9996 24.0519 47.6884 23.7977 46.2022 23.7977C43.1892 23.7977 40.7436 24.8148 38.8652 26.8489C36.9868 28.8439 36.0476 31.5043 36.0476 34.8291C36.0476 36.9412 36.4786 38.8385 37.3392 40.5204C38.2388 42.1634 39.4713 43.4547 41.0369 44.3936C42.6414 45.3326 44.4607 45.8017 46.4955 45.8017C49.156 45.8017 51.3083 45.1171 52.9517 43.748C53.6948 43.2003 54.4193 42.9265 55.1235 42.9265C55.6713 42.9265 56.1794 43.1023 56.6494 43.4547C57.3925 44.0801 57.7644 44.7849 57.7644 45.5667C57.7644 46.1541 57.5294 46.6815 57.0602 47.1514C54.2426 49.7722 50.7216 51.083 46.4955 51.083Z" fill="#D9D9D9"/>
<path fill-rule="evenodd" clip-rule="evenodd" d="M1.73041 14.5863C2.77233 13.5581 4.46166 13.5581 5.50357 14.5863L25.5125 34.3336C26.5544 35.362 26.5544 37.029 25.5125 38.0575L5.50357 57.8041C4.46166 58.8325 2.77233 58.8325 1.73041 57.8041C0.688495 56.7757 0.688495 55.1087 1.73041 54.081L19.8531 36.1951L1.73041 18.3099C0.688495 17.2816 0.688495 15.6146 1.73041 14.5863ZM27.6282 62.5246C27.6282 61.0706 28.8226 59.8921 30.2956 59.8921H56.9747C58.4485 59.8921 59.6429 61.0706 59.6429 62.5246C59.6429 63.9793 58.4485 65.1578 56.9747 65.1578H30.2956C28.8226 65.1578 27.6282 63.9793 27.6282 62.5246Z" fill="#D9D9D9"/>
<path d="M331.179 50.9999C330.443 50.9999 329.845 50.7853 329.385 50.3559C328.956 49.8959 328.741 49.3286 328.741 48.6539V21.0999H333.663V48.6539C333.663 49.3286 333.418 49.8959 332.927 50.3559C332.467 50.7853 331.884 50.9999 331.179 50.9999ZM320.737 23.2159C320.093 23.2159 319.541 23.0166 319.081 22.6179C318.621 22.1886 318.391 21.6366 318.391 20.9619C318.391 20.3179 318.621 19.7966 319.081 19.3979C319.541 18.9993 320.093 18.7999 320.737 18.7999H341.667C342.311 18.7999 342.848 19.0146 343.277 19.4439C343.737 19.8426 343.967 20.3639 343.967 21.0079C343.967 21.6826 343.737 22.2193 343.277 22.6179C342.848 23.0166 342.311 23.2159 341.667 23.2159H320.737Z" fill="#D9D9D9"/>
<path d="M303.673 51.46C301.465 51.46 299.502 51.1533 297.785 50.54C296.067 49.9266 294.427 48.9146 292.863 47.504C292.525 47.2586 292.265 46.9673 292.081 46.63C291.927 46.262 291.851 45.894 291.851 45.526C291.851 44.9433 292.065 44.422 292.495 43.962C292.924 43.502 293.461 43.272 294.105 43.272C294.595 43.272 295.055 43.4406 295.485 43.778C296.65 44.8513 297.861 45.664 299.119 46.216C300.407 46.768 301.909 47.044 303.627 47.044C304.853 47.044 305.973 46.8446 306.985 46.446C308.027 46.0473 308.855 45.5106 309.469 44.836C310.082 44.1613 310.389 43.3793 310.389 42.49C310.389 41.386 310.067 40.4813 309.423 39.776C308.809 39.04 307.905 38.442 306.709 37.982C305.543 37.4913 304.133 37.0773 302.477 36.74C300.943 36.464 299.563 36.0806 298.337 35.59C297.141 35.0993 296.113 34.486 295.255 33.75C294.396 32.9833 293.737 32.0786 293.277 31.036C292.817 29.9933 292.587 28.782 292.587 27.402C292.587 25.5313 293.077 23.9213 294.059 22.572C295.04 21.2226 296.374 20.18 298.061 19.444C299.747 18.708 301.649 18.34 303.765 18.34C305.697 18.34 307.506 18.6466 309.193 19.26C310.879 19.8426 312.244 20.64 313.287 21.652C314.023 22.296 314.391 22.986 314.391 23.722C314.391 24.274 314.161 24.7953 313.701 25.286C313.271 25.746 312.765 25.976 312.183 25.976C311.753 25.976 311.385 25.8533 311.079 25.608C310.588 25.0866 309.929 24.6266 309.101 24.228C308.273 23.7986 307.383 23.446 306.433 23.17C305.513 22.894 304.623 22.756 303.765 22.756C302.385 22.756 301.204 22.9553 300.223 23.354C299.241 23.722 298.49 24.2433 297.969 24.918C297.447 25.562 297.187 26.3286 297.187 27.218C297.187 28.2606 297.478 29.1193 298.061 29.794C298.674 30.4686 299.517 31.0206 300.591 31.45C301.664 31.8486 302.891 32.2166 304.271 32.554C305.957 32.922 307.46 33.336 308.779 33.796C310.128 34.256 311.263 34.854 312.183 35.59C313.103 36.2953 313.808 37.1846 314.299 38.258C314.789 39.3313 315.035 40.6653 315.035 42.26C315.035 44.1 314.513 45.71 313.471 47.09C312.428 48.47 311.048 49.5433 309.331 50.31C307.644 51.0766 305.758 51.46 303.673 51.46Z" fill="#D9D9D9"/>
<path d="M288.137 34.9C288.137 37.2306 287.753 39.408 286.987 41.432C286.22 43.4253 285.131 45.1733 283.721 46.676C282.341 48.1786 280.7 49.3593 278.799 50.218C276.897 51.046 274.812 51.46 272.543 51.46C270.304 51.46 268.234 51.046 266.333 50.218C264.431 49.3593 262.775 48.1786 261.365 46.676C259.985 45.1733 258.911 43.4253 258.145 41.432C257.409 39.408 257.041 37.2306 257.041 34.9C257.041 32.5693 257.409 30.4073 258.145 28.414C258.911 26.39 259.985 24.6266 261.365 23.124C262.775 21.6213 264.431 20.456 266.333 19.628C268.234 18.7693 270.304 18.34 272.543 18.34C274.812 18.34 276.897 18.7693 278.799 19.628C280.7 20.456 282.341 21.6213 283.721 23.124C285.131 24.6266 286.22 26.39 286.987 28.414C287.753 30.4073 288.137 32.5693 288.137 34.9ZM283.169 34.9C283.169 32.6306 282.709 30.5913 281.789 28.782C280.899 26.9726 279.657 25.5466 278.063 24.504C276.468 23.4613 274.628 22.94 272.543 22.94C270.488 22.94 268.663 23.4613 267.069 24.504C265.474 25.5466 264.232 26.9726 263.343 28.782C262.453 30.5606 262.009 32.6 262.009 34.9C262.009 37.1693 262.453 39.2086 263.343 41.018C264.232 42.8273 265.474 44.2533 267.069 45.296C268.663 46.3386 270.488 46.86 272.543 46.86C274.628 46.86 276.468 46.3386 278.063 45.296C279.657 44.2533 280.899 42.8273 281.789 41.018C282.709 39.2086 283.169 37.1693 283.169 34.9Z" fill="#D9D9D9"/>
<path d="M228.21 18.7999C228.823 18.7999 229.36 19.0299 229.82 19.4899C230.311 19.9193 230.556 20.4713 230.556 21.1459V48.6539C230.525 49.3286 230.265 49.8959 229.774 50.3559C229.314 50.7853 228.762 50.9999 228.118 50.9999C227.413 50.9999 226.83 50.7853 226.37 50.3559C225.941 49.8959 225.726 49.3286 225.726 48.6539V21.1459C225.726 20.4713 225.956 19.9193 226.416 19.4899C226.876 19.0299 227.474 18.7999 228.21 18.7999ZM248.956 18.7999C249.692 18.7999 250.275 19.0299 250.704 19.4899C251.133 19.9193 251.348 20.4713 251.348 21.1459V48.6539C251.348 49.3286 251.118 49.8959 250.658 50.3559C250.229 50.7853 249.646 50.9999 248.91 50.9999C248.266 50.9999 247.714 50.7853 247.254 50.3559C246.794 49.8959 246.564 49.3286 246.564 48.6539V21.1459C246.564 20.4713 246.794 19.9193 247.254 19.4899C247.745 19.0299 248.312 18.7999 248.956 18.7999ZM228.026 32.5079H249.002L248.956 36.9239H227.98L228.026 32.5079Z" fill="#D9D9D9"/>
</svg>
