<svg width="287" height="70" viewBox="0 0 287 70" fill="none" xmlns="http://www.w3.org/2000/svg">
<path d="M210.185 69.9112C210.665 69.8908 211.12 69.697 211.46 69.368C211.801 69.039 212.002 68.5986 212.024 68.1332V2.07685C211.955 1.63707 211.724 1.23612 211.375 0.947362C211.026 0.658606 210.582 0.5013 210.123 0.504167C209.664 0.503225 209.221 0.661228 208.872 0.949641C208.523 1.23805 208.292 1.63789 208.221 2.07685V68.1332C208.244 68.6197 208.462 69.0783 208.829 69.4106C209.196 69.743 209.683 69.9227 210.185 69.9112Z" fill="#333333"/>
<path d="M193.008 19.1621C193.516 19.3968 193.908 19.7294 194.182 20.1597C194.456 20.5509 194.593 21.0007 194.593 21.5093C194.593 21.8613 194.495 22.2329 194.299 22.6241L181.856 48.8526C181.269 50.144 180.369 50.7889 179.157 50.7889C178.492 50.7889 177.944 50.652 177.513 50.3781C177.082 50.0654 176.692 49.5567 176.339 48.8526L163.896 22.6241C163.74 22.3111 163.661 21.9591 163.661 21.5679C163.661 20.5117 164.209 19.7098 165.305 19.1621C165.657 18.9666 166.068 18.8688 166.537 18.8688C167.007 18.8688 167.457 19.0057 167.887 19.2795C168.317 19.5142 168.651 19.8663 168.886 20.3357L179.098 42.3399L189.193 20.3357C189.428 19.8663 189.76 19.5142 190.191 19.2795C190.661 19.0057 191.149 18.8688 191.658 18.8688C192.167 18.8688 192.617 18.9666 193.008 19.1621Z" fill="#333333"/>
<path d="M161.809 34.3009C161.809 35.0438 161.555 35.6701 161.046 36.1788C160.537 36.6479 159.892 36.8828 159.109 36.8828H136.805C137.236 39.6211 138.468 41.8312 140.503 43.513C142.577 45.1957 145.101 46.0366 148.074 46.0366C149.249 46.0366 150.462 45.8211 151.714 45.3909C153.005 44.9607 154.061 44.4325 154.883 43.8063C155.431 43.3761 156.077 43.1614 156.82 43.1614C157.564 43.1614 158.15 43.3567 158.581 43.748C159.285 44.3345 159.637 44.9996 159.637 45.7433C159.637 46.4473 159.325 47.0339 158.698 47.503C157.368 48.5594 155.705 49.4198 153.71 50.0849C151.753 50.75 149.875 51.083 148.074 51.083C144.866 51.083 141.99 50.3984 139.446 49.0293C136.904 47.6204 134.908 45.6842 133.46 43.2198C132.051 40.7553 131.347 37.9587 131.347 34.8291C131.347 31.6996 132.012 28.9026 133.343 26.4382C134.712 23.9346 136.591 21.9982 138.977 20.6291C141.403 19.2208 144.142 18.5167 147.194 18.5167C150.207 18.5167 152.809 19.1818 155.001 20.5118C157.192 21.8418 158.874 23.6999 160.048 26.0861C161.222 28.4723 161.809 31.2103 161.809 34.3009ZM147.194 23.563C144.338 23.563 142.01 24.3454 140.21 25.9101C138.449 27.4748 137.334 29.5676 136.865 32.1889H156.409C156.057 29.5676 155.079 27.4748 153.475 25.9101C151.87 24.3454 149.777 23.563 147.194 23.563Z" fill="#333333"/>
<path d="M122.526 18.3994C124.6 18.3994 126.224 18.7123 127.398 19.3382C128.571 19.9641 129.159 20.7465 129.159 21.6853C129.159 21.9592 129.139 22.1547 129.1 22.2721C128.748 23.5239 127.965 24.1498 126.752 24.1498C126.557 24.1498 126.263 24.1107 125.872 24.0324C124.306 23.7586 123.035 23.6217 122.057 23.6217C119.239 23.6217 116.97 24.2671 115.248 25.558C113.527 26.8489 112.666 28.5897 112.666 30.7801V47.9137C112.666 48.8527 112.411 49.5769 111.903 50.0849C111.433 50.5937 110.709 50.848 109.731 50.848C108.792 50.848 108.068 50.6131 107.559 50.144C107.051 49.6353 106.796 48.8924 106.796 47.9137V21.6853C106.796 20.7465 107.051 20.0228 107.559 19.5142C108.068 19.0057 108.792 18.7514 109.731 18.7514C111.687 18.7514 112.666 19.7294 112.666 21.6853V22.8002C113.84 21.431 115.287 20.3553 117.009 19.5729C118.731 18.7906 120.57 18.3994 122.526 18.3994Z" fill="#333333"/>
<path d="M81.7457 51.083C78.6152 51.083 75.8178 50.3984 73.3527 49.0293C70.8876 47.6204 68.9703 45.6842 67.6008 43.2198C66.2312 40.7553 65.5465 37.9587 65.5465 34.8291C65.5465 31.6607 66.2312 28.8439 67.6008 26.3795C68.9703 23.915 70.8876 21.9982 73.3527 20.6291C75.8178 19.2208 78.6152 18.5167 81.7457 18.5167C84.8372 18.5167 87.5956 19.2208 90.0219 20.6291C92.487 21.9982 94.4043 23.915 95.7738 26.3795C97.1822 28.8439 97.8864 31.6607 97.8864 34.8291C97.8864 37.9587 97.2017 40.7553 95.8322 43.2198C94.4627 45.6842 92.5453 47.6204 90.0802 49.0293C87.654 50.3984 84.8761 51.083 81.7457 51.083ZM81.7457 45.8017C83.7416 45.8017 85.5219 45.3326 87.0867 44.3936C88.6913 43.4547 89.9238 42.1634 90.7844 40.5204C91.6847 38.8385 92.1345 36.9412 92.1345 34.8291C92.1345 32.7163 91.6847 30.8197 90.7844 29.1373C89.9238 27.4552 88.6913 26.1448 87.0867 25.206C85.5219 24.2671 83.7416 23.7977 81.7457 23.7977C79.7505 23.7977 77.9499 24.2671 76.3462 25.206C74.7806 26.1448 73.548 27.4552 72.6485 29.1373C71.7482 30.8197 71.2984 32.7163 71.2984 34.8291C71.2984 36.9412 71.7482 38.8385 72.6485 40.5204C73.548 42.1634 74.7806 43.4547 76.3462 44.3936C77.9499 45.3326 79.7505 45.8017 81.7457 45.8017Z" fill="#333333"/>
<path d="M46.4955 51.083C43.404 51.083 40.626 50.3782 38.1609 48.9701C35.6958 47.5621 33.759 45.6259 32.3498 43.1614C30.9803 40.6573 30.2956 37.8801 30.2956 34.8291C30.2956 31.6996 30.9609 28.9026 32.2915 26.4382C33.661 23.9346 35.5589 21.9982 37.9851 20.6291C40.4105 19.2208 43.1495 18.5167 46.2021 18.5167C50.8188 18.5167 54.6534 20.2771 57.706 23.7977C58.0967 24.228 58.2928 24.7365 58.2928 25.3233C58.2928 26.1839 57.8624 26.9076 57.0011 27.4944C56.6104 27.7682 56.1599 27.9051 55.6518 27.9051C54.7515 27.9051 53.9881 27.553 53.3625 26.8489C52.3844 25.7927 51.3082 25.0299 50.134 24.5604C48.9995 24.0519 47.6884 23.7977 46.2021 23.7977C43.1892 23.7977 40.7435 24.8148 38.8651 26.8489C36.9867 28.8439 36.0475 31.5043 36.0475 34.8291C36.0475 36.9412 36.4786 38.8385 37.3392 40.5204C38.2387 42.1634 39.4713 43.4547 41.0369 44.3936C42.6414 45.3326 44.4607 45.8017 46.4955 45.8017C49.1559 45.8017 51.3082 45.1171 52.9517 43.748C53.6948 43.2003 54.4192 42.9265 55.1234 42.9265C55.6712 42.9265 56.1794 43.1023 56.6493 43.4547C57.3925 44.0801 57.7644 44.7849 57.7644 45.5667C57.7644 46.1541 57.5294 46.6815 57.0602 47.1514C54.2426 49.7722 50.7215 51.083 46.4955 51.083Z" fill="#333333"/>
<path fill-rule="evenodd" clip-rule="evenodd" d="M1.73037 14.5863C2.77229 13.5581 4.46161 13.5581 5.50353 14.5863L25.5124 34.3336C26.5543 35.362 26.5543 37.029 25.5124 38.0575L5.50353 57.8041C4.46161 58.8325 2.77229 58.8325 1.73037 57.8041C0.688449 56.7757 0.688449 55.1087 1.73037 54.081L19.8531 36.1951L1.73037 18.3099C0.688449 17.2816 0.688449 15.6146 1.73037 14.5863ZM27.6282 62.5246C27.6282 61.0706 28.8226 59.8921 30.2956 59.8921H56.9746C58.4484 59.8921 59.6428 61.0706 59.6428 62.5246C59.6428 63.9793 58.4484 65.1578 56.9746 65.1578H30.2956C28.8226 65.1578 27.6282 63.9793 27.6282 62.5246Z" fill="#AEFFDE"/>
<path d="M249.751 20.6684C250.421 21.0031 250.801 21.5203 250.892 22.2201C251.014 22.9199 250.847 23.5588 250.39 24.1369C250.056 24.5933 249.615 24.8519 249.067 24.9128C248.55 24.9736 248.032 24.8671 247.515 24.5933C246.633 24.1369 245.705 23.7718 244.731 23.498C243.758 23.2242 242.723 23.0872 241.628 23.0872C239.894 23.0872 238.327 23.3763 236.927 23.9544C235.558 24.502 234.371 25.3083 233.367 26.3732C232.363 27.4076 231.588 28.6399 231.04 30.0698C230.523 31.4998 230.264 33.0819 230.264 34.8162C230.264 36.733 230.553 38.4368 231.131 39.9276C231.709 41.388 232.5 42.6355 233.504 43.6699C234.539 44.674 235.741 45.4346 237.11 45.9518C238.509 46.4386 240.015 46.682 241.628 46.682C242.662 46.682 243.666 46.5603 244.64 46.3169C245.644 46.0735 246.587 45.7084 247.47 45.2216C248.017 44.9478 248.55 44.8565 249.067 44.9478C249.615 45.0086 250.056 45.2673 250.39 45.7236C250.908 46.3626 251.09 47.0167 250.938 47.6861C250.816 48.325 250.436 48.8118 249.797 49.1465C249.036 49.5724 248.2 49.9375 247.287 50.2418C246.374 50.546 245.446 50.7894 244.503 50.972C243.56 51.1545 242.602 51.2458 241.628 51.2458C239.437 51.2458 237.368 50.8807 235.421 50.1505C233.474 49.4203 231.74 48.3554 230.218 46.9559C228.697 45.5563 227.495 43.8373 226.613 41.7988C225.761 39.7603 225.335 37.4328 225.335 34.8162C225.335 32.4734 225.731 30.3132 226.522 28.3356C227.343 26.3275 228.484 24.6085 229.945 23.1785C231.435 21.7181 233.17 20.5924 235.147 19.8013C237.125 18.9798 239.285 18.5691 241.628 18.5691C243.088 18.5691 244.503 18.7516 245.872 19.1167C247.272 19.4818 248.565 19.9991 249.751 20.6684Z" fill="#333333"/>
<path d="M273.745 46.3169C274.384 46.3169 274.917 46.5299 275.343 46.9559C275.799 47.3818 276.027 47.9143 276.027 48.5532C276.027 49.1921 275.799 49.7246 275.343 50.1505C274.917 50.5765 274.384 50.7894 273.745 50.7894H258.411C257.742 50.7894 257.179 50.5765 256.722 50.1505C256.296 49.6941 256.083 49.1313 256.083 48.4619V21.1705C256.083 20.5011 256.312 19.9534 256.768 19.5275C257.224 19.0711 257.818 18.8429 258.548 18.8429C259.156 18.8429 259.689 19.0711 260.145 19.5275C260.632 19.9534 260.875 20.5011 260.875 21.1705V47.0928L259.917 46.3169H273.745Z" fill="#333333"/>
<path d="M286.056 48.4619C286.026 49.1313 285.767 49.6941 285.281 50.1505C284.824 50.5765 284.277 50.7894 283.638 50.7894C282.938 50.7894 282.36 50.5765 281.903 50.1505C281.477 49.6941 281.264 49.1313 281.264 48.4619V21.1705C281.264 20.5011 281.493 19.9534 281.949 19.5275C282.405 19.0711 282.999 18.8429 283.729 18.8429C284.337 18.8429 284.87 19.0711 285.326 19.5275C285.813 19.9534 286.056 20.5011 286.056 21.1705V48.4619Z" fill="#333333"/>
</svg>
