<svg width="120" height="32" viewBox="0 0 120 32" fill="none" xmlns="http://www.w3.org/2000/svg">
<path d="M119.018 3.31344C119.333 3.45888 119.576 3.66497 119.745 3.9316C119.915 4.17404 120 4.45277 120 4.76795C120 4.98609 119.94 5.21637 119.818 5.45881L112.107 21.7125C111.744 22.5127 111.186 22.9124 110.435 22.9124C110.022 22.9124 109.683 22.8275 109.416 22.6578C109.149 22.464 108.907 22.1488 108.688 21.7125L100.978 5.45881C100.881 5.26487 100.832 5.04669 100.832 4.8043C100.832 4.14979 101.171 3.65282 101.85 3.31344C102.069 3.19225 102.323 3.13165 102.614 3.13165C102.905 3.13165 103.184 3.2165 103.451 3.38619C103.717 3.53163 103.924 3.74982 104.069 4.0407L110.398 17.6766L116.654 4.0407C116.8 3.74982 117.006 3.53163 117.272 3.38619C117.563 3.2165 117.866 3.13165 118.182 3.13165C118.497 3.13165 118.776 3.19225 119.018 3.31344Z" fill="#333333"/>
<path d="M99.6843 12.6948C99.6843 13.1552 99.5266 13.5433 99.2112 13.8586C98.8959 14.1493 98.4961 14.2948 98.011 14.2948H84.1896C84.4563 15.9917 85.2201 17.3613 86.481 18.4035C87.7661 19.4463 89.3304 19.9674 91.1729 19.9674C91.9005 19.9674 92.6523 19.8338 93.4282 19.5673C94.2281 19.3007 94.883 18.9733 95.3922 18.5853C95.7316 18.3187 96.1319 18.1856 96.5924 18.1856C97.0534 18.1856 97.417 18.3066 97.6836 18.5491C98.12 18.9126 98.3384 19.3248 98.3384 19.7856C98.3384 20.2219 98.1446 20.5854 97.7564 20.8761C96.9319 21.5307 95.9014 22.0639 94.665 22.4761C93.4523 22.8883 92.2887 23.0946 91.1729 23.0946C89.1848 23.0946 87.4025 22.6704 85.8262 21.8219C84.2504 20.9489 83.0135 19.749 82.1166 18.2218C81.2433 16.6946 80.8069 14.9615 80.8069 13.0222C80.8069 11.0828 81.2192 9.34955 82.0438 7.82234C82.8925 6.27089 84.0565 5.07092 85.5354 4.22247C87.039 3.34978 88.7363 2.91345 90.6275 2.91345C92.4946 2.91345 94.1071 3.32557 95.465 4.14977C96.8229 4.97397 97.8654 6.12545 98.593 7.60416C99.3202 9.08287 99.6843 10.7796 99.6843 12.6948ZM90.6275 6.04061C88.8573 6.04061 87.4146 6.52542 86.2992 7.49506C85.208 8.4647 84.517 9.76162 84.2263 11.386H96.3378C96.1198 9.76162 95.5137 8.4647 94.5194 7.49506C93.5251 6.52542 92.228 6.04061 90.6275 6.04061Z" fill="#333333"/>
<path d="M75.3407 2.84079C76.6258 2.84079 77.6321 3.03468 78.3598 3.42256C79.0869 3.81043 79.451 4.29525 79.451 4.87706C79.451 5.04675 79.439 5.16795 79.4144 5.24064C79.1964 6.01639 78.7113 6.40427 77.9595 6.40427C77.8385 6.40427 77.6567 6.38002 77.4142 6.33152C76.444 6.16183 75.6561 6.07699 75.0499 6.07699C73.3039 6.07699 71.8978 6.47696 70.8306 7.27691C69.764 8.07691 69.2302 9.15565 69.2302 10.513V21.1307C69.2302 21.7125 69.0725 22.1613 68.7576 22.4761C68.4664 22.7914 68.0179 22.949 67.4118 22.949C66.8298 22.949 66.3813 22.8034 66.066 22.5128C65.7506 22.1975 65.5929 21.7371 65.5929 21.1307V4.87706C65.5929 4.29525 65.7506 3.84678 66.066 3.53165C66.3813 3.21652 66.8298 3.05893 67.4118 3.05893C68.6241 3.05893 69.2302 3.66499 69.2302 4.87706V5.56792C69.9579 4.71948 70.8548 4.05282 71.9219 3.568C72.989 3.08318 74.1284 2.84079 75.3407 2.84079Z" fill="#333333"/>
<path d="M50.0693 23.0946C48.1294 23.0946 46.3959 22.6704 44.8683 21.8219C43.3406 20.9489 42.1525 19.749 41.3038 18.2218C40.4551 16.6946 40.0308 14.9615 40.0308 13.0222C40.0308 11.0587 40.4551 9.31315 41.3038 7.78595C42.1525 6.25874 43.3406 5.07092 44.8683 4.22247C46.3959 3.34978 48.1294 2.91345 50.0693 2.91345C51.9851 2.91345 53.6945 3.34978 55.198 4.22247C56.7257 5.07092 57.9138 6.25874 58.7625 7.78595C59.6353 9.31315 60.0717 11.0587 60.0717 13.0222C60.0717 14.9615 59.6473 16.6946 58.7987 18.2218C57.95 19.749 56.7618 20.9489 55.2342 21.8219C53.7307 22.6704 52.0092 23.0946 50.0693 23.0946ZM50.0693 19.8218C51.3062 19.8218 52.4094 19.5311 53.3792 18.9492C54.3735 18.3674 55.1373 17.5671 55.6706 16.549C56.2285 15.5068 56.5072 14.331 56.5072 13.0222C56.5072 11.7129 56.2285 10.5376 55.6706 9.49499C55.1373 8.4526 54.3735 7.64051 53.3792 7.05874C52.4094 6.47693 51.3062 6.18605 50.0693 6.18605C48.8329 6.18605 47.7171 6.47693 46.7233 7.05874C45.7531 7.64051 44.9893 8.4526 44.4319 9.49499C43.8739 10.5376 43.5952 11.7129 43.5952 13.0222C43.5952 14.331 43.8739 15.5068 44.4319 16.549C44.9893 17.5671 45.7531 18.3674 46.7233 18.9492C47.7171 19.5311 48.8329 19.8218 50.0693 19.8218Z" fill="#333333"/>
<path d="M28.225 23.0946C26.3092 23.0946 24.5877 22.6578 23.0601 21.7853C21.5325 20.9127 20.3323 19.7128 19.459 18.1856C18.6103 16.6339 18.186 14.9129 18.186 13.0222C18.186 11.0828 18.5983 9.34955 19.4228 7.82234C20.2715 6.27089 21.4476 5.07092 22.9511 4.22247C24.4541 3.34978 26.1515 2.91345 28.0432 2.91345C30.9041 2.91345 33.2804 4.00433 35.1721 6.18605C35.4142 6.45268 35.5357 6.76781 35.5357 7.13144C35.5357 7.66476 35.269 8.11322 34.7352 8.47685C34.4932 8.64654 34.214 8.73139 33.8991 8.73139C33.3412 8.73139 32.8681 8.5132 32.4804 8.07688C31.8743 7.42232 31.2074 6.94965 30.4798 6.65872C29.7767 6.34359 28.9642 6.18605 28.0432 6.18605C26.1761 6.18605 24.6605 6.81631 23.4965 8.07688C22.3324 9.31315 21.7504 10.9618 21.7504 13.0222C21.7504 14.331 22.0176 15.5068 22.5509 16.549C23.1083 17.5671 23.8721 18.3674 24.8423 18.9492C25.8366 19.5311 26.964 19.8218 28.225 19.8218C29.8736 19.8218 31.2074 19.3976 32.2258 18.5491C32.6863 18.2097 33.1353 18.0401 33.5717 18.0401C33.9111 18.0401 34.226 18.149 34.5173 18.3674C34.9778 18.755 35.2083 19.1917 35.2083 19.6762C35.2083 20.0402 35.0626 20.367 34.7719 20.6582C33.0258 22.2823 30.8438 23.0946 28.225 23.0946Z" fill="#333333"/>
<path fill-rule="evenodd" clip-rule="evenodd" d="M0.484254 0.477866C1.12993 -0.159289 2.17679 -0.159289 2.82246 0.477866L15.2219 12.7151C15.8675 13.3524 15.8675 14.3855 15.2219 15.0228L2.82246 27.2597C2.17679 27.897 1.12993 27.897 0.484254 27.2597C-0.161418 26.6224 -0.161418 25.5893 0.484254 24.9525L11.7148 13.8687L0.484254 2.78535C-0.161418 2.14815 -0.161418 1.11507 0.484254 0.477866ZM16.533 30.1849C16.533 29.2839 17.2732 28.5536 18.186 28.5536H34.7188C35.6321 28.5536 36.3723 29.2839 36.3723 30.1849C36.3723 31.0864 35.6321 31.8167 34.7188 31.8167H18.186C17.2732 31.8167 16.533 31.0864 16.533 30.1849Z" fill="#AEFFDE"/>
</svg>
