<svg width="34" height="34" viewBox="0 0 34 34" fill="none" xmlns="http://www.w3.org/2000/svg">
<path fill-rule="evenodd" clip-rule="evenodd" d="M12 10.3333C12 9.59695 12.6512 9 13.4545 9H18C19.5913 9 21.1174 9.57946 22.2426 10.6109C23.3679 11.6424 24 13.0413 24 14.5C24 15.9587 23.3679 17.3576 22.2426 18.3891C21.1174 19.4205 19.5913 20 18 20H14.9091V23.6667C14.9091 24.403 14.2579 25 13.4545 25C12.6512 25 12 24.403 12 23.6667V10.3333ZM14.9091 17.3333H18C18.8198 17.3333 19.6059 17.0348 20.1856 16.5035C20.7653 15.9721 21.0909 15.2514 21.0909 14.5C21.0909 13.7486 20.7653 13.0279 20.1856 12.4965C19.6059 11.9652 18.8198 11.6667 18 11.6667H14.9091V17.3333Z" fill="#333333"/>
<path fill-rule="evenodd" clip-rule="evenodd" d="M4.97918 4.97918C8.1673 1.79107 12.4913 0 17 0C21.5087 0 25.8327 1.79107 29.0208 4.97918C32.2089 8.1673 34 12.4913 34 17C34 21.5087 32.2089 25.8327 29.0208 29.0208C25.8327 32.2089 21.5087 34 17 34C12.4913 34 8.1673 32.2089 4.97918 29.0208C1.79107 25.8327 0 21.5087 0 17C0 12.4913 1.79107 8.1673 4.97918 4.97918ZM17 2.77551C13.2274 2.77551 9.60938 4.27416 6.94177 6.94177C4.27416 9.60938 2.77551 13.2274 2.77551 17C2.77551 20.7726 4.27416 24.3906 6.94177 27.0582C9.60938 29.7258 13.2274 31.2245 17 31.2245C20.7726 31.2245 24.3906 29.7258 27.0582 27.0582C29.7258 24.3906 31.2245 20.7726 31.2245 17C31.2245 13.2274 29.7258 9.60938 27.0582 6.94177C24.3906 4.27416 20.7726 2.77551 17 2.77551Z" fill="#333333"/>
</svg>
