<svg width="25" height="25" viewBox="0 0 25 25" fill="none" xmlns="http://www.w3.org/2000/svg">
<path d="M1.50958 23.787L23.8046 1.48298C23.958 1.31447 24.0406 1.09335 24.0353 0.865542C24.0299 0.637731 23.937 0.420729 23.7759 0.259598C23.6148 0.0984673 23.3978 0.00558758 23.17 0.000243986C22.9422 -0.00509961 22.721 0.0775043 22.5525 0.230903L0.257507 22.5282C0.134507 22.6525 0.0508287 22.8103 0.0169117 22.9819C-0.0170053 23.1535 0.000333011 23.3312 0.0667717 23.493C0.122113 23.6278 0.209974 23.7467 0.3225 23.8392C0.435026 23.9317 0.568717 23.9949 0.711622 24.0231C0.854527 24.0513 1.00219 24.0437 1.14144 24.001C1.28068 23.9582 1.40716 23.8816 1.50958 23.778V23.787Z" fill="#E3F1FF"/>
</svg>
