<svg width="24" height="24" viewBox="0 0 24 24" fill="none" xmlns="http://www.w3.org/2000/svg">
<g clip-path="url(#clip0_39_135)">
<path fill-rule="evenodd" clip-rule="evenodd" d="M7.03466 5.82246C7.3694 6.1572 7.3694 6.69991 7.03466 7.03465L2.06933 12L7.08823 17.0188C7.42297 17.3535 7.42297 17.8962 7.08824 18.231C6.75351 18.5657 6.21079 18.5657 5.87606 18.231L0.251056 12.6061C0.0903084 12.4453 8.6853e-07 12.2273 0 12C-8.1743e-07 11.7727 0.0903051 11.5546 0.251051 11.3939L5.82248 5.82246C6.15721 5.48773 6.69993 5.48773 7.03466 5.82246Z" fill="#333333"/>
<path fill-rule="evenodd" clip-rule="evenodd" d="M16.911 5.76888C17.2457 5.43414 17.7884 5.43414 18.1232 5.76887L23.7483 11.3939C23.909 11.5546 23.9993 11.7726 23.9993 12C23.9993 12.2273 23.909 12.4453 23.7483 12.6061L18.1772 18.1771C17.8424 18.5119 17.2997 18.5119 16.965 18.1771C16.6303 17.8424 16.6303 17.2997 16.965 16.965L21.93 12L16.911 6.98106C16.5763 6.64633 16.5763 6.10362 16.911 5.76888Z" fill="#333333"/>
<path fill-rule="evenodd" clip-rule="evenodd" d="M0.251051 0.251051C0.585786 -0.0836838 1.1285 -0.0836838 1.46323 0.251051L23.7489 22.5368C24.0837 22.8715 24.0837 23.4142 23.7489 23.7489C23.4142 24.0837 22.8715 24.0837 22.5368 23.7489L0.251051 1.46323C-0.0836838 1.1285 -0.0836838 0.585786 0.251051 0.251051Z" fill="#333333"/>
</g>
<defs>
<clipPath id="clip0_39_135">
<rect width="24" height="24" fill="white"/>
</clipPath>
</defs>
</svg>
