<svg width="38" height="37" viewBox="0 0 38 37" fill="none" xmlns="http://www.w3.org/2000/svg">
<path fill-rule="evenodd" clip-rule="evenodd" d="M23.0657 5.87239C24.9927 8.20073 26.4874 11.4012 28.1495 14.9796L28.1818 15.0492C30.122 19.2264 32.2685 23.8477 35.5651 27.5664C35.7548 27.7803 35.8179 28.116 35.7096 28.4362C35.6051 28.7453 35.4074 28.8756 35.2072 28.8892C31.8488 29.1169 26.9484 29.3814 22.3224 29.3814C19.9586 29.3814 17.312 29.3123 14.7451 29.2139C8.53218 28.9762 3.8222 23.8512 4.85224 17.9501C5.17777 16.0851 5.60707 14.1765 6.17174 12.358C6.31265 11.9042 6.15169 11.4109 5.77026 11.1275C4.72986 10.3547 3.71112 9.51491 3.01281 8.7561C2.66092 8.37369 2.43399 8.05817 2.31673 7.82123C2.28682 7.76075 2.26839 7.71459 2.25708 7.68108C2.30316 7.64401 2.38819 7.58612 2.53754 7.51539C2.86685 7.35942 3.34959 7.21822 3.96582 7.10338C5.18991 6.87524 6.71143 6.79126 8.03994 6.77182C8.40342 6.7665 8.7417 6.58498 8.94708 6.28501C10.6677 3.77222 12.874 2.23859 15.7933 2.23857C18.9649 2.23857 21.1906 3.60668 23.0657 5.87239ZM24.7904 4.44514C22.59 1.78638 19.7743 -1.91375e-05 15.7933 1.53764e-10C12.1342 1.53764e-10 9.41391 1.87453 7.43791 4.54546C6.19245 4.57994 4.77703 4.67506 3.5557 4.90268C2.85393 5.03347 2.15789 5.2182 1.57927 5.49229C1.03189 5.75155 0.380521 6.18986 0.113551 6.94314C-0.134798 7.64386 0.0668935 8.32206 0.310363 8.81405C0.561927 9.32244 0.947359 9.81751 1.36557 10.272C2.04532 11.0106 2.92753 11.765 3.80815 12.4486C3.31955 14.1439 2.94091 15.8813 2.64701 17.5652C1.34565 25.0207 7.32379 31.1702 14.6593 31.4509C17.2418 31.5499 19.9193 31.6199 22.3224 31.6199C27.0215 31.6199 31.9789 31.3518 35.3586 31.1227C36.6435 31.0356 37.4994 30.1318 37.8302 29.1535C38.1575 28.1862 38.0379 26.9811 37.2402 26.0815C34.1794 22.6289 32.1538 18.2869 30.1798 14.0367L30.1379 13.9466C28.5257 10.4754 26.9204 7.01902 24.7904 4.44514Z" fill="#333333"/>
<path fill-rule="evenodd" clip-rule="evenodd" d="M18.2416 12.6504C17.6235 12.6504 17.1224 13.1515 17.1224 13.7697C17.1224 14.2195 17.1278 14.6564 17.1376 15.0798C17.274 20.9234 22.0037 25.2039 27.7389 25.3482C29.8109 25.4003 32.4546 25.3514 34.3576 25.0797C34.9696 24.9922 35.3949 24.4252 35.3074 23.8134C35.2199 23.2013 34.6531 22.7761 34.0411 22.8636C32.3227 23.1089 29.8252 23.1613 27.7951 23.1102C23.1439 22.9933 19.4815 19.5704 19.3755 15.0275C19.3661 14.6213 19.361 14.2018 19.361 13.7697C19.361 13.1515 18.8598 12.6504 18.2416 12.6504Z" fill="#333333"/>
<path fill-rule="evenodd" clip-rule="evenodd" d="M13.3448 8.16138C12.7266 8.16138 12.2255 8.6625 12.2255 9.28066V10.0968C12.2255 10.715 12.7266 11.2161 13.3448 11.2161C13.9629 11.2161 14.4641 10.715 14.4641 10.0968V9.28066C14.4641 8.6625 13.9629 8.16138 13.3448 8.16138Z" fill="#333333"/>
<path fill-rule="evenodd" clip-rule="evenodd" d="M21.8602 29.4386C21.2737 29.2432 20.6398 29.5601 20.4444 30.1465L18.8122 35.0434C18.6166 35.6298 18.9335 36.2638 19.5201 36.4592C20.1065 36.6546 20.7403 36.3377 20.9359 35.7513L22.5681 30.8544C22.7635 30.268 22.4466 29.6341 21.8602 29.4386Z" fill="#333333"/>
<path fill-rule="evenodd" clip-rule="evenodd" d="M11.9293 28.8544C11.3568 28.6213 10.7036 28.8963 10.4704 29.4687L8.2274 34.9754C7.99421 35.5478 8.26925 36.201 8.84176 36.4343C9.41424 36.6674 10.0674 36.3924 10.3006 35.8198L12.5436 30.3133C12.7768 29.7407 12.5018 29.0877 11.9293 28.8544Z" fill="#333333"/>
</svg>
