<svg width="24" height="24" viewBox="0 0 24 24" fill="none" xmlns="http://www.w3.org/2000/svg">
<path fill-rule="evenodd" clip-rule="evenodd" d="M2.14286 12C2.14286 6.55605 6.55605 2.14286 12 2.14286C17.4439 2.14286 21.8571 6.55605 21.8571 12C21.8571 17.4439 17.4439 21.8571 12 21.8571C6.55605 21.8571 2.14286 17.4439 2.14286 12ZM12 0C5.37259 0 0 5.37259 0 12C0 18.6274 5.37259 24 12 24C18.6274 24 24 18.6274 24 12C24 5.37259 18.6274 0 12 0ZM18.0045 8.94603C18.4481 8.39155 18.3583 7.58247 17.8037 7.13889C17.2493 6.6953 16.4402 6.78519 15.9966 7.33968L9.91791 14.938L7.48627 13.1143C6.91821 12.6882 6.11232 12.8034 5.68627 13.3714C5.26022 13.9395 5.37535 14.7454 5.94341 15.1714L9.37198 17.7429C9.92755 18.1596 10.7136 18.0597 11.1474 17.5174L18.0045 8.94603Z" fill="#AEFFD3"/>
</svg>
