<svg width="59" height="52" viewBox="0 0 59 52" fill="none" xmlns="http://www.w3.org/2000/svg">
<path fill-rule="evenodd" clip-rule="evenodd" d="M0.781439 0.771131C1.82336 -0.257044 3.51268 -0.257044 4.5546 0.771131L24.5635 20.5184C25.6054 21.5468 25.6054 23.2139 24.5635 24.2423L4.5546 43.989C3.51268 45.0174 1.82336 45.0174 0.781439 43.989C-0.26048 42.9605 -0.26048 41.2935 0.781439 40.2658L18.9041 22.3799L0.781439 4.49472C-0.26048 3.46646 -0.26048 1.79938 0.781439 0.771131ZM26.6792 48.7094C26.6792 47.2554 27.8737 46.0769 29.3467 46.0769H56.0257C57.4995 46.0769 58.6939 47.2554 58.6939 48.7094C58.6939 50.1641 57.4995 51.3426 56.0257 51.3426H29.3467C27.8737 51.3426 26.6792 50.1641 26.6792 48.7094Z" fill="#AEFFDE"/>
</svg>
