<svg width="20" height="25" viewBox="0 0 20 25" fill="none" xmlns="http://www.w3.org/2000/svg">
<path fill-rule="evenodd" clip-rule="evenodd" d="M1 2.24695C1.55228 2.24695 2 2.69466 2 3.24695V21.5359C2.00697 21.7964 2.116 22.0439 2.30377 22.2249C2.49342 22.4077 2.74789 22.5078 3.01127 22.5031L3.029 22.5029H17.235L17.25 22.5031V6.99995C17.25 6.86734 17.1973 6.74016 17.1036 6.64639C17.0098 6.55263 16.8826 6.49995 16.75 6.49995H16C15.4477 6.49995 15 6.05223 15 5.49995C15 4.94766 15.4477 4.49995 16 4.49995H16.75C17.413 4.49995 18.0489 4.76334 18.5178 5.23218C18.9866 5.70102 19.25 6.33691 19.25 6.99995V22.5249L19.2498 22.5468C19.2382 23.0748 19.0183 23.5768 18.638 23.9433C18.2598 24.3077 17.7536 24.5086 17.2287 24.5029H3.03703C2.24715 24.5144 1.4846 24.2132 0.915697 23.6648C0.344459 23.1141 0.0151748 22.3592 0.000178635 21.5658L0 21.5469V3.24695C0 2.69466 0.447715 2.24695 1 2.24695Z" fill="#333333"/>
<path fill-rule="evenodd" clip-rule="evenodd" d="M3.25 2C2.91877 2 2.60108 2.13147 2.36671 2.36553C2.13233 2.59959 2.00044 2.9171 2 3.24833C1.99978 3.41263 2.03195 3.57535 2.09467 3.7272C2.15739 3.87905 2.24943 4.01704 2.36553 4.13329C2.48162 4.24954 2.6195 4.34177 2.77126 4.40469C2.92303 4.46761 3.08571 4.5 3.25 4.5H15.75V2.5C15.75 2.36739 15.6973 2.24022 15.6036 2.14645C15.5098 2.05268 15.3826 2 15.25 2H3.25ZM0.953437 0.95037C1.56281 0.341814 2.3888 -7.15255e-07 3.25 0H15.25C15.913 0 16.5489 0.263392 17.0178 0.732233C17.4866 1.20107 17.75 1.83696 17.75 2.5V5.5C17.75 6.05228 17.3023 6.5 16.75 6.5H3.25C2.82284 6.5 2.39987 6.41579 2.00528 6.25219C1.61069 6.0886 1.25222 5.84881 0.950373 5.54657C0.648526 5.24432 0.409223 4.88553 0.24615 4.49072C0.0830767 4.09591 -0.000566574 3.67283 2.8883e-06 3.24567C0.00115117 2.38446 0.344068 1.55893 0.953437 0.95037Z" fill="#333333"/>
<path fill-rule="evenodd" clip-rule="evenodd" d="M4.04289 11.5429C4.43342 11.1524 5.06658 11.1524 5.45711 11.5429L7.70711 13.7929C8.09763 14.1834 8.09763 14.8166 7.70711 15.2071L5.45711 17.4571C5.06658 17.8476 4.43342 17.8476 4.04289 17.4571C3.65237 17.0666 3.65237 16.4334 4.04289 16.0429L5.58579 14.5L4.04289 12.9571C3.65237 12.5666 3.65237 11.9334 4.04289 11.5429Z" fill="#333333"/>
<path fill-rule="evenodd" clip-rule="evenodd" d="M8.83698 14.5C8.83698 13.9477 9.28469 13.5 9.83698 13.5H13.75C14.3023 13.5 14.75 13.9477 14.75 14.5C14.75 15.0523 14.3023 15.5 13.75 15.5H9.83698C9.28469 15.5 8.83698 15.0523 8.83698 14.5Z" fill="#333333"/>
</svg>
