<svg width="427" height="421" viewBox="0 0 427 421" fill="none" xmlns="http://www.w3.org/2000/svg">
<path d="M213.824 140.602C214.035 137.756 213.64 134.898 212.664 132.217C211.548 129.675 209.714 127.514 207.387 126C205.061 124.485 202.343 123.682 199.566 123.69H65.1479C63.2669 123.62 61.391 123.926 59.6297 124.59C57.8685 125.254 56.2574 126.263 54.8907 127.557C53.524 128.851 52.4291 130.405 51.6702 132.128C50.9113 133.85 50.5035 135.707 50.4708 137.589V198.238C50.4456 201.073 51.2619 203.852 52.8164 206.224C54.3709 208.595 56.5938 210.452 59.2039 211.56C62.9534 213.131 67.5174 212.63 71.5115 212.63H199.71C203.328 212.599 206.799 211.193 209.419 208.697C212.039 206.201 213.611 202.802 213.817 199.189C213.849 198.595 213.824 204.388 213.824 140.602ZM202.901 167.08C202.548 168.224 201.952 169.278 201.152 170.169C200.353 171.06 199.369 171.767 198.27 172.241C192.965 174.572 186.895 171.951 181.64 174.341C180.623 174.795 179.749 175.516 179.11 176.429C178.471 177.341 178.093 178.41 178.014 179.521C177.936 180.632 178.161 181.743 178.665 182.736C179.17 183.729 179.934 184.566 180.877 185.159C186.224 188.396 195.258 184.133 200.424 190.555C203.228 194.567 200.448 199.755 196.003 201.283C189.768 202.412 183.404 202.643 177.103 201.967C175.981 201.851 175.981 200.076 177.103 200.197C182.583 200.74 188.107 200.677 193.573 200.011C198.193 199.49 201.281 195.202 198.997 191.589C197.63 189.998 195.723 188.967 193.643 188.697C191.298 188.39 188.934 188.255 186.57 188.295C184.055 188.336 181.581 187.649 179.446 186.319C177.748 185.062 176.619 183.183 176.306 181.095C175.993 179.006 176.523 176.878 177.779 175.18C178.719 174.105 179.87 173.234 181.161 172.622C182.452 172.01 183.854 171.669 185.282 171.621C190.234 171.098 197.552 173.147 200.657 167.903C201.246 166.803 201.377 165.515 201.02 164.32C200.663 163.124 199.848 162.118 198.752 161.522C196.486 160.24 193.899 159.64 191.3 159.794C186.826 159.78 179.058 160.941 177.579 155.172C176.993 152.913 177.276 150.516 178.371 148.456C179.656 146.426 181.641 144.937 183.949 144.271C186.449 143.607 189.039 143.35 191.621 143.51C194.641 143.654 197.652 143.959 200.653 144.336C201.774 144.473 201.774 146.245 200.653 146.106C196.382 145.44 192.056 145.196 187.737 145.379C185.328 145.468 183.013 146.334 181.138 147.848C179.946 148.95 179.206 150.456 179.062 152.073C178.919 153.691 179.382 155.304 180.361 156.599C185.046 160.07 194.071 155.766 200.092 160.299C201.177 161.025 202.024 162.057 202.524 163.264C203.024 164.47 203.155 165.798 202.901 167.08ZM157.561 186.067C157.211 186.395 159.772 186.59 116.829 186.292C116.595 186.288 116.372 186.194 116.206 186.028C116.041 185.863 115.947 185.639 115.944 185.405V145.24C115.948 145.007 116.042 144.784 116.207 144.619C116.372 144.454 116.595 144.36 116.829 144.356H156.994C157.229 144.356 157.456 144.449 157.624 144.614C157.792 144.78 157.888 145.005 157.891 145.24C158.176 186.94 158.055 185.704 157.561 186.067ZM65.8727 174.06V156.558C65.8726 156.323 65.9653 156.096 66.1308 155.928C66.2962 155.76 66.521 155.664 66.7567 155.661H84.2477C84.4857 155.661 84.714 155.755 84.8823 155.924C85.0506 156.092 85.1452 156.32 85.1452 156.558C85.2753 175.03 85.3023 174.359 84.8198 174.718C84.4877 175.027 85.8879 175.07 66.768 174.942C66.533 174.942 66.3076 174.849 66.1402 174.684C65.9728 174.519 65.8768 174.295 65.8727 174.06Z" fill="white"/>
<path d="M213.88 260.501C213.472 259.559 212.751 258.786 211.839 258.314C210.928 257.841 209.881 257.698 208.876 257.907C208.33 258.097 207.854 258.445 207.506 258.907C207.159 259.369 206.957 259.924 206.926 260.501H213.88Z" fill="#E3F1FF"/>
<path d="M245.797 294.378C243.553 288.865 241.242 283.384 238.964 277.877C237.957 282.814 234.67 284.037 232.107 282.365C230.869 281.551 229.892 280.398 229.291 279.044C228.703 277.457 228.342 275.795 228.216 274.107L227.799 271.377C227.543 276.069 227.139 281.218 222.467 281.75C222.467 282.199 222.447 282.648 222.418 283.096C222.402 284.697 221.893 286.255 220.959 287.556C220.025 288.856 218.713 289.837 217.201 290.364C216.425 290.495 215.628 290.419 214.891 290.143C214.154 289.867 213.502 289.402 213.003 288.793C212.094 287.625 211.445 286.275 211.1 284.835C210.517 283.157 209.707 281.562 209.081 279.899C208.891 279.233 208.539 278.625 208.056 278.13C207.573 277.634 206.974 277.267 206.314 277.06C205.69 277.012 205.067 277.164 204.536 277.494C204.004 277.825 203.593 278.317 203.361 278.898C202.673 280.206 202.447 281.709 202.719 283.161C203.15 284.696 203.128 286.322 202.654 287.844C202.102 289.026 201.196 290.007 200.061 290.65C198.926 291.293 197.619 291.567 196.322 291.435C195.086 291.164 193.945 290.571 193.014 289.715C192.082 288.859 191.395 287.772 191.022 286.563C190.288 284.056 189.248 281.649 187.925 279.396C184.64 275.16 177.817 277.909 178.501 282.636C178.838 284.27 179.264 285.883 179.773 287.472C180.038 288.594 178.331 289.043 178.066 287.943C177.473 286.132 177.018 284.278 176.706 282.398C176.257 277.063 182.969 273.515 187.701 276.789C192.294 279.977 191.493 288.419 196.003 289.579C196.639 289.743 197.305 289.757 197.948 289.619C198.59 289.481 199.191 289.194 199.703 288.782C200.216 288.37 200.623 287.842 200.893 287.243C201.164 286.643 201.289 285.988 201.258 285.331C200.947 283.753 200.84 282.142 200.94 280.536C201.175 279.102 201.815 277.765 202.78 276.681C203.258 276.173 203.85 275.787 204.507 275.553C205.164 275.319 205.867 275.244 206.558 275.335C207.25 275.423 207.911 275.674 208.487 276.067C209.062 276.46 209.537 276.985 209.87 277.597C210.709 279.012 211.387 280.518 211.89 282.084C213.095 284.844 212.947 285.152 213.615 286.572C213.872 287.211 214.322 287.754 214.903 288.124C215.483 288.494 216.166 288.672 216.853 288.634C217.508 288.438 218.113 288.102 218.625 287.65C219.138 287.197 219.546 286.639 219.822 286.013C220.443 284.671 220.745 283.204 220.704 281.725V281.689C219.605 281.48 218.581 280.986 217.733 280.257C216.885 279.528 216.244 278.589 215.873 277.534C214.078 272.294 215.514 267.127 214.526 262.276H206.72C206.7 262.527 206.682 262.771 206.659 262.998C206.648 263.945 206.418 264.878 205.987 265.721C205.556 266.565 204.936 267.298 204.175 267.863C200.516 270.268 194.679 268.226 193.629 262.273H151.483L168.049 301.904C168.109 302.131 168.078 302.371 167.962 302.575C167.847 302.779 167.657 302.929 167.432 302.995C167.206 303.05 166.967 303.016 166.764 302.901C166.562 302.786 166.41 302.598 166.342 302.376L149.576 262.273C149.576 262.273 76.9305 262.296 75.5909 262.273C75.4219 262.264 75.2591 262.206 75.1217 262.107C74.9843 262.009 74.878 261.872 74.8152 261.715C74.7525 261.558 74.7361 261.386 74.7677 261.22C74.7994 261.054 74.8779 260.9 74.994 260.777C75.1507 260.613 75.3643 260.515 75.5909 260.503C82.4324 260.384 53.1523 260.503 148.835 260.503L132.596 221.644C132.534 221.417 132.565 221.175 132.681 220.971C132.797 220.767 132.989 220.618 133.216 220.555C133.441 220.498 133.681 220.53 133.884 220.645C134.086 220.76 134.237 220.949 134.304 221.172L150.749 260.503H193.463C193.371 250.785 203.98 243.479 214.046 246.934C216.196 243.285 218.809 239.929 221.819 236.949C220.466 233.271 218.877 229.685 217.062 226.212C215.154 223.159 212.426 220.705 209.189 219.13C205.951 217.556 202.336 216.924 198.756 217.309H63.2609C61.8079 217.276 60.3703 217.611 59.0808 218.281C57.7913 218.951 56.6915 219.936 55.883 221.143C55.0742 222.351 54.5823 223.742 54.4525 225.189C54.3227 226.637 54.5592 228.093 55.1403 229.425C55.4455 230.146 80.0472 288.888 80.0472 288.888C81.1 291.935 82.4263 294.882 84.0098 297.69C85.7506 300.321 88.1179 302.477 90.8988 303.966C93.6798 305.454 96.7871 306.228 99.9413 306.217H183.801C204.851 301.842 224.137 301.207 245.451 301.375C246.009 300.302 246.329 299.122 246.388 297.914C246.448 296.707 246.246 295.501 245.797 294.378ZM109.464 275.155H129.791C129.984 275.16 130.17 275.225 130.323 275.342C130.476 275.459 130.589 275.621 130.644 275.806C130.884 276.421 134.683 286.175 136.339 290.438C136.417 290.604 136.427 290.794 136.366 290.967C136.306 291.141 136.18 291.283 136.016 291.365C135.693 291.643 137.414 291.877 115.159 291.558C114.967 291.554 114.78 291.488 114.627 291.372C114.473 291.256 114.36 291.094 114.304 290.909L108.612 276.277C108.578 276.146 108.574 276.009 108.601 275.876C108.627 275.743 108.684 275.618 108.766 275.51C108.848 275.402 108.953 275.314 109.074 275.252C109.195 275.191 109.329 275.158 109.464 275.155ZM120.565 245.761C120.503 245.909 120.398 246.036 120.262 246.122C120.126 246.208 119.967 246.251 119.806 246.243H92.1147C91.9792 246.24 91.8462 246.207 91.7254 246.145C91.6046 246.084 91.4992 245.996 91.4168 245.889C91.3347 245.781 91.2782 245.656 91.2513 245.523C91.2245 245.39 91.2282 245.253 91.262 245.121C91.262 245.121 95.9517 232.376 97.7041 227.06C97.7569 226.891 97.8581 226.74 97.9952 226.628C98.1324 226.515 98.2995 226.444 98.476 226.425C98.5939 226.415 98.7128 226.427 98.8261 226.461C99.0505 226.531 120.277 244.531 120.455 244.758C120.598 244.877 120.69 245.047 120.71 245.233C120.731 245.418 120.679 245.604 120.565 245.752V245.761ZM196.742 244.293C193.708 253.19 174.752 250.026 170.291 240.221C169.876 239.332 169.655 238.365 169.643 237.384C169.631 236.403 169.828 235.431 170.221 234.532C171.281 232.654 173.041 231.272 175.117 230.689C185.639 227.583 199.405 236.478 196.742 244.284V244.293Z" fill="#E3F1FF"/>
<path d="M120.455 244.751C120.28 244.527 120.679 244.944 99.185 226.663C99.0735 226.558 98.9371 226.483 98.7886 226.445C98.6401 226.408 98.4843 226.408 98.3361 226.447C98.1879 226.486 98.0521 226.563 97.9415 226.669C97.831 226.775 97.7492 226.907 97.7041 227.054C95.9516 232.369 91.262 245.115 91.262 245.115C91.2029 245.343 91.2362 245.586 91.3546 245.79C91.473 245.994 91.6671 246.143 91.8947 246.205C91.9777 246.228 115.603 246.16 119.806 246.234C120.535 246.248 121.047 245.24 120.455 244.751Z" fill="#AEFFD3"/>
<path d="M136.339 290.438L130.644 275.806C130.588 275.622 130.475 275.46 130.322 275.344C130.169 275.227 129.984 275.161 129.791 275.155H109.464C109.228 275.159 109.004 275.255 108.838 275.423C108.673 275.591 108.58 275.817 108.58 276.053C108.58 276.277 110.095 280.092 114.304 290.907C114.36 291.092 114.473 291.254 114.626 291.37C114.78 291.487 114.966 291.552 115.159 291.556C136.925 291.868 135.681 291.65 136.016 291.363C136.18 291.281 136.305 291.139 136.366 290.966C136.426 290.794 136.417 290.604 136.339 290.438Z" fill="#AEFFD3"/>
<path d="M219.815 286.004C219.539 286.63 219.131 287.188 218.619 287.641C218.106 288.093 217.502 288.429 216.847 288.625C216.159 288.663 215.477 288.485 214.896 288.115C214.315 287.745 213.865 287.202 213.609 286.563C212.9 285.051 213.292 285.295 211.881 282.075C211.378 280.508 210.701 279.003 209.861 277.588C209.477 276.971 208.964 276.444 208.357 276.044C207.75 275.645 207.064 275.381 206.345 275.272C203.415 274.996 201.409 277.695 200.933 280.527C200.835 282.136 200.944 283.75 201.258 285.331C201.285 285.986 201.159 286.637 200.89 287.235C200.621 287.832 200.216 288.358 199.708 288.771C199.199 289.185 198.601 289.473 197.961 289.614C197.32 289.754 196.656 289.742 196.021 289.579C191.533 288.434 192.274 279.959 187.719 276.789C182.957 273.484 176.289 277.083 176.724 282.398C177.036 284.279 177.491 286.132 178.084 287.943C178.349 289.051 180.056 288.583 179.789 287.472C179.279 285.884 178.855 284.27 178.519 282.636C177.828 277.938 184.486 275.265 187.824 279.27C189.217 281.549 190.295 284.005 191.029 286.572C191.402 287.78 192.09 288.867 193.021 289.723C193.952 290.579 195.093 291.173 196.329 291.443C197.626 291.576 198.933 291.302 200.068 290.659C201.202 290.015 202.109 289.035 202.661 287.853C203.134 286.331 203.157 284.705 202.726 283.17C202.453 281.717 202.68 280.215 203.368 278.907C203.599 278.325 204.011 277.833 204.542 277.503C205.073 277.172 205.697 277.02 206.321 277.069C206.981 277.275 207.58 277.643 208.063 278.138C208.546 278.634 208.898 279.242 209.087 279.908C209.716 281.57 210.523 283.166 211.107 284.844C211.452 286.285 212.101 287.633 213.01 288.802C213.51 289.41 214.161 289.874 214.898 290.15C215.635 290.426 216.432 290.503 217.208 290.373C218.715 289.998 220.019 289.055 220.847 287.741C221.998 285.967 222.566 283.878 222.474 281.766C221.885 281.837 221.288 281.815 220.706 281.701V281.736C220.742 283.209 220.437 284.669 219.815 286.004Z" fill="#AEFFD3"/>
<path d="M191.188 233.594C184.86 229.363 173.764 228.061 170.221 234.523C169.829 235.422 169.632 236.394 169.644 237.375C169.656 238.356 169.876 239.323 170.291 240.212C174.779 250.051 193.721 253.143 196.742 244.284C198.225 239.942 194.543 235.838 191.188 233.594Z" fill="#AEFFD3"/>
<path d="M148.963 116.678C145.821 110.934 138.15 98.1034 137.678 97.3113C137.598 97.1809 137.486 97.0733 137.352 96.9986C137.218 96.924 137.068 96.8848 136.914 96.8848C136.761 96.8848 136.611 96.924 136.477 96.9986C136.343 97.0733 136.231 97.1809 136.15 97.3113C132.803 102.943 125.324 115.879 124.866 116.678C124.791 116.813 124.752 116.966 124.753 117.12C124.754 117.275 124.795 117.426 124.872 117.56C124.949 117.695 125.06 117.806 125.193 117.885C125.326 117.964 125.477 118.008 125.631 118.011H148.198C148.35 118.002 148.498 117.956 148.628 117.875C148.757 117.795 148.865 117.684 148.941 117.552C149.017 117.419 149.059 117.27 149.063 117.118C149.066 116.965 149.032 116.814 148.963 116.678Z" fill="#AEFFD3"/>
<path d="M156.998 144.345H116.833C116.6 144.348 116.377 144.443 116.212 144.608C116.047 144.773 115.952 144.996 115.949 145.229V185.394C115.952 185.628 116.046 185.851 116.211 186.017C116.376 186.182 116.599 186.277 116.833 186.281C158.69 186.579 157.306 186.442 157.671 185.962C158.003 185.612 158.196 188.168 157.896 145.225C157.891 144.99 157.794 144.766 157.627 144.601C157.459 144.437 157.233 144.345 156.998 144.345Z" fill="#AEFFD3"/>
<path d="M84.2477 155.683H66.7568C66.5211 155.687 66.2962 155.783 66.1308 155.951C65.9654 156.119 65.8727 156.345 65.8727 156.581V174.083C65.8762 174.316 65.9704 174.539 66.1355 174.704C66.3005 174.869 66.5234 174.963 66.7568 174.967C85.2417 175.099 84.5551 175.119 84.9119 174.65C85.2282 174.316 85.2709 175.75 85.1362 156.592C85.1377 156.474 85.1159 156.357 85.072 156.247C85.0281 156.137 84.9631 156.038 84.8805 155.953C84.798 155.869 84.6996 155.801 84.591 155.755C84.4824 155.709 84.3657 155.684 84.2477 155.683Z" fill="#AEFFD3"/>
<path d="M195.032 103.85C192.837 103.079 190.493 102.828 188.184 103.116C185.875 103.404 183.665 104.223 181.726 105.51C179.788 106.796 178.174 108.514 177.012 110.53C175.849 112.545 175.17 114.803 175.028 117.125C175.028 117.36 175.12 117.587 175.286 117.755C175.451 117.923 175.676 118.019 175.912 118.022H204.175C204.296 118.032 204.417 118.016 204.531 117.975C204.644 117.933 204.747 117.868 204.833 117.782C204.918 117.697 204.984 117.593 205.025 117.48C205.067 117.366 205.083 117.245 205.073 117.125C204.874 114.174 203.818 111.347 202.034 108.988C200.25 106.63 197.816 104.844 195.032 103.85Z" fill="#AEFFD3"/>
<path d="M179.446 186.319C181.581 187.649 184.055 188.336 186.57 188.295C188.934 188.255 191.298 188.39 193.643 188.697C195.723 188.966 197.63 189.999 198.997 191.589C201.285 195.211 198.178 199.492 193.573 200.011C188.107 200.678 182.583 200.741 177.103 200.197C175.981 200.076 175.981 201.851 177.103 201.967C183.404 202.643 189.768 202.412 196.003 201.283C200.451 199.757 203.228 194.567 200.424 190.555C195.263 184.158 186.162 188.374 180.877 185.145C179.93 184.556 179.162 183.719 178.654 182.726C178.147 181.732 177.921 180.619 177.999 179.506C178.078 178.394 178.458 177.323 179.1 176.411C179.741 175.498 180.62 174.778 181.64 174.327C186.895 171.938 192.965 174.552 198.27 172.227C199.369 171.754 200.353 171.047 201.152 170.156C201.952 169.265 202.549 168.211 202.901 167.066C203.151 165.79 203.019 164.467 202.521 163.265C202.023 162.063 201.181 161.035 200.101 160.31C194.181 155.854 184.948 160 180.37 156.61C179.391 155.315 178.928 153.702 179.071 152.085C179.215 150.467 179.954 148.961 181.147 147.859C183.022 146.345 185.337 145.479 187.746 145.391C192.064 145.208 196.391 145.452 200.661 146.118C201.783 146.257 201.783 144.484 200.661 144.347C197.662 143.963 194.649 143.688 191.63 143.521C189.048 143.361 186.458 143.618 183.958 144.282C181.648 144.944 179.661 146.428 178.371 148.456C177.275 150.513 176.989 152.905 177.57 155.163C179.049 160.932 186.817 159.771 191.291 159.785C193.89 159.631 196.477 160.231 198.743 161.513C199.838 162.11 200.653 163.116 201.01 164.311C201.367 165.506 201.237 166.794 200.648 167.894C197.543 173.138 190.225 171.09 185.273 171.612C182.735 171.739 180.315 172.725 178.411 174.408C177.63 175.226 177.033 176.201 176.658 177.269C176.283 178.336 176.14 179.47 176.238 180.597C176.336 181.724 176.673 182.817 177.226 183.803C177.779 184.79 178.536 185.647 179.446 186.319Z" fill="#AEFFD3"/>
<path d="M156.998 82.9348C157.236 82.9348 157.465 82.8402 157.633 82.6719C157.801 82.5036 157.896 82.2753 157.896 82.0373V41.8721C157.892 41.6364 157.796 41.4116 157.628 41.2461C157.46 41.0807 157.234 40.988 156.998 40.988H116.833C116.6 40.9915 116.377 41.0858 116.212 41.2508C116.047 41.4159 115.952 41.6387 115.949 41.8721V82.0373C115.949 82.273 116.042 82.4993 116.207 82.6672C116.373 82.8351 116.597 82.9313 116.833 82.9348H156.998ZM117.715 81.1644V42.7697H156.112V81.1711L117.713 81.1644H117.715Z" fill="#AEFFD3"/>
<path d="M214.522 262.271C214.376 261.659 214.161 261.065 213.88 260.501H206.924C206.823 261.087 206.754 261.678 206.718 262.271H214.522Z" fill="#AEFFD3"/>
<path d="M193.463 260.501H150.745L134.299 221.17C134.258 221.032 134.184 220.905 134.083 220.801C133.982 220.698 133.858 220.62 133.721 220.574C133.584 220.529 133.437 220.517 133.295 220.541C133.152 220.564 133.017 220.621 132.901 220.708C132.764 220.816 132.661 220.962 132.606 221.128C132.551 221.294 132.546 221.473 132.592 221.641L148.84 260.501H75.6021C75.4331 260.51 75.2703 260.568 75.1329 260.667C74.9955 260.765 74.8892 260.901 74.8265 261.059C74.7638 261.216 74.7473 261.388 74.7789 261.554C74.8106 261.72 74.8891 261.874 75.0052 261.997C75.1623 262.161 75.3755 262.26 75.6021 262.271C76.9484 262.294 149.587 262.271 149.587 262.271L166.348 302.385C166.415 302.608 166.565 302.798 166.768 302.913C166.971 303.028 167.21 303.061 167.437 303.004C167.662 302.939 167.853 302.789 167.969 302.585C168.084 302.381 168.115 302.14 168.054 301.913L151.483 262.282H193.629C193.526 261.694 193.471 261.098 193.463 260.501Z" fill="#AEFFD3"/>
<path d="M198.79 52.3398H181.288C181.054 52.3428 180.83 52.4371 180.664 52.6027C180.499 52.7683 180.405 52.992 180.402 53.2262V70.7283C180.405 70.9621 180.5 71.1853 180.665 71.3504C180.831 71.5155 181.054 71.6095 181.288 71.6124C199.784 71.7448 199.084 71.765 199.443 71.296C199.757 70.9617 199.8 72.3955 199.667 53.2374C199.667 53.0028 199.576 52.7775 199.412 52.6098C199.248 52.442 199.025 52.3451 198.79 52.3398ZM197.893 69.8308H182.185V54.1237H197.893V69.8308Z" fill="#AEFFD3"/>
<path d="M186.422 5.97046H168.931C168.696 5.97458 168.471 6.07096 168.306 6.23883C168.142 6.40671 168.049 6.63266 168.049 6.86801V24.3477C168.052 24.5815 168.146 24.8049 168.311 24.9704C168.476 25.136 168.699 25.2305 168.933 25.234C187.418 25.3664 186.732 25.3866 187.091 24.9154C187.403 24.5855 187.445 26.0171 187.315 6.85903C187.313 6.62332 187.218 6.398 187.051 6.23174C186.883 6.06548 186.658 5.97163 186.422 5.97046Z" fill="#AEFFD3"/>
<path d="M80.4959 103.85C78.3006 103.081 75.957 102.831 73.6488 103.119C71.3406 103.408 69.1307 104.227 67.1925 105.513C65.2542 106.8 63.6403 108.517 62.4773 110.532C61.3144 112.546 60.634 114.803 60.4896 117.125C60.4896 117.361 60.5826 117.587 60.7485 117.755C60.9144 117.923 61.1399 118.019 61.376 118.022H89.6307C89.75 118.03 89.8698 118.013 89.9816 117.97C90.0935 117.928 90.1949 117.862 90.2789 117.777C90.3629 117.691 90.4274 117.589 90.4681 117.476C90.5088 117.364 90.5247 117.244 90.5148 117.125C90.3182 114.177 89.2655 111.351 87.4858 108.993C85.7061 106.635 83.2768 104.847 80.4959 103.85Z" fill="#AEFFD3"/>
<path d="M414.686 229.387C414.49 229.387 414.297 229.421 414.102 229.43C416.013 228.122 417.716 226.534 419.153 224.718C420.271 223.318 421.026 221.664 421.352 219.903C421.68 218.142 421.569 216.328 421.029 214.62C418.076 205.421 403.933 199.019 391.04 204.054C389.839 195.789 387.4 187.752 383.806 180.213C377.215 166.483 365.913 166.371 360.905 171.998C356.379 159.06 345.954 145.191 334.203 139.014C325.328 134.358 315.657 137.95 315.424 147.661C315.511 147.623 315.592 147.576 315.682 147.54C315.87 147.487 316.071 147.498 316.252 147.572C316.433 147.646 316.584 147.779 316.68 147.949C318.092 150.612 320.061 152.941 322.452 154.777C324.843 156.613 327.601 157.913 330.539 158.589C330.723 158.645 330.885 158.758 331.002 158.911C331.118 159.065 331.183 159.251 331.187 159.444C331.152 161.751 330.551 164.014 329.439 166.035C328.326 168.056 326.735 169.774 324.805 171.038C322.728 172.164 320.328 172.544 318.004 172.113C318.92 179.935 321.204 199.198 321.446 201.007C324.871 198.918 328.712 197.607 332.699 197.164C336.685 196.721 340.721 197.158 344.52 198.444C362.664 204.633 373.915 224.945 379.823 243.171C392.74 244.849 405.832 244.644 418.691 242.563C420.103 242.456 421.471 242.02 422.685 241.291C423.901 240.564 424.929 239.566 425.692 238.372C428.874 231.927 419.193 229.349 414.686 229.387Z" fill="#333333"/>
<path d="M390.546 300.944C389.702 291.969 388.403 283.058 386.956 274.17C385.327 263.679 382.939 253.319 379.812 243.174C374.047 224.933 362.44 204.563 344.509 198.447C330.999 193.838 317.717 200.567 309.599 212.031C300.448 224.953 299.726 241.551 299.75 256.845C304.306 267.533 307.355 278.802 308.811 290.328C309.561 269.709 309.336 270.979 309.222 260.312C308.962 236.058 308.816 234.353 309.379 229.54C310.075 223.692 312.849 218.29 317.197 214.317C321.582 210.301 327.348 208.13 333.293 208.256C339.239 208.381 344.907 210.793 349.12 214.991C358.387 224.28 359.738 236.949 359.514 250.069C359.065 276.58 354.265 304.577 351.494 313.781C349.159 322.099 344.468 329.564 337.986 335.275C329.805 341.852 318.875 343.328 308.647 342.758C283.343 341.347 272.548 324.745 260.873 301.833C255.73 301.608 250.576 301.474 245.454 301.409C224.747 301.146 205.329 301.777 183.803 306.251C157.166 311.786 145.925 319.056 140.946 344.585C136.844 365.585 140.973 396.07 159.379 406.839C165.078 410.121 171.582 411.744 178.156 411.524H334.178C347.385 411.524 354.88 404.402 357.276 391.511C360.593 373.681 353.65 361.219 345.269 357.002C353.705 356.632 362.032 354.954 369.952 352.028C375.015 350.206 379.608 347.279 383.397 343.458C393.371 333.235 391.883 315.13 390.546 300.944ZM269.048 356.334C277.799 356.002 329.488 355.254 335.017 355.358C335.187 355.365 335.351 355.422 335.49 355.52C335.628 355.619 335.736 355.755 335.799 355.913C335.862 356.071 335.878 356.244 335.845 356.411C335.812 356.578 335.732 356.732 335.614 356.854C335.458 357.019 335.244 357.117 335.017 357.128C322.58 357.328 251.716 356.679 220.679 362.022C219.557 362.213 219.088 360.507 220.21 360.314C234.073 357.929 254.956 356.868 269.048 356.334ZM153.713 350.5C153.375 346.738 153.571 342.947 154.297 339.24C154.521 338.118 156.217 338.596 156.004 339.709C155.321 343.263 155.146 346.896 155.484 350.5C155.58 351.628 153.807 351.617 153.704 350.493L153.713 350.5Z" fill="white"/>
<path d="M330.532 158.591C327.593 157.917 324.834 156.618 322.443 154.782C320.051 152.946 318.084 150.616 316.674 147.951C316.578 147.78 316.427 147.647 316.246 147.573C316.064 147.499 315.863 147.488 315.675 147.542C309.269 150.1 304.306 159.136 306.812 164.988C307.509 166.385 308.474 167.631 309.654 168.653C310.833 169.675 312.203 170.455 313.685 170.946C315.415 171.782 317.31 172.224 319.231 172.24C321.153 172.256 323.054 171.846 324.799 171.04C326.728 169.776 328.318 168.059 329.43 166.039C330.542 164.018 331.142 161.756 331.178 159.451C331.177 159.257 331.113 159.069 330.997 158.914C330.88 158.76 330.717 158.646 330.532 158.591Z" fill="white"/>
<path d="M349.129 214.984C344.917 210.786 339.248 208.373 333.302 208.247C327.356 208.122 321.591 210.294 317.206 214.311C312.858 218.283 310.084 223.686 309.388 229.533C308.192 239.729 310.245 251.103 308.82 290.322C307.373 278.793 304.323 267.524 299.76 256.839C293.405 241.621 283.536 229.661 267.524 224.976C249.349 219.651 232.655 225.252 220.495 238.32C218.036 240.946 215.875 243.836 214.051 246.937C203.953 243.472 193.378 250.809 193.468 260.505C193.535 267.627 200.056 270.58 204.18 267.867C204.941 267.302 205.561 266.568 205.992 265.723C206.423 264.879 206.653 263.946 206.664 262.998C206.74 262.251 206.745 261.58 206.931 260.505C206.963 259.929 207.165 259.375 207.512 258.913C207.858 258.451 208.334 258.103 208.879 257.911C209.766 257.725 210.688 257.815 211.523 258.169C212.357 258.523 213.063 259.123 213.546 259.89C216.308 264.311 213.64 271.04 215.873 277.538C216.16 278.408 216.639 279.203 217.273 279.864C217.907 280.525 218.682 281.035 219.539 281.358C220.397 281.681 221.316 281.808 222.228 281.729C223.141 281.65 224.025 281.369 224.814 280.904C229.123 278.034 226.993 266.095 228.221 274.116C228.346 275.804 228.708 277.467 229.295 279.053C229.897 280.407 230.874 281.56 232.112 282.374C234.703 284.057 238.087 282.758 238.969 277.886C239.366 275.546 239.568 273.176 239.577 270.802L240.311 260.146C265.009 306.655 271.931 340.712 308.656 342.761C318.884 343.331 329.814 341.863 337.995 335.277C344.476 329.565 349.167 322.101 351.503 313.783C354.254 304.653 359.063 276.865 359.523 250.071C359.742 236.94 358.389 224.271 349.129 214.984ZM317.36 333.909C319.787 333.151 322.127 332.136 324.339 330.882C324.49 330.798 324.662 330.761 324.834 330.774C325.006 330.787 325.17 330.849 325.307 330.954C325.444 331.058 325.548 331.201 325.605 331.363C325.663 331.526 325.672 331.701 325.631 331.869C325.575 332.094 325.434 332.288 325.236 332.41C322.914 333.787 320.425 334.865 317.832 335.616C317.609 335.667 317.375 335.63 317.178 335.514C316.982 335.397 316.837 335.21 316.775 334.99C316.71 334.769 316.736 334.532 316.845 334.329C316.955 334.127 317.14 333.976 317.36 333.909ZM231.326 251.274C230.242 252.413 229.601 253.902 229.52 255.472C229.464 256.608 227.696 256.61 227.749 255.472C227.846 253.435 228.671 251.501 230.074 250.022C230.853 249.192 232.103 250.448 231.326 251.274ZM222.452 248.016C221.195 248.552 220.182 249.535 219.609 250.776C219.126 251.808 217.589 250.901 218.081 249.878C218.888 248.243 220.276 246.967 221.974 246.301C223.024 245.884 223.473 247.58 222.443 248.016H222.452Z" fill="white"/>
<path d="M406.249 418.745C404.716 417.062 361.147 367.475 361.111 367.443C360.988 367.316 360.83 367.228 360.657 367.192C360.484 367.155 360.304 367.17 360.14 367.237C359.977 367.306 359.838 367.422 359.742 367.57C359.646 367.719 359.596 367.892 359.599 368.069C360.65 380.516 365.665 392.298 373.906 401.686C382.147 411.073 393.181 417.571 405.387 420.226C405.574 420.269 405.769 420.251 405.945 420.175C406.121 420.098 406.267 419.968 406.363 419.801C406.458 419.636 406.499 419.444 406.48 419.254C406.458 419.064 406.377 418.886 406.249 418.745Z" fill="#333333"/>
<path d="M279.257 91.8117L256.087 115.3C255.286 116.113 256.536 117.365 257.339 116.553L280.509 93.0638C281.31 92.2515 280.058 90.9994 279.257 91.8117Z" fill="#333333"/>
<path d="M296.524 125.232C296.735 125.199 296.928 125.092 297.067 124.929C297.206 124.766 297.281 124.559 297.28 124.345C297.28 124.132 297.204 123.925 297.065 123.763C296.927 123.6 296.735 123.493 296.524 123.459H256.79C256.579 123.493 256.387 123.6 256.248 123.763C256.11 123.925 256.033 124.132 256.033 124.345C256.033 124.559 256.11 124.765 256.248 124.928C256.387 125.09 256.579 125.198 256.79 125.232C274.931 125.548 287.367 125.389 296.524 125.232Z" fill="#333333"/>
<path d="M255.849 134.01C263.515 141.924 271.319 149.704 279.257 157.346C279.426 157.499 279.647 157.582 279.875 157.576C280.103 157.571 280.32 157.478 280.481 157.317C280.642 157.156 280.735 156.939 280.74 156.711C280.745 156.483 280.663 156.262 280.509 156.094C272.845 148.178 265.041 140.398 257.101 132.758C256.933 132.604 256.712 132.522 256.484 132.527C256.256 132.532 256.039 132.625 255.878 132.786C255.717 132.947 255.624 133.164 255.619 133.392C255.613 133.62 255.696 133.841 255.849 134.01Z" fill="#333333"/>
<path d="M35.7376 265.585H0.838838C0.669829 265.595 0.507043 265.652 0.369635 265.751C0.232228 265.85 0.125916 265.986 0.0632122 266.143C0.00050797 266.3 -0.0159793 266.472 0.015689 266.639C0.0473572 266.805 0.125863 266.959 0.24197 267.082C0.39904 267.246 0.612208 267.344 0.838838 267.356H35.7376C35.9066 267.346 36.0694 267.289 36.2068 267.19C36.3442 267.091 36.4506 266.955 36.5133 266.798C36.576 266.64 36.5924 266.468 36.5608 266.302C36.5291 266.136 36.4506 265.982 36.3345 265.859C36.1778 265.695 35.9642 265.597 35.7376 265.585Z" fill="#333333"/>
<path d="M35.1116 272.678L4.18891 303.601C4.03551 303.769 3.95291 303.99 3.95825 304.218C3.9636 304.446 4.05648 304.663 4.21761 304.824C4.37874 304.985 4.59574 305.078 4.82355 305.083C5.05136 305.089 5.27248 305.006 5.44099 304.853C13.6019 296.968 34.1176 276.253 36.3614 273.93C36.5106 273.761 36.5897 273.542 36.5828 273.316C36.5759 273.091 36.4834 272.877 36.3242 272.717C36.165 272.558 35.9509 272.465 35.7257 272.458C35.5004 272.45 35.2808 272.529 35.1116 272.678Z" fill="#333333"/>
<path d="M41.3315 273.596V305.358C41.342 305.585 41.4401 305.8 41.6053 305.957C41.7705 306.114 41.99 306.201 42.2179 306.199C42.4451 306.199 42.6638 306.112 42.8284 305.956C42.993 305.799 43.091 305.585 43.1019 305.358V273.596C43.0915 273.368 42.9934 273.154 42.8282 272.997C42.663 272.84 42.4434 272.753 42.2156 272.754C41.9884 272.754 41.7697 272.841 41.6051 272.998C41.4405 273.155 41.3425 273.369 41.3315 273.596Z" fill="#333333"/>
<path d="M42.3009 127.458V210.465C42.3113 210.692 42.4091 210.906 42.5738 211.063C42.7386 211.22 42.9575 211.307 43.185 211.306C43.4126 211.307 43.6318 211.22 43.7969 211.063C43.962 210.907 44.0603 210.692 44.0713 210.465V127.458C44.0713 127.223 43.9779 126.997 43.8117 126.831C43.6455 126.665 43.42 126.571 43.185 126.571C42.9499 126.571 42.7245 126.665 42.5582 126.831C42.392 126.997 42.2986 127.223 42.2986 127.458H42.3009Z" fill="white"/>
<path d="M45.5164 225.355C45.0945 224.309 43.3824 224.767 43.8088 225.824L74.6484 302.385C75.0703 303.428 76.7801 302.972 76.3538 301.913C66.0852 276.39 55.8061 250.87 45.5164 225.355Z" fill="#AEFFD3"/>
<path d="M139.57 27.0628C138.04 24.2759 125.957 3.67946 125.364 2.68094C125.284 2.55056 125.171 2.44292 125.038 2.36825C124.904 2.29359 124.753 2.25439 124.6 2.25439C124.447 2.25439 124.296 2.29359 124.163 2.36825C124.029 2.44292 123.917 2.55056 123.836 2.68094C119.084 10.7986 114.349 18.9259 109.63 27.0628C109.555 27.1978 109.516 27.3498 109.517 27.5042C109.518 27.6586 109.559 27.8102 109.636 27.9442C109.713 28.0782 109.823 28.1902 109.955 28.2692C110.088 28.3483 110.239 28.3918 110.393 28.3956H138.805C138.957 28.386 139.104 28.3388 139.233 28.2583C139.362 28.1778 139.469 28.0666 139.545 27.9345C139.621 27.8024 139.662 27.6536 139.666 27.5015C139.67 27.3494 139.636 27.1986 139.568 27.0628H139.57Z" fill="#AEFFD3"/>
<path d="M106.325 2.03456C98.769 9.34082 91.3363 16.7735 84.03 24.3296C83.8866 24.4998 83.8123 24.7176 83.8217 24.94C83.8312 25.1624 83.9238 25.3731 84.0812 25.5305C84.2386 25.6879 84.4493 25.7805 84.6717 25.79C84.8941 25.7994 85.1119 25.7251 85.2821 25.5817L107.577 3.27766C107.731 3.10915 107.813 2.88803 107.808 2.66022C107.802 2.43241 107.71 2.21541 107.548 2.05428C107.387 1.89315 107.17 1.80027 106.942 1.79492C106.715 1.78958 106.494 1.87218 106.325 2.02558V2.03456Z" fill="#333333"/>
<path d="M76.0508 2.02574C76.2139 1.85817 76.3052 1.63355 76.3052 1.3997C76.3052 1.16585 76.2139 0.941238 76.0508 0.773665C75.8833 0.610555 75.6586 0.519287 75.4248 0.519287C75.1909 0.519287 74.9663 0.610555 74.7988 0.773665C69.4 4.95174 57.245 14.2795 56.6235 14.836C55.7012 15.812 57.2069 16.631 57.8396 17.109L74.7965 30.2333C74.9657 30.3934 75.1897 30.4825 75.4225 30.4825C75.6554 30.4825 75.8794 30.3934 76.0486 30.2333C76.1309 30.1512 76.1963 30.0536 76.2409 29.9462C76.2855 29.8388 76.3084 29.7236 76.3084 29.6073C76.3084 29.491 76.2855 29.3758 76.2409 29.2684C76.1963 29.161 76.1309 29.0634 76.0486 28.9813L58.634 15.5024L76.0508 2.02574Z" fill="#333333"/>
<path d="M340.584 28.9812C340.42 29.1482 340.328 29.373 340.328 29.6072C340.328 29.8414 340.42 30.0662 340.584 30.2333C340.752 30.3958 340.977 30.4868 341.21 30.4868C341.444 30.4868 341.668 30.3958 341.836 30.2333C347.235 26.0552 359.388 16.7275 360.012 16.1687C360.934 15.1927 359.428 14.3849 358.795 13.8957L341.836 0.773592C341.668 0.612559 341.443 0.522705 341.21 0.522705C340.977 0.522705 340.753 0.612559 340.584 0.773592C340.501 0.855414 340.436 0.952888 340.391 1.06036C340.346 1.16782 340.323 1.28315 340.323 1.39963C340.323 1.51611 340.346 1.63143 340.391 1.7389C340.436 1.84637 340.501 1.94384 340.584 2.02567L357.999 15.5023L340.584 28.9812Z" fill="#333333"/>
<path d="M312.985 3.10952C311.177 2.45571 309.232 2.27088 307.333 2.57228C305.434 2.87368 303.642 3.65149 302.126 4.83304C300.609 6.01459 299.416 7.56134 298.659 9.32881C297.902 11.0963 297.605 13.0268 297.796 14.94C297.988 16.8533 298.661 18.6868 299.753 20.2693C300.845 21.8519 302.32 23.1318 304.041 23.9896C305.762 24.8474 307.672 25.255 309.593 25.1744C311.514 25.0938 313.384 24.5276 315.027 23.5287C316.867 22.4193 318.355 20.8101 319.317 18.8883C320.278 16.9665 320.674 14.8111 320.459 12.6729C320.247 10.5346 319.432 8.50061 318.108 6.80759C316.785 5.11456 315.008 3.83212 312.985 3.10952Z" fill="#AEFFD3"/>
<path d="M50.4708 198.238C50.4492 201.073 51.2669 203.85 52.821 206.221C54.3751 208.591 56.596 210.449 59.2039 211.56C62.9579 213.117 67.5174 212.63 71.5115 212.63H199.71C203.326 212.593 206.794 211.184 209.412 208.69C212.031 206.195 213.605 202.8 213.817 199.189C213.914 197.296 213.833 201.081 213.833 140.602C214.039 137.757 213.643 134.9 212.673 132.217C211.555 129.677 209.72 127.517 207.394 126.003C205.068 124.488 202.351 123.685 199.575 123.69H65.1457C63.266 123.624 61.392 123.933 59.6328 124.598C57.8736 125.264 56.2643 126.272 54.8986 127.566C53.5329 128.859 52.4381 130.411 51.678 132.131C50.9178 133.852 50.5075 135.706 50.4708 137.586C50.4708 137.813 50.758 136.072 50.4708 198.238ZM52.2412 137.836C52.2479 136.158 52.5939 134.499 53.2585 132.959C53.9231 131.418 54.8925 130.028 56.1084 128.872C57.3243 127.716 58.7615 126.818 60.3335 126.232C61.9055 125.647 63.5798 125.385 65.2556 125.463H199.439C201.782 125.435 204.087 126.064 206.092 127.278C208.098 128.492 209.723 130.242 210.786 132.331C211.867 134.921 212.306 137.734 212.065 140.53C212.065 140.53 212.107 192.725 212.065 198.498C212.04 201.766 210.732 204.892 208.424 207.204C206.115 209.516 202.991 210.829 199.724 210.86C54.1148 211.623 64.3715 211.073 61.5331 210.476C58.8471 209.756 56.4772 208.163 54.7972 205.947C53.1172 203.731 52.2227 201.019 52.2547 198.238C52.2322 191.648 52.2367 138.358 52.2412 137.836Z" fill="#333333"/>
<path d="M91.897 246.205C92.0541 246.248 110.671 246.066 119.808 246.234C120.533 246.248 121.047 245.24 120.455 244.751C120.271 244.527 120.679 244.944 99.1828 226.663C99.0719 226.557 98.9354 226.481 98.7866 226.442C98.6378 226.404 98.4815 226.404 98.3329 226.443C98.1842 226.483 98.0481 226.559 97.9377 226.666C97.8272 226.773 97.746 226.906 97.7019 227.054C95.9517 232.369 91.262 245.115 91.262 245.115C91.203 245.343 91.2366 245.586 91.3555 245.79C91.4744 245.994 91.669 246.143 91.897 246.205ZM98.9607 228.786L117.403 244.459H93.369L98.9607 228.786Z" fill="#333333"/>
<path d="M130.646 275.806C130.589 275.622 130.476 275.46 130.323 275.344C130.17 275.227 129.984 275.161 129.791 275.155H109.464C109.229 275.159 109.004 275.255 108.838 275.423C108.673 275.591 108.58 275.817 108.58 276.053C108.58 276.277 110.086 280.067 114.304 290.907C114.361 291.092 114.473 291.254 114.627 291.37C114.78 291.487 114.966 291.553 115.159 291.558C136.925 291.874 135.682 291.648 136.027 291.363C136.192 291.282 136.318 291.139 136.378 290.965C136.438 290.792 136.427 290.602 136.348 290.436C136.247 290.203 130.788 276.174 130.646 275.806ZM115.767 289.788L110.761 276.928H129.197L134.203 289.788H115.767Z" fill="#333333"/>
<path d="M196.744 244.284C198.157 239.922 194.545 235.838 191.188 233.595C184.851 229.356 173.764 228.061 170.221 234.524C169.821 235.42 169.62 236.393 169.632 237.375C169.644 238.357 169.869 239.325 170.291 240.212C174.491 249.86 193.531 253.244 196.744 244.284ZM171.467 236.31C171.685 235.492 172.095 234.739 172.663 234.113C173.232 233.486 173.942 233.005 174.734 232.708C182.987 229.053 197.327 236.747 195.034 243.813C192.761 250.161 177.77 248.566 172.64 240.827C172.157 240.188 171.805 239.46 171.604 238.685C171.403 237.91 171.356 237.103 171.467 236.31Z" fill="#333333"/>
<path d="M137.679 97.3114C137.592 97.1755 137.471 97.0652 137.328 96.9921C137.185 96.919 137.025 96.8857 136.864 96.8958C136.703 96.9059 136.549 96.959 136.416 97.0494C136.282 97.1399 136.176 97.2645 136.108 97.4101C135.489 98.3996 133.357 102.122 124.871 116.678C124.796 116.813 124.757 116.965 124.758 117.12C124.759 117.274 124.8 117.426 124.876 117.56C124.953 117.694 125.063 117.806 125.196 117.885C125.328 117.964 125.479 118.007 125.634 118.011H148.198C148.318 118.005 148.435 117.975 148.544 117.923C148.652 117.871 148.749 117.798 148.83 117.709C148.91 117.62 148.972 117.515 149.011 117.402C149.051 117.288 149.068 117.168 149.062 117.048C149.044 116.71 149.753 118.031 137.679 97.3114ZM127.173 116.241L136.916 99.5171L146.654 116.241H127.173Z" fill="#333333"/>
<path d="M116.829 186.285C145.505 186.496 153.877 186.487 156.406 186.337C157.501 186.274 157.824 186.238 157.907 185.174C158.069 183.123 158.089 175.411 157.885 145.234C157.881 144.998 157.785 144.773 157.617 144.608C157.449 144.442 157.223 144.349 156.987 144.349H116.822C116.588 144.353 116.366 144.447 116.201 144.612C116.035 144.777 115.941 145 115.938 145.234V185.399C115.941 185.634 116.036 185.858 116.202 186.024C116.369 186.189 116.594 186.283 116.829 186.285ZM117.726 146.12H156.114V184.515H117.715L117.726 146.12Z" fill="#333333"/>
<path d="M66.7568 174.945C85.1946 175.079 84.5371 175.104 84.9119 174.626C85.2238 174.296 85.2619 175.728 85.1362 156.57C85.1363 156.334 85.0436 156.108 84.8781 155.94C84.7127 155.772 84.4879 155.676 84.2522 155.672H66.7568C66.5211 155.676 66.2962 155.772 66.1308 155.94C65.9654 156.108 65.8727 156.334 65.8727 156.57V174.072C65.879 174.303 65.9745 174.523 66.1393 174.686C66.304 174.848 66.5253 174.941 66.7568 174.945ZM67.6431 157.442H83.3614V173.163H67.6431V157.442Z" fill="#333333"/>
<path d="M189.142 103.026C185.475 103.253 182.018 104.811 179.42 107.407C176.822 110.003 175.261 113.459 175.032 117.125C175.032 117.361 175.125 117.587 175.291 117.755C175.457 117.923 175.682 118.019 175.918 118.022H204.175C204.296 118.032 204.417 118.015 204.53 117.973C204.643 117.931 204.746 117.866 204.831 117.78C204.916 117.695 204.982 117.592 205.024 117.479C205.066 117.366 205.082 117.245 205.073 117.125C204.954 115.153 204.447 113.223 203.582 111.447C202.716 109.671 201.509 108.083 200.029 106.773C198.55 105.464 196.827 104.459 194.958 103.816C193.09 103.173 191.114 102.905 189.142 103.026ZM191.834 104.898C194.706 105.287 197.37 106.607 199.419 108.656C201.468 110.705 202.788 113.369 203.177 116.241H176.924C177.157 114.516 177.728 112.855 178.603 111.351C179.479 109.848 180.643 108.532 182.028 107.478C183.412 106.425 184.991 105.655 186.674 105.212C188.357 104.769 190.11 104.662 191.834 104.898Z" fill="#333333"/>
<path d="M185.282 171.621C182.744 171.748 180.324 172.734 178.42 174.417C177.643 175.235 177.048 176.208 176.674 177.273C176.301 178.338 176.158 179.47 176.255 180.594C176.352 181.719 176.687 182.809 177.237 183.795C177.787 184.78 178.54 185.637 179.446 186.31C181.584 187.634 184.057 188.318 186.57 188.287C188.935 188.242 191.3 188.374 193.643 188.688C195.725 188.957 197.632 189.987 198.997 191.581C201.285 195.202 198.178 199.481 193.573 200.002C188.108 200.693 182.582 200.755 177.103 200.188C175.981 200.067 175.981 201.839 177.103 201.958C183.404 202.632 189.768 202.403 196.003 201.274C200.462 199.746 203.231 194.558 200.424 190.546C196.129 185.21 189.047 187.261 183.406 186.126C182.066 185.955 180.817 185.352 179.851 184.407C178.885 183.462 178.254 182.227 178.054 180.891C177.854 179.554 178.096 178.189 178.744 177.002C179.391 175.816 180.408 174.874 181.64 174.318C183.925 173.396 186.394 173.021 188.85 173.223C192.027 173.608 195.25 173.264 198.274 172.218C199.378 171.751 200.365 171.046 201.165 170.154C201.965 169.262 202.56 168.205 202.905 167.057C203.145 165.781 203.007 164.462 202.51 163.263C202.013 162.063 201.177 161.034 200.105 160.301C194.978 156.711 189.532 158.699 183.907 157.882C182.719 157.892 181.561 157.51 180.614 156.793C179.666 156.077 178.982 155.068 178.667 153.923C178.353 152.777 178.426 151.56 178.875 150.46C179.325 149.361 180.125 148.441 181.151 147.843C183.027 146.329 185.342 145.463 187.75 145.375C192.069 145.176 196.397 145.419 200.666 146.102C201.788 146.241 201.788 144.468 200.666 144.332C197.666 143.947 194.654 143.672 191.634 143.506C189.054 143.36 186.465 143.618 183.963 144.266C181.654 144.942 179.668 146.43 178.371 148.456C177.272 150.512 176.986 152.906 177.57 155.163C179.033 160.936 186.817 159.772 191.291 159.785C192.337 159.783 193.382 159.852 194.419 159.994C200.116 160.667 202.461 164.836 200.648 167.894C197.65 172.979 190.901 171.191 185.282 171.621Z" fill="#333333"/>
<path d="M66.7568 72.1778H84.2477C84.4894 72.1639 84.7159 72.0553 84.878 71.8755C85.0401 71.6957 85.1249 71.4593 85.1138 71.2175C85.0936 70.8966 85.6277 71.8704 76.2663 55.8358C76.1859 55.7054 76.0735 55.5978 75.9398 55.5231C75.806 55.4484 75.6554 55.4092 75.5022 55.4092C75.3491 55.4092 75.1985 55.4484 75.0647 55.5231C74.931 55.5978 74.8186 55.7054 74.7382 55.8358C72.1847 60.2158 66.3551 70.2234 65.9872 70.845C65.912 70.9805 65.8732 71.1332 65.8745 71.2881C65.8758 71.4431 65.9172 71.5951 65.9947 71.7293C66.0722 71.8634 66.1831 71.9753 66.3167 72.0539C66.4502 72.1325 66.6019 72.1752 66.7568 72.1778ZM75.5079 58.0415L82.7129 70.4074H68.2983L75.5079 58.0415Z" fill="#333333"/>
<path d="M115.945 41.8857V82.0509C115.944 82.2866 116.037 82.5129 116.203 82.6808C116.368 82.8487 116.593 82.9449 116.829 82.9484C145.175 83.1391 153.686 83.1459 156.341 82.9821C157.62 82.9035 157.851 82.8474 157.929 81.6806C158.082 79.4368 158.118 71.4374 157.885 41.8924C157.881 41.6567 157.785 41.4319 157.617 41.2665C157.449 41.101 157.223 41.0083 156.987 41.0084H116.822C116.591 41.0135 116.371 41.1076 116.207 41.271C116.044 41.4345 115.95 41.6546 115.945 41.8857ZM117.715 42.772H156.114V81.1713H117.715V42.772Z" fill="#333333"/>
<path d="M180.408 53.2262V70.7283C180.412 70.9621 180.507 71.1853 180.672 71.3504C180.838 71.5155 181.061 71.6095 181.295 71.6124C199.742 71.7493 199.086 71.7695 199.45 71.296C199.766 70.9594 199.822 72.3955 199.674 53.2374C199.671 53.0013 199.575 52.7759 199.407 52.61C199.239 52.4441 199.013 52.3511 198.777 52.3511H181.288C181.057 52.3556 180.837 52.4491 180.673 52.6122C180.509 52.7752 180.414 52.9951 180.408 53.2262ZM182.179 54.1125H197.893V69.8195H182.186L182.179 54.1125Z" fill="#333333"/>
<path d="M168.933 25.234C187.378 25.3686 186.723 25.3911 187.086 24.9154C187.4 24.5855 187.436 26.0171 187.311 6.85901C187.308 6.62292 187.212 6.3975 187.044 6.23159C186.876 6.06569 186.649 5.97267 186.413 5.97269H168.933C168.698 5.97622 168.474 6.07203 168.308 6.23948C168.143 6.40694 168.05 6.63265 168.049 6.86799V24.3477C168.052 24.5815 168.146 24.8049 168.311 24.9704C168.476 25.1359 168.7 25.2305 168.933 25.234ZM169.817 7.74309H185.538V23.4726H169.817V7.74309Z" fill="#333333"/>
<path d="M60.4897 117.125C60.4897 117.361 60.5827 117.587 60.7486 117.755C60.9145 117.923 61.1399 118.019 61.376 118.022C91.5941 118.175 89.7497 118.074 90.0369 117.921C90.1946 117.865 90.3281 117.756 90.4152 117.613C90.5022 117.47 90.5374 117.302 90.5148 117.136C90.3048 113.297 88.6317 109.684 85.8396 107.04C83.0474 104.396 79.3485 102.923 75.5034 102.923C71.6583 102.923 67.9593 104.396 65.1672 107.04C62.375 109.684 60.7019 113.297 60.4919 117.136V117.125H60.4897ZM77.3007 104.898C80.1721 105.287 82.8367 106.607 84.8856 108.656C86.9345 110.705 88.2546 113.369 88.6434 116.241H62.3902C62.6234 114.516 63.1942 112.855 64.07 111.351C64.9458 109.848 66.1094 108.532 67.4942 107.478C68.879 106.425 70.4579 105.655 72.1406 105.212C73.8233 104.769 75.5767 104.662 77.3007 104.898Z" fill="#333333"/>
<path d="M414.686 229.387C414.49 229.387 414.297 229.421 414.1 229.43C416.012 228.123 417.716 226.535 419.153 224.718C420.265 223.315 421.018 221.662 421.345 219.902C421.671 218.142 421.563 216.329 421.029 214.621C418.009 205.421 403.933 199.019 391.04 204.054C389.815 195.794 387.377 187.761 383.806 180.213C380.828 174.096 375.699 168.06 368.256 168.545C366.86 168.597 365.489 168.931 364.226 169.526C362.963 170.121 361.833 170.966 360.905 172.01C355.683 157.081 345.036 144.951 334.203 139.025C325.14 134.456 315.653 137.979 315.424 147.673C312.122 149.188 309.457 151.814 307.893 155.093C306.983 156.558 306.414 158.208 306.228 159.923C306.042 161.637 306.244 163.372 306.819 164.997C307.514 166.395 308.479 167.641 309.659 168.664C310.839 169.687 312.209 170.465 313.692 170.955C315.08 171.507 316.527 171.9 318.004 172.124L321.446 201.018C316.773 203.823 312.74 207.578 309.61 212.04C300.41 224.922 299.737 241.56 299.762 256.854C293.551 241.623 283.346 229.704 267.526 224.992C259.551 222.511 251.04 222.319 242.961 224.436C234.882 226.553 227.559 230.895 221.826 236.967L218.873 229.971C215.309 220.861 207.923 216.844 198.763 217.327H63.2743C61.8218 217.296 60.3849 217.632 59.096 218.302C57.8071 218.972 56.7075 219.956 55.8985 221.163C55.0895 222.37 54.5971 223.761 54.4666 225.208C54.336 226.655 54.5716 228.111 55.1515 229.443C85.2193 301.247 82.2237 294.542 84.0143 297.72C85.7518 300.353 88.1185 302.512 90.9001 304.001C93.6818 305.49 96.7908 306.261 99.9458 306.246H183.808C157.232 311.771 146.03 318.913 140.95 344.581C136.882 365.72 140.881 395.698 159.383 406.834C165.097 410.081 171.591 411.701 178.16 411.519H334.183C347.39 411.519 354.884 404.397 357.281 391.506C360.62 373.556 353.592 361.192 345.274 356.998C353.711 356.637 362.039 354.958 369.956 352.023C375.005 350.174 379.592 347.251 383.399 343.454C393.364 332.982 391.926 315.406 390.555 300.946C389.711 291.971 388.477 283.052 386.965 274.173C385.336 263.681 382.948 253.322 379.82 243.176C392.738 244.834 405.827 244.628 418.686 242.568C420.098 242.457 421.465 242.021 422.68 241.294C423.895 240.567 424.925 239.568 425.69 238.376C428.874 231.927 419.194 229.349 414.686 229.387ZM315.087 169.575C312.548 168.844 310.339 167.259 308.834 165.087C308.197 163.834 307.871 162.445 307.885 161.039C307.899 159.633 308.251 158.25 308.912 157.009C310.2 153.834 312.541 151.199 315.543 149.546C317.04 152.131 319.035 154.392 321.412 156.201C323.789 158.009 326.502 159.328 329.392 160.081C329.293 161.787 328.832 163.453 328.041 164.968C327.249 166.482 326.144 167.811 324.799 168.866C322.079 171.186 318.26 170.538 315.087 169.575ZM244.688 225.748C252.297 224.11 260.202 224.492 267.617 226.857C275.032 229.222 281.699 233.488 286.954 239.229C290.991 243.807 294.313 248.969 296.807 254.541C304.128 270.54 306.372 283.765 308.439 300.715C308.446 300.885 308.503 301.049 308.601 301.188C308.7 301.327 308.836 301.434 308.994 301.497C309.152 301.56 309.325 301.576 309.492 301.543C309.659 301.51 309.813 301.43 309.935 301.312C310.1 301.156 310.198 300.942 310.209 300.715C311.349 270.735 311.167 276.3 310.772 239.37C310.705 233.112 310.772 226.715 313.965 221.134C315.357 218.629 317.235 216.426 319.489 214.656C321.743 212.885 324.328 211.583 327.092 210.824C329.855 210.063 332.743 209.861 335.585 210.229C338.427 210.598 341.167 211.53 343.645 212.971C354.191 219.38 357.357 231.786 357.725 244.053C357.811 264.931 355.73 285.76 351.516 306.208C347.206 327.274 336.741 340.138 315.244 341.042C308.68 341.396 302.107 340.538 295.853 338.511C280.238 333.126 271.718 318.832 263.99 303.989C255.318 287.342 243.744 261.997 240.398 256.702C240.295 256.541 240.144 256.417 239.966 256.349C239.788 256.281 239.592 256.272 239.409 256.323C239.225 256.373 239.061 256.48 238.942 256.629C238.823 256.777 238.755 256.96 238.747 257.151C238.565 260.725 237.719 271.541 237.625 273.383C237.592 274.79 237.456 276.193 237.219 277.581C236.857 279.448 235.648 282.242 233.287 281.001C230.554 279.569 230.334 276.316 229.921 273.636L228.084 261.616C227.92 260.543 226.45 260.943 226.345 261.84C225.793 266.481 226.76 274.029 224.689 278.378C223.181 281.151 218.832 280.049 217.719 277.444C215.251 270.542 218.987 260.274 212.812 256.832C212.101 256.405 211.306 256.137 210.482 256.046C209.658 255.956 208.824 256.045 208.037 256.307C207.205 256.684 206.493 257.282 205.979 258.036C205.464 258.791 205.167 259.672 205.12 260.584C204.873 262.341 205.12 264.578 203.751 265.933C203.163 266.434 202.461 266.781 201.706 266.946C200.952 267.11 200.168 267.086 199.425 266.876C195.521 265.814 194.713 261.042 195.543 257.656C196.103 255.815 197.037 254.111 198.288 252.651C199.54 251.19 201.08 250.005 202.812 249.17C204.545 248.334 206.432 247.867 208.353 247.798C210.275 247.729 212.191 248.059 213.979 248.768C214.182 248.883 214.423 248.914 214.649 248.855C214.875 248.796 215.069 248.651 215.191 248.451C218.336 242.884 222.569 238.006 227.636 234.106C232.703 230.206 238.502 227.364 244.688 225.748ZM245.797 294.379L238.964 277.877C239.361 275.537 239.563 273.167 239.572 270.793L240.306 260.137C242.478 264.226 260.086 300.276 260.878 301.826C255.735 301.602 250.581 301.492 245.458 301.402C246.015 300.324 246.333 299.139 246.392 297.927C246.45 296.715 246.247 295.505 245.797 294.379ZM213.878 260.496H206.922C206.954 259.92 207.156 259.366 207.502 258.904C207.849 258.442 208.325 258.094 208.87 257.902C209.876 257.693 210.924 257.838 211.836 258.311C212.748 258.784 213.469 259.558 213.878 260.501V260.496ZM99.8897 304.476C96.6336 304.488 93.4416 303.572 90.687 301.836C87.9324 300.1 85.7292 297.615 84.3352 294.673C84.223 294.437 56.5629 228.254 56.4889 228.03C55.9893 226.392 56.1109 224.627 56.8303 223.073C57.5498 221.519 58.8166 220.285 60.3887 219.606C62.3476 218.785 53.9847 219.081 198.967 219.081C202.617 218.68 206.3 219.451 209.482 221.284C212.664 223.117 215.179 225.916 216.663 229.275C216.775 229.533 219.793 236.68 220.477 238.322C218.018 240.947 215.857 243.836 214.033 246.937C204.086 243.521 193.358 250.715 193.45 260.505H150.745L134.302 221.177C134.233 220.954 134.082 220.766 133.879 220.651C133.677 220.536 133.437 220.502 133.211 220.558C132.986 220.623 132.795 220.773 132.679 220.977C132.564 221.181 132.532 221.422 132.592 221.648L148.837 260.505H75.6021C75.4329 260.514 75.2698 260.572 75.1321 260.67C74.9944 260.769 74.8877 260.905 74.8248 261.062C74.7618 261.22 74.7451 261.392 74.7767 261.558C74.8083 261.725 74.8868 261.879 75.003 262.002C75.16 262.166 75.3755 262.264 75.6021 262.276C76.9484 262.298 149.587 262.276 149.587 262.276L166.344 302.385C166.41 302.609 166.561 302.799 166.764 302.914C166.968 303.03 167.208 303.062 167.434 303.004C167.66 302.939 167.85 302.789 167.966 302.585C168.082 302.381 168.113 302.14 168.054 301.913L151.481 262.282H193.629C194.668 268.164 200.469 270.311 204.175 267.872C204.939 267.308 205.56 266.575 205.992 265.73C206.423 264.885 206.651 263.951 206.659 263.003C206.682 262.778 206.72 262.282 206.72 262.282H214.524C214.819 263.802 214.947 265.349 214.908 266.896C214.854 270.262 214.672 276.349 216.685 279.12C217.65 280.456 219.083 281.379 220.699 281.703C220.744 283.193 220.441 284.672 219.815 286.025C219.539 286.65 219.131 287.209 218.619 287.661C218.106 288.114 217.502 288.45 216.847 288.646C216.159 288.684 215.477 288.505 214.897 288.135C214.316 287.765 213.867 287.222 213.611 286.583C213.311 285.948 213.069 285.286 212.888 284.607C212.327 282.895 211.928 282.392 211.205 280.366C210.308 277.839 209.006 275.721 206.347 275.288C203.419 275.012 201.411 277.709 200.935 280.543C200.843 282.146 200.951 283.755 201.258 285.331C201.299 286.319 200.991 287.289 200.388 288.072C199.784 288.854 198.925 289.4 197.96 289.613C197.32 289.753 196.656 289.741 196.021 289.579C191.567 288.441 192.267 279.986 187.719 276.789C182.908 273.482 176.291 277.081 176.724 282.399C177.036 284.279 177.491 286.132 178.084 287.943C178.344 289.036 180.002 288.592 179.794 287.512C179.771 287.174 179.21 286.007 178.519 282.636C177.819 277.866 184.685 275.185 187.943 279.396C189.266 281.649 190.306 284.056 191.04 286.563C191.42 287.768 192.109 288.852 193.04 289.707C193.97 290.561 195.108 291.157 196.34 291.435C197.637 291.562 198.941 291.285 200.075 290.643C201.208 290 202.115 289.023 202.672 287.844C203.147 286.323 203.169 284.696 202.737 283.162C202.485 281.709 202.71 280.213 203.377 278.898C203.609 278.317 204.021 277.826 204.553 277.495C205.085 277.165 205.708 277.012 206.332 277.06C206.992 277.267 207.591 277.634 208.074 278.13C208.557 278.625 208.909 279.233 209.098 279.899C209.648 281.349 210.544 283.18 211.118 284.835C211.463 286.276 212.112 287.625 213.021 288.794C213.521 289.401 214.173 289.866 214.909 290.141C215.646 290.417 216.443 290.494 217.219 290.364C218.725 289.988 220.028 289.046 220.856 287.732C222.015 285.962 222.585 283.871 222.485 281.757C223.322 281.663 224.123 281.369 224.826 280.902C228.299 278.586 227.828 270.973 227.828 270.973C227.99 273.717 228.488 276.43 229.311 279.051C229.917 280.402 230.893 281.553 232.125 282.372C232.629 282.706 233.202 282.922 233.802 283.005C234.401 283.088 235.011 283.035 235.587 282.85C236.163 282.665 236.691 282.353 237.13 281.937C237.569 281.521 237.909 281.012 238.125 280.446V280.424L244.098 294.848C244.522 295.907 244.688 297.052 244.58 298.188C244.473 299.324 244.096 300.418 243.481 301.379C226.796 300.993 210.109 302.028 193.6 304.474C72.3754 304.474 105.977 304.485 99.8964 304.474L99.8897 304.476ZM382.605 260.649C386.265 277.362 388.591 294.339 389.561 311.421C389.969 319.362 389.943 328.025 386.662 335.446C379.1 351.653 356.747 355.156 338.868 355.499C338.64 355.511 338.426 355.609 338.269 355.773C338.114 355.939 338.028 356.158 338.028 356.384C338.028 356.611 338.114 356.83 338.269 356.996C338.426 357.16 338.641 357.258 338.868 357.27C347.008 357.101 353.114 365.469 355.08 372.611C356.058 376.755 356.435 381.019 356.202 385.271C356.045 390.637 354.653 395.894 352.133 400.634C350.673 403.1 348.657 405.191 346.247 406.741C343.836 408.291 341.098 409.258 338.248 409.565C334.916 409.825 331.575 409.769 328.232 409.751C299.216 409.596 203.807 409.839 177.101 409.585C168.44 409.502 160.828 407.341 154.097 400.354C150.172 396.076 147.191 391.02 145.346 385.515C139.442 368.209 139.788 349.381 146.322 332.302C147.946 327.917 150.514 323.941 153.843 320.657C157.172 317.372 161.181 314.858 165.588 313.292C169.772 311.591 174.089 310.234 178.494 309.235C208.203 302.488 231.912 302.504 261.831 303.711C273.022 325.494 284.239 341.605 308.645 342.754C318.866 343.412 329.764 341.798 337.984 335.271C344.466 329.56 349.158 322.095 351.492 313.777C354.272 304.485 359.054 276.692 359.511 250.065C359.736 236.797 358.443 224.453 349.118 214.986C344.895 210.807 339.23 208.407 333.29 208.281C327.35 208.156 321.589 210.315 317.194 214.313C312.866 218.3 310.095 223.695 309.377 229.535C309.013 232.799 308.885 236.084 308.993 239.366C309.359 273.495 309.576 269.232 308.809 290.324C307.539 280.391 305.097 270.643 301.534 261.284C301.503 250.513 301.362 239.518 304.003 228.972C307.31 215.733 316.344 202.425 330.426 199.293C345.503 195.938 358.638 207.662 366.53 219.182C375.003 231.539 379.493 246.124 382.605 260.649ZM424.413 236.765C423.701 239.619 420.482 240.436 417.973 240.907C405.138 242.882 392.09 243.026 379.217 241.334C373.34 223.85 361.964 204.4 344.513 198.447C341.014 197.253 337.309 196.784 333.623 197.071C329.937 197.357 326.348 198.392 323.075 200.112C322.999 199.522 320.769 180.951 319.77 172.252C321.528 172.34 323.274 171.919 324.799 171.04C326.728 169.777 328.318 168.06 329.43 166.039C330.542 164.019 331.143 161.757 331.178 159.451C331.176 159.258 331.111 159.07 330.995 158.916C330.878 158.762 330.715 158.65 330.53 158.596C327.772 157.943 325.173 156.747 322.883 155.078C320.594 153.408 318.661 151.299 317.197 148.873C316.998 147.294 317.212 145.691 317.818 144.22C318.425 142.749 319.403 141.461 320.657 140.481C322.559 139.374 324.722 138.792 326.923 138.794C329.124 138.796 331.285 139.382 333.186 140.492C344.065 146.349 354.905 158.869 359.796 174.179C359.849 174.342 359.946 174.487 360.078 174.596C360.209 174.706 360.369 174.775 360.538 174.798C360.708 174.82 360.88 174.793 361.035 174.721C361.19 174.649 361.322 174.534 361.414 174.39C364.555 169.063 371.752 169.351 376.053 172.759C378.681 174.974 380.774 177.756 382.172 180.895C385.802 188.699 388.269 196.993 389.494 205.513C389.586 206.136 390.337 206.244 390.793 206.042C401.503 201.4 414.342 205.232 418.841 213.896C419.54 215.331 419.851 216.923 419.744 218.515C419.637 220.107 419.115 221.644 418.231 222.972C415.998 225.932 413.149 228.371 409.882 230.123C409.713 230.24 409.59 230.411 409.533 230.607C409.477 230.804 409.489 231.014 409.57 231.203C409.648 231.391 409.789 231.547 409.968 231.645C410.147 231.743 410.354 231.777 410.555 231.741C413.514 230.948 416.635 230.991 419.571 231.867C421.7 232.491 425.113 233.947 424.413 236.761V236.765Z" fill="#333333"/>
<path d="M335.008 355.358C307.086 355.295 247.552 355.614 220.201 360.315C219.079 360.507 219.555 362.213 220.67 362.022C235.738 359.913 250.911 358.643 266.119 358.219C274.832 357.864 334.497 357.128 335.006 357.128C335.186 357.135 335.365 357.087 335.518 356.992C335.671 356.896 335.792 356.757 335.865 356.592C335.925 356.454 335.948 356.303 335.932 356.153C335.917 356.003 335.864 355.86 335.778 355.737C335.692 355.613 335.576 355.514 335.441 355.447C335.306 355.381 335.156 355.35 335.006 355.358H335.008Z" fill="#333333"/>
<path d="M154.288 339.233C153.561 342.94 153.365 346.731 153.704 350.493C153.807 351.615 155.58 351.629 155.475 350.493C155.137 346.89 155.312 343.257 155.995 339.702C156.211 338.589 154.503 338.114 154.288 339.233Z" fill="#333333"/>
<path d="M361.111 367.443C360.998 367.305 360.839 367.211 360.664 367.178C360.488 367.145 360.306 367.176 360.151 367.264C359.974 367.304 359.819 367.409 359.717 367.558C359.614 367.708 359.572 367.89 359.599 368.069C360.647 380.518 365.66 392.302 373.902 401.689C382.144 411.077 393.179 417.574 405.387 420.226C405.526 420.257 405.671 420.255 405.809 420.219C405.948 420.184 406.075 420.116 406.182 420.02C406.288 419.925 406.37 419.806 406.422 419.673C406.473 419.54 406.491 419.396 406.475 419.254C406.455 419.064 406.375 418.886 406.246 418.745C406.04 418.516 361.306 367.681 361.111 367.443ZM361.706 370.796L403.085 417.827C392.313 414.952 382.634 408.951 375.269 400.581C367.905 392.21 363.185 381.846 361.706 370.796Z" fill="#333333"/>
<path d="M317.827 335.619C320.421 334.867 322.909 333.79 325.232 332.412C325.429 332.29 325.57 332.096 325.626 331.872C325.681 331.647 325.647 331.409 325.529 331.21C325.412 331.01 325.222 330.864 324.998 330.803C324.775 330.743 324.537 330.771 324.334 330.884C322.135 332.163 319.793 333.179 317.356 333.911C317.138 333.981 316.955 334.133 316.846 334.334C316.737 334.536 316.71 334.772 316.77 334.993C316.83 335.214 316.974 335.403 317.172 335.52C317.369 335.637 317.604 335.672 317.827 335.619Z" fill="#333333"/>
<path d="M216.6 26.5826C218.656 27.6809 221.05 27.9661 223.307 27.3814C229.08 25.9184 227.915 18.1367 227.931 13.6624C227.745 11.0612 228.347 8.4642 229.659 6.21054C230.256 5.11598 231.261 4.30152 232.456 3.94434C233.651 3.58716 234.938 3.71615 236.038 4.30326C241.116 7.31228 239.323 14.0618 239.756 19.6782C239.883 22.2171 240.868 24.6376 242.552 26.5422C243.783 27.7161 245.358 28.4645 247.046 28.6778C248.733 28.891 250.445 28.5578 251.929 27.7269C252.917 27.1772 253.771 26.4255 254.445 25.5167C255.769 23.3783 256.455 20.9056 256.421 18.3902C256.375 16.0259 256.509 13.6614 256.823 11.3176C257.092 9.23605 258.123 7.32824 259.718 5.96372C263.342 3.67498 267.618 6.78946 268.137 11.3871C268.828 16.8532 268.891 22.3798 268.323 27.8593C268.202 28.9813 269.974 28.9813 270.096 27.8593C270.767 21.5581 270.537 15.1932 269.411 8.95703C267.883 4.5097 262.702 1.72731 258.681 4.53662C253.347 8.83362 255.392 15.9175 254.263 21.5541C254.091 22.8937 253.487 24.1405 252.542 25.1054C251.597 26.0703 250.363 26.7005 249.027 26.9002C247.691 27.1 246.327 26.8585 245.141 26.2123C243.955 25.5662 243.012 24.5506 242.456 23.32C241.533 21.036 241.157 18.5678 241.358 16.1127C241.742 12.9359 241.399 9.71344 240.355 6.68849C239.886 5.58619 239.181 4.60021 238.289 3.80003C237.397 2.99985 236.341 2.40492 235.195 2.05715C233.918 1.81816 232.599 1.9559 231.4 2.45355C230.2 2.9512 229.171 3.78727 228.438 4.85974C224.848 9.98472 226.836 15.4328 226.019 21.0582C225.945 22.334 225.501 23.5606 224.74 24.5878C223.446 25.5675 221.833 26.0309 220.216 25.8878C218.598 25.7447 217.092 25.0054 215.989 23.8136C214.475 21.9386 213.609 19.6232 213.521 17.2144C213.325 12.8957 213.569 8.56825 214.248 4.29877C214.387 3.17684 212.615 3.17684 212.478 4.29877C212.093 7.2975 211.819 10.3093 211.654 13.3281C211.506 15.9085 211.762 18.4979 212.413 20.9998C213.089 23.3051 214.576 25.2881 216.6 26.5826Z" fill="#333333"/>
<path d="M257.342 116.552L280.509 93.0637C281.31 92.2515 280.061 90.9994 279.257 91.8116L256.087 115.3C255.962 115.473 255.903 115.685 255.921 115.897C255.933 116.056 255.988 116.209 256.079 116.34C256.17 116.471 256.294 116.575 256.439 116.642C256.584 116.709 256.744 116.736 256.902 116.72C257.061 116.704 257.213 116.646 257.342 116.552Z" fill="#333333"/>
<path d="M255.935 124.377C255.945 124.6 256.038 124.812 256.196 124.97C256.355 125.128 256.566 125.221 256.789 125.232H296.524C296.735 125.199 296.928 125.092 297.067 124.929C297.206 124.767 297.281 124.559 297.28 124.345C297.28 124.132 297.204 123.925 297.065 123.763C296.927 123.6 296.735 123.493 296.524 123.459H256.789C256.555 123.47 256.335 123.572 256.175 123.744C256.015 123.915 255.929 124.143 255.935 124.377Z" fill="#333333"/>
<path d="M257.104 132.749C256.931 132.624 256.719 132.564 256.507 132.581C256.294 132.598 256.094 132.69 255.943 132.84C255.792 132.991 255.7 133.191 255.683 133.403C255.665 133.616 255.725 133.828 255.849 134.001C263.518 141.913 271.322 149.693 279.257 157.337C279.386 157.431 279.538 157.489 279.697 157.505C279.856 157.52 280.016 157.493 280.161 157.426C280.306 157.359 280.43 157.254 280.521 157.123C280.612 156.992 280.666 156.839 280.678 156.679C280.694 156.467 280.634 156.255 280.509 156.083C272.846 148.167 265.043 140.388 257.104 132.749Z" fill="#333333"/>
<path d="M36.5925 266.447C36.5832 266.223 36.4901 266.011 36.3318 265.853C36.1734 265.695 35.9614 265.601 35.7376 265.592H0.838838C0.669829 265.602 0.507043 265.659 0.369635 265.758C0.232228 265.857 0.125916 265.993 0.0632122 266.15C0.00050797 266.307 -0.0159793 266.479 0.015689 266.646C0.0473572 266.812 0.125863 266.966 0.24197 267.089C0.39904 267.253 0.612208 267.351 0.838838 267.363H35.7376C35.9715 267.352 36.192 267.25 36.3518 267.079C36.5117 266.908 36.5981 266.681 36.5925 266.447Z" fill="#333333"/>
<path d="M35.1116 272.678L4.18891 303.601C4.03551 303.769 3.95291 303.991 3.95825 304.218C3.9636 304.446 4.05648 304.663 4.21761 304.824C4.37874 304.985 4.59574 305.078 4.82355 305.084C5.05136 305.089 5.27248 305.006 5.44099 304.853C13.6042 296.97 34.1176 276.253 36.3614 273.93C36.5106 273.761 36.5897 273.542 36.5828 273.317C36.5759 273.091 36.4834 272.877 36.3242 272.718C36.165 272.558 35.9509 272.465 35.7257 272.458C35.5004 272.451 35.2808 272.529 35.1116 272.678Z" fill="#333333"/>
<path d="M42.1865 272.741C41.9627 272.751 41.7507 272.844 41.5921 273.002C41.4335 273.16 41.3398 273.372 41.3293 273.596V305.358C41.3617 305.569 41.469 305.762 41.6317 305.901C41.7945 306.04 42.0018 306.115 42.2157 306.114C42.4293 306.114 42.6361 306.038 42.7987 305.9C42.9612 305.761 43.0688 305.569 43.102 305.358V273.596C43.0915 273.362 42.9898 273.142 42.8186 272.982C42.6475 272.822 42.4206 272.736 42.1865 272.741Z" fill="#333333"/>
<path d="M229.513 255.472C229.59 253.903 230.227 252.413 231.308 251.274C232.091 250.446 230.841 249.192 230.056 250.022C228.651 251.5 227.826 253.435 227.731 255.472C227.682 256.61 229.455 256.61 229.513 255.472Z" fill="#333333"/>
<path d="M219.611 250.776C220.179 249.535 221.188 248.55 222.443 248.014C223.484 247.587 223.028 245.873 221.974 246.306C220.277 246.968 218.89 248.243 218.087 249.878C217.589 250.906 219.115 251.806 219.611 250.776Z" fill="#333333"/>
<path d="M44.0758 210.463V127.458C44.0758 127.223 43.9824 126.997 43.8162 126.831C43.65 126.665 43.4246 126.571 43.1895 126.571C42.9544 126.571 42.729 126.665 42.5628 126.831C42.3965 126.997 42.3032 127.223 42.3032 127.458V210.463C42.3136 210.69 42.4117 210.905 42.5769 211.062C42.7421 211.219 42.9617 211.305 43.1895 211.304C43.4168 211.304 43.6354 211.217 43.8 211.06C43.9646 210.904 44.0626 210.69 44.0736 210.463H44.0758Z" fill="#333333"/>
<path d="M45.5164 225.355C45.0968 224.309 43.3847 224.765 43.811 225.824L74.6462 302.385C75.068 303.428 76.7801 302.973 76.3538 301.913C34.1579 197.116 48.687 233.083 45.5141 225.355H45.5164Z" fill="#333333"/>
<path d="M110.508 28.3777C111.854 28.4248 117.078 28.3911 138.805 28.3911C138.958 28.3835 139.106 28.3376 139.237 28.2577C139.367 28.1778 139.475 28.0664 139.552 27.9337C139.628 27.801 139.669 27.6513 139.673 27.4983C139.676 27.3454 139.641 27.1941 139.57 27.0583L125.364 2.67646C125.28 2.53703 125.159 2.42358 125.014 2.34864C124.87 2.2737 124.707 2.24018 124.545 2.25179C124.382 2.2634 124.226 2.31967 124.093 2.41441C123.961 2.50915 123.857 2.63866 123.794 2.78865C123.08 3.92405 120.466 8.46114 109.637 27.0583C109.554 27.2003 109.513 27.3626 109.517 27.5269C109.522 27.6913 109.572 27.851 109.663 27.9883C109.753 28.1255 109.88 28.2346 110.03 28.3035C110.179 28.3723 110.344 28.398 110.508 28.3777ZM124.599 4.88442L137.263 26.614H111.937L124.599 4.88442Z" fill="#333333"/>
<path d="M85.2821 25.5818L107.577 3.27781C107.731 3.1093 107.813 2.88818 107.808 2.66037C107.802 2.43256 107.71 2.21556 107.548 2.05443C107.387 1.8933 107.17 1.80042 106.942 1.79507C106.715 1.78973 106.494 1.87233 106.325 2.02573L84.03 24.323C83.907 24.4473 83.8234 24.6051 83.7894 24.7767C83.7555 24.9483 83.7729 25.1261 83.8393 25.2879C83.8946 25.4226 83.9825 25.5415 84.095 25.634C84.2075 25.7265 84.3412 25.7897 84.4841 25.818C84.627 25.8462 84.7747 25.8386 84.914 25.7958C85.0532 25.753 85.1797 25.6764 85.2821 25.5728V25.5818Z" fill="#333333"/>
<path d="M42.9718 28.234C43.1952 28.2237 43.4067 28.1303 43.5648 27.9721C43.723 27.814 43.8164 27.6025 43.8267 27.3791V3.82755C43.8153 3.60049 43.7171 3.38651 43.5523 3.22984C43.3875 3.07317 43.1689 2.98581 42.9415 2.98581C42.7142 2.98581 42.4955 3.07317 42.3308 3.22984C42.166 3.38651 42.0678 3.60049 42.0563 3.82755V27.3881C42.0663 27.6214 42.1681 27.8414 42.3396 27.9999C42.5112 28.1584 42.7384 28.2426 42.9718 28.234Z" fill="#333333"/>
<path d="M57.8419 17.109L74.7988 30.2333C74.9677 30.3939 75.1918 30.4834 75.4248 30.4834C75.6578 30.4834 75.8819 30.3939 76.0509 30.2333C76.1332 30.1512 76.1986 30.0536 76.2431 29.9462C76.2877 29.8388 76.3107 29.7236 76.3107 29.6073C76.3107 29.491 76.2877 29.3758 76.2431 29.2684C76.1986 29.161 76.1332 29.0634 76.0509 28.9813L58.634 15.5024C59.6908 14.6856 75.0142 2.82007 76.0509 2.02574C76.214 1.85817 76.3052 1.63355 76.3052 1.3997C76.3052 1.16585 76.214 0.941238 76.0509 0.773665C75.8833 0.610555 75.6587 0.519287 75.4248 0.519287C75.191 0.519287 74.9663 0.610555 74.7988 0.773665C69.4 4.95174 57.245 14.2795 56.6235 14.836C55.7035 15.812 57.2024 16.6198 57.8419 17.109Z" fill="#333333"/>
<path d="M357.999 15.5024L340.584 28.9813C340.46 29.1043 340.374 29.2617 340.34 29.4334C340.305 29.6052 340.323 29.7833 340.39 29.945C340.457 30.1068 340.571 30.2447 340.717 30.3413C340.864 30.4378 341.035 30.4885 341.21 30.4869C341.444 30.4871 341.669 30.3961 341.836 30.2333C341.836 30.2333 359.388 16.7275 360.012 16.1688C360.936 15.1927 359.43 14.3849 358.798 13.8958L341.836 0.773653C341.668 0.61262 341.443 0.522766 341.21 0.522766C340.977 0.522766 340.753 0.61262 340.584 0.773653C340.501 0.855475 340.436 0.952949 340.391 1.06042C340.346 1.16789 340.323 1.28321 340.323 1.39969C340.323 1.51617 340.346 1.63149 340.391 1.73896C340.436 1.84643 340.501 1.94391 340.584 2.02573L357.999 15.5024Z" fill="#333333"/>
<path d="M311.371 24.9603C313.936 24.4205 316.239 23.0204 317.899 20.9921C319.559 18.9637 320.476 16.4291 320.497 13.8083C320.5 12.0512 320.095 10.3174 319.314 8.74331C318.534 7.16918 317.399 5.79757 315.998 4.73632C313.888 3.13294 311.285 2.31708 308.637 2.42975C305.99 2.54242 303.465 3.57655 301.498 5.35338C299.532 7.12938 298.247 9.53584 297.865 12.1578C297.483 14.7798 298.027 17.4529 299.405 19.7163C300.632 21.7014 302.434 23.2661 304.571 24.2027C306.709 25.1394 309.08 25.4036 311.371 24.9603ZM300.886 8.88747C301.534 7.80471 302.389 6.86018 303.402 6.10781C304.415 5.35544 305.566 4.80997 306.79 4.50253C308.014 4.19509 309.286 4.13171 310.534 4.31601C311.783 4.50031 312.982 4.92867 314.065 5.57665C315.148 6.22462 316.093 7.07952 316.845 8.09252C317.597 9.10553 318.143 10.2568 318.45 11.4806C318.758 12.7044 318.821 13.9768 318.637 15.2251C318.452 16.4734 318.024 17.6732 317.376 18.756C316.067 20.9427 313.944 22.52 311.472 23.1409C309 23.7618 306.383 23.3754 304.197 22.0668C302.01 20.7581 300.433 18.6344 299.812 16.1628C299.191 13.6912 299.577 11.0742 300.886 8.88747Z" fill="#333333"/>
</svg>
