<svg width="9" height="24" viewBox="0 0 9 24" fill="none" xmlns="http://www.w3.org/2000/svg">
<path d="M2.25 2.40322C2.25 0.55597 4.125 -0.598552 5.625 0.325073C6.32115 0.753721 6.75 1.54591 6.75 2.40322C6.75 4.25047 4.875 5.40499 3.375 4.48137C2.67885 4.05272 2.25 3.26053 2.25 2.40322ZM0 9.60215C0 8.71728 0.670313 8.00239 1.5 8.00239H4.5C5.32969 8.00239 6 8.71728 6 9.60215V20.8005H7.5C8.32969 20.8005 9 21.5154 9 22.4002C9 23.2851 8.32969 24 7.5 24H1.5C0.670313 24 0 23.2851 0 22.4002C0 21.5154 0.670313 20.8005 1.5 20.8005H3V11.2019H1.5C0.670313 11.2019 0 10.487 0 9.60215Z" fill="#333333"/>
</svg>
