<svg width="33" height="33" viewBox="0 0 33 33" fill="none" xmlns="http://www.w3.org/2000/svg">
<path fill-rule="evenodd" clip-rule="evenodd" d="M2.75 16.5C2.75 8.90608 8.90608 2.75 16.5 2.75C24.0938 2.75 30.25 8.90608 30.25 16.5C30.25 24.0938 24.0938 30.25 16.5 30.25C8.90608 30.25 2.75 24.0938 2.75 16.5ZM16.5 0C7.3873 0 0 7.3873 0 16.5C0 25.6127 7.3873 33 16.5 33C25.6127 33 33 25.6127 33 16.5C33 7.3873 25.6127 0 16.5 0ZM19.25 16.5C19.25 18.0188 18.0188 19.25 16.5 19.25C14.9812 19.25 13.75 18.0188 13.75 16.5C13.75 14.9812 14.9812 13.75 16.5 13.75C18.0188 13.75 19.25 14.9812 19.25 16.5ZM24.75 19.25C26.2688 19.25 27.5 18.0188 27.5 16.5C27.5 14.9812 26.2688 13.75 24.75 13.75C23.2312 13.75 22 14.9812 22 16.5C22 18.0188 23.2312 19.25 24.75 19.25ZM11 16.5C11 18.0188 9.76878 19.25 8.25 19.25C6.73122 19.25 5.5 18.0188 5.5 16.5C5.5 14.9812 6.73122 13.75 8.25 13.75C9.76878 13.75 11 14.9812 11 16.5Z" fill="black"/>
</svg>
