<svg width="25" height="25" viewBox="0 0 25 25" fill="none" xmlns="http://www.w3.org/2000/svg">
<path fill-rule="evenodd" clip-rule="evenodd" d="M8.04509 6.44413C8.4872 6.88623 8.4872 7.60302 8.04509 8.04512L3.41164 12.6786L8.09734 17.3642C8.53944 17.8063 8.53945 18.5231 8.09735 18.9652C7.65525 19.4073 6.93846 19.4073 6.49635 18.9652L1.01014 13.4791C0.797834 13.2668 0.67856 12.9788 0.678558 12.6786C0.678557 12.3783 0.797829 12.0904 1.01014 11.8781L6.4441 6.44413C6.8862 6.00202 7.60299 6.00202 8.04509 6.44413Z" fill="#333333"/>
<path fill-rule="evenodd" clip-rule="evenodd" d="M17.259 6.39189C17.7011 5.94978 18.4179 5.94977 18.86 6.39187L24.3463 11.8781C24.5586 12.0904 24.6779 12.3783 24.6779 12.6786C24.6779 12.9788 24.5586 13.2668 24.3463 13.4791L18.9127 18.9127C18.4706 19.3548 17.7538 19.3548 17.3117 18.9127C16.8696 18.4706 16.8696 17.7538 17.3117 17.3117L21.9448 12.6786L17.259 7.99288C16.8169 7.55078 16.8169 6.83399 17.259 6.39189Z" fill="#333333"/>
<path fill-rule="evenodd" clip-rule="evenodd" d="M1.01014 1.01017C1.45224 0.568063 2.16903 0.568063 2.61113 1.01017L24.347 22.746C24.7891 23.1881 24.7891 23.9049 24.347 24.347C23.9049 24.7891 23.1881 24.7891 22.746 24.347L1.01014 2.61116C0.568033 2.16906 0.568033 1.45227 1.01014 1.01017Z" fill="#333333"/>
</svg>
