<svg width="449" height="449" viewBox="0 0 449 449" fill="none" xmlns="http://www.w3.org/2000/svg">
<path d="M225.287 154.602C225.498 151.756 225.103 148.898 224.127 146.217C223.01 143.675 221.177 141.514 218.85 140C216.523 138.485 213.805 137.682 211.029 137.69H76.6108C74.7298 137.62 72.8538 137.926 71.0926 138.59C69.3314 139.254 67.7203 140.263 66.3535 141.557C64.9868 142.851 63.892 144.405 63.1331 146.128C62.3741 147.85 61.9664 149.707 61.9337 151.589V212.238C61.9085 215.073 62.7248 217.852 64.2793 220.224C65.8338 222.595 68.0567 224.452 70.6668 225.56C74.4163 227.131 78.9803 226.63 82.9744 226.63H211.173C214.791 226.599 218.262 225.193 220.882 222.697C223.502 220.201 225.074 216.802 225.28 213.189C225.312 212.595 225.287 218.388 225.287 154.602ZM214.364 181.08C214.011 182.224 213.415 183.278 212.615 184.169C211.815 185.06 210.832 185.767 209.732 186.241C204.428 188.572 198.358 185.951 193.103 188.341C192.086 188.795 191.212 189.516 190.573 190.429C189.934 191.341 189.556 192.41 189.477 193.521C189.399 194.632 189.624 195.743 190.128 196.736C190.632 197.729 191.397 198.566 192.34 199.159C197.687 202.396 206.721 198.133 211.887 204.555C214.691 208.567 211.911 213.755 207.466 215.283C201.231 216.412 194.866 216.643 188.566 215.967C187.444 215.851 187.444 214.076 188.566 214.197C194.046 214.74 199.57 214.677 205.036 214.011C209.656 213.49 212.744 209.202 210.459 205.589C209.093 203.998 207.186 202.967 205.106 202.697C202.761 202.39 200.397 202.255 198.033 202.295C195.517 202.336 193.044 201.649 190.909 200.319C189.211 199.062 188.082 197.183 187.769 195.095C187.456 193.006 187.986 190.878 189.241 189.18C190.182 188.105 191.333 187.234 192.624 186.622C193.915 186.01 195.317 185.669 196.745 185.621C201.697 185.098 209.014 187.147 212.12 181.903C212.709 180.803 212.839 179.515 212.483 178.32C212.126 177.124 211.311 176.118 210.215 175.522C207.949 174.24 205.362 173.64 202.763 173.794C198.289 173.78 190.52 174.941 189.042 169.172C188.456 166.913 188.739 164.516 189.834 162.456C191.119 160.426 193.104 158.937 195.412 158.271C197.912 157.607 200.502 157.35 203.084 157.51C206.104 157.654 209.115 157.959 212.115 158.336C213.237 158.473 213.237 160.245 212.115 160.106C207.845 159.44 203.518 159.196 199.2 159.379C196.791 159.468 194.476 160.334 192.601 161.848C191.408 162.95 190.669 164.456 190.525 166.073C190.382 167.691 190.845 169.304 191.824 170.599C196.509 174.07 205.534 169.766 211.554 174.299C212.64 175.025 213.487 176.057 213.987 177.264C214.487 178.47 214.618 179.798 214.364 181.08ZM169.024 200.067C168.674 200.395 171.234 200.59 128.291 200.292C128.058 200.288 127.834 200.194 127.669 200.028C127.504 199.863 127.41 199.639 127.407 199.405V159.24C127.411 159.007 127.505 158.784 127.67 158.619C127.835 158.454 128.058 158.36 128.291 158.356H168.457C168.692 158.356 168.919 158.449 169.087 158.614C169.254 158.78 169.351 159.005 169.354 159.24C169.639 200.94 169.518 199.704 169.024 200.067ZM77.3355 188.06V170.558C77.3355 170.323 77.4282 170.096 77.5936 169.928C77.7591 169.76 77.9839 169.664 78.2196 169.661H95.7105C95.9486 169.661 96.1769 169.755 96.3452 169.924C96.5135 170.092 96.6081 170.32 96.6081 170.558C96.7382 189.03 96.7652 188.359 96.2827 188.718C95.9506 189.027 97.3508 189.07 78.2308 188.942C77.9959 188.942 77.7705 188.849 77.6031 188.684C77.4357 188.519 77.3397 188.295 77.3355 188.06Z" fill="white"/>
<path d="M225.343 274.501C224.935 273.559 224.214 272.786 223.302 272.314C222.391 271.841 221.344 271.698 220.339 271.907C219.793 272.097 219.316 272.445 218.969 272.907C218.622 273.369 218.42 273.924 218.389 274.501H225.343Z" fill="#E3F1FF"/>
<path d="M257.26 308.378C255.016 302.865 252.705 297.384 250.427 291.877C249.42 296.814 246.132 298.037 243.57 296.365C242.332 295.551 241.354 294.398 240.754 293.044C240.166 291.457 239.804 289.795 239.679 288.107L239.262 285.377C239.006 290.069 238.602 295.218 233.93 295.75C233.93 296.199 233.91 296.648 233.881 297.096C233.865 298.697 233.356 300.255 232.422 301.556C231.488 302.856 230.176 303.837 228.664 304.364C227.888 304.495 227.091 304.419 226.354 304.143C225.616 303.867 224.965 303.402 224.466 302.793C223.556 301.625 222.908 300.275 222.563 298.835C221.979 297.157 221.169 295.562 220.543 293.899C220.354 293.233 220.002 292.625 219.519 292.13C219.036 291.634 218.437 291.267 217.777 291.06C217.153 291.012 216.53 291.164 215.998 291.494C215.467 291.825 215.056 292.317 214.824 292.898C214.136 294.206 213.91 295.709 214.182 297.161C214.613 298.696 214.59 300.322 214.117 301.844C213.565 303.026 212.658 304.007 211.524 304.65C210.389 305.293 209.082 305.567 207.785 305.435C206.549 305.164 205.408 304.571 204.476 303.715C203.545 302.859 202.858 301.772 202.485 300.563C201.751 298.056 200.711 295.649 199.388 293.396C196.103 289.16 189.28 291.909 189.964 296.636C190.301 298.27 190.727 299.883 191.236 301.472C191.501 302.594 189.794 303.043 189.529 301.943C188.936 300.132 188.481 298.278 188.169 296.398C187.72 291.063 194.432 287.515 199.164 290.789C203.757 293.977 202.956 302.419 207.466 303.579C208.102 303.743 208.768 303.757 209.411 303.619C210.053 303.481 210.654 303.194 211.166 302.782C211.678 302.37 212.086 301.842 212.356 301.243C212.626 300.643 212.751 299.988 212.721 299.331C212.41 297.753 212.303 296.142 212.403 294.536C212.638 293.102 213.278 291.765 214.243 290.681C214.721 290.173 215.313 289.787 215.97 289.553C216.627 289.319 217.33 289.244 218.021 289.335C218.713 289.423 219.374 289.674 219.949 290.067C220.525 290.46 220.999 290.985 221.333 291.597C222.172 293.012 222.85 294.518 223.353 296.084C224.558 298.844 224.41 299.152 225.078 300.572C225.334 301.211 225.785 301.754 226.365 302.124C226.946 302.494 227.629 302.672 228.316 302.634C228.971 302.438 229.576 302.102 230.088 301.65C230.601 301.197 231.009 300.639 231.285 300.013C231.906 298.671 232.208 297.204 232.167 295.725V295.689C231.068 295.48 230.044 294.986 229.196 294.257C228.348 293.528 227.707 292.589 227.336 291.534C225.54 286.294 226.977 281.127 225.989 276.276H218.183C218.163 276.527 218.145 276.771 218.122 276.998C218.111 277.945 217.881 278.878 217.45 279.721C217.019 280.565 216.399 281.298 215.638 281.863C211.979 284.268 206.142 282.226 205.092 276.273H162.946L179.512 315.904C179.572 316.131 179.541 316.371 179.425 316.575C179.31 316.779 179.12 316.929 178.895 316.995C178.669 317.05 178.43 317.016 178.227 316.901C178.024 316.786 177.873 316.598 177.805 316.376L161.038 276.273C161.038 276.273 88.3934 276.296 87.0538 276.273C86.8848 276.264 86.722 276.206 86.5846 276.107C86.4472 276.009 86.3408 275.872 86.2781 275.715C86.2154 275.558 86.1989 275.386 86.2306 275.22C86.2623 275.054 86.3408 274.9 86.4569 274.777C86.6136 274.613 86.8272 274.515 87.0538 274.503C93.8953 274.384 64.6151 274.503 160.298 274.503L144.059 235.644C143.997 235.417 144.028 235.175 144.144 234.971C144.26 234.767 144.452 234.618 144.678 234.555C144.904 234.498 145.144 234.53 145.346 234.645C145.549 234.76 145.7 234.949 145.767 235.172L162.212 274.503H204.926C204.834 264.785 215.443 257.479 225.509 260.934C227.659 257.285 230.271 253.929 233.282 250.949C231.929 247.271 230.34 243.685 228.525 240.212C226.617 237.159 223.889 234.705 220.651 233.13C217.414 231.556 213.799 230.924 210.219 231.309H74.7237C73.2708 231.276 71.8332 231.611 70.5437 232.281C69.2542 232.951 68.1544 233.936 67.3459 235.143C66.5371 236.351 66.0451 237.742 65.9153 239.189C65.7856 240.637 66.0221 242.093 66.6032 243.425C66.9084 244.146 91.5101 302.888 91.5101 302.888C92.5629 305.935 93.8892 308.882 95.4727 311.69C97.2135 314.321 99.5808 316.477 102.362 317.966C105.143 319.454 108.25 320.228 111.404 320.217H195.264C216.314 315.842 235.6 315.207 256.914 315.375C257.472 314.302 257.792 313.122 257.851 311.914C257.911 310.707 257.709 309.501 257.26 308.378ZM120.927 289.155H141.254C141.447 289.16 141.633 289.225 141.786 289.342C141.939 289.459 142.052 289.621 142.107 289.806C142.347 290.421 146.146 300.175 147.802 304.438C147.88 304.604 147.889 304.794 147.829 304.967C147.769 305.141 147.643 305.283 147.479 305.365C147.156 305.643 148.877 305.877 126.622 305.558C126.429 305.554 126.243 305.488 126.09 305.372C125.936 305.256 125.823 305.094 125.767 304.909L120.074 290.277C120.041 290.146 120.037 290.009 120.064 289.876C120.09 289.743 120.147 289.618 120.229 289.51C120.311 289.402 120.416 289.314 120.537 289.252C120.658 289.191 120.792 289.158 120.927 289.155ZM132.027 259.761C131.966 259.909 131.86 260.036 131.725 260.122C131.589 260.208 131.43 260.251 131.269 260.243H103.578C103.442 260.24 103.309 260.207 103.188 260.145C103.068 260.084 102.962 259.996 102.88 259.889C102.798 259.781 102.741 259.656 102.714 259.523C102.687 259.39 102.691 259.253 102.725 259.121C102.725 259.121 107.415 246.376 109.167 241.06C109.22 240.891 109.321 240.74 109.458 240.628C109.595 240.515 109.762 240.444 109.939 240.425C110.057 240.415 110.176 240.427 110.289 240.461C110.513 240.531 131.74 258.531 131.918 258.758C132.061 258.877 132.153 259.047 132.173 259.233C132.194 259.418 132.141 259.604 132.027 259.752V259.761ZM208.204 258.293C205.171 267.19 186.215 264.026 181.754 254.221C181.339 253.332 181.118 252.365 181.106 251.384C181.094 250.403 181.291 249.431 181.684 248.532C182.744 246.654 184.504 245.272 186.58 244.689C197.102 241.583 210.868 250.478 208.204 258.284V258.293Z" fill="#E3F1FF"/>
<path d="M131.918 258.751C131.742 258.527 132.142 258.944 110.648 240.663C110.536 240.558 110.4 240.483 110.251 240.445C110.103 240.408 109.947 240.408 109.799 240.447C109.651 240.486 109.515 240.563 109.404 240.669C109.294 240.775 109.212 240.907 109.167 241.054C107.415 246.369 102.725 259.115 102.725 259.115C102.666 259.343 102.699 259.586 102.818 259.79C102.936 259.994 103.13 260.143 103.358 260.205C103.441 260.228 127.066 260.16 131.269 260.234C131.998 260.248 132.51 259.24 131.918 258.751Z" fill="#AEFFD3"/>
<path d="M147.802 304.438L142.107 289.806C142.051 289.622 141.938 289.46 141.785 289.344C141.632 289.227 141.447 289.161 141.254 289.155H120.927C120.691 289.159 120.466 289.255 120.301 289.423C120.136 289.591 120.043 289.817 120.043 290.053C120.043 290.277 121.558 294.092 125.767 304.907C125.823 305.092 125.936 305.254 126.089 305.37C126.243 305.487 126.429 305.552 126.622 305.556C148.387 305.868 147.144 305.65 147.479 305.363C147.643 305.281 147.768 305.139 147.829 304.966C147.889 304.794 147.879 304.604 147.802 304.438Z" fill="#AEFFD3"/>
<path d="M231.278 300.004C231.002 300.63 230.594 301.188 230.082 301.641C229.569 302.093 228.964 302.429 228.309 302.625C227.622 302.663 226.94 302.485 226.359 302.115C225.778 301.745 225.328 301.202 225.072 300.563C224.362 299.051 224.755 299.295 223.344 296.075C222.841 294.508 222.164 293.003 221.324 291.588C220.94 290.971 220.427 290.444 219.82 290.044C219.213 289.645 218.527 289.381 217.808 289.272C214.878 288.996 212.872 291.695 212.396 294.527C212.298 296.136 212.407 297.75 212.721 299.331C212.748 299.986 212.622 300.637 212.353 301.235C212.084 301.832 211.679 302.358 211.171 302.771C210.662 303.185 210.064 303.473 209.424 303.614C208.783 303.754 208.119 303.742 207.484 303.579C202.996 302.434 203.737 293.959 199.182 290.789C194.42 287.484 187.752 291.083 188.187 296.398C188.499 298.279 188.954 300.132 189.547 301.943C189.811 303.051 191.519 302.583 191.252 301.472C190.742 299.884 190.318 298.27 189.982 296.636C189.291 291.938 195.948 289.265 199.287 293.27C200.68 295.549 201.758 298.005 202.492 300.572C202.865 301.78 203.553 302.867 204.484 303.723C205.415 304.579 206.556 305.173 207.792 305.443C209.089 305.576 210.396 305.302 211.531 304.659C212.665 304.015 213.571 303.035 214.124 301.853C214.597 300.331 214.62 298.705 214.189 297.17C213.916 295.717 214.142 294.215 214.831 292.907C215.062 292.325 215.474 291.833 216.005 291.503C216.536 291.172 217.16 291.02 217.783 291.069C218.444 291.275 219.043 291.643 219.526 292.138C220.009 292.634 220.361 293.242 220.55 293.908C221.178 295.57 221.986 297.166 222.57 298.844C222.915 300.285 223.564 301.633 224.472 302.802C224.973 303.41 225.624 303.874 226.361 304.15C227.098 304.426 227.895 304.503 228.671 304.373C230.178 303.998 231.482 303.055 232.31 301.741C233.461 299.967 234.029 297.878 233.937 295.766C233.348 295.837 232.751 295.815 232.169 295.701V295.736C232.205 297.209 231.9 298.669 231.278 300.004Z" fill="#AEFFD3"/>
<path d="M202.651 247.594C196.323 243.363 185.227 242.061 181.684 248.523C181.291 249.422 181.095 250.394 181.107 251.375C181.119 252.356 181.339 253.323 181.754 254.212C186.241 264.051 205.184 267.143 208.204 258.284C209.688 253.942 206.005 249.838 202.651 247.594Z" fill="#AEFFD3"/>
<path d="M160.426 130.678C157.284 124.934 149.613 112.103 149.141 111.311C149.061 111.181 148.949 111.073 148.815 110.999C148.681 110.924 148.531 110.885 148.377 110.885C148.224 110.885 148.074 110.924 147.94 110.999C147.806 111.073 147.694 111.181 147.613 111.311C144.265 116.943 136.787 129.879 136.329 130.678C136.254 130.813 136.215 130.966 136.216 131.12C136.217 131.275 136.258 131.426 136.335 131.56C136.412 131.695 136.523 131.806 136.656 131.885C136.788 131.964 136.94 132.008 137.094 132.011H159.661C159.813 132.002 159.961 131.956 160.09 131.875C160.22 131.795 160.328 131.684 160.404 131.552C160.48 131.419 160.522 131.27 160.526 131.118C160.529 130.965 160.495 130.814 160.426 130.678Z" fill="#AEFFD3"/>
<path d="M168.461 158.345H128.296C128.063 158.348 127.84 158.443 127.675 158.608C127.51 158.773 127.415 158.996 127.412 159.229V199.394C127.415 199.628 127.509 199.851 127.674 200.017C127.839 200.182 128.062 200.277 128.296 200.281C170.153 200.579 168.769 200.442 169.134 199.962C169.466 199.612 169.659 202.168 169.359 159.225C169.354 158.99 169.257 158.766 169.089 158.601C168.922 158.437 168.696 158.345 168.461 158.345Z" fill="#AEFFD3"/>
<path d="M95.7106 169.683H78.2197C77.984 169.687 77.7591 169.783 77.5937 169.951C77.4283 170.119 77.3355 170.345 77.3356 170.581V188.083C77.339 188.316 77.4333 188.539 77.5984 188.704C77.7634 188.869 77.9863 188.963 78.2197 188.967C96.7046 189.099 96.018 189.119 96.3747 188.65C96.6911 188.316 96.7338 189.75 96.5991 170.592C96.6006 170.474 96.5788 170.357 96.5349 170.247C96.491 170.137 96.426 170.038 96.3434 169.953C96.2609 169.869 96.1625 169.801 96.0539 169.755C95.9453 169.709 95.8286 169.684 95.7106 169.683Z" fill="#AEFFD3"/>
<path d="M206.495 117.85C204.299 117.079 201.955 116.828 199.647 117.116C197.338 117.404 195.128 118.223 193.189 119.51C191.251 120.796 189.637 122.514 188.475 124.53C187.312 126.545 186.633 128.803 186.49 131.125C186.49 131.36 186.583 131.587 186.749 131.755C186.914 131.923 187.139 132.019 187.375 132.022H215.638C215.759 132.032 215.88 132.016 215.993 131.975C216.107 131.933 216.21 131.868 216.296 131.782C216.381 131.697 216.447 131.593 216.488 131.48C216.53 131.366 216.546 131.245 216.536 131.125C216.337 128.174 215.281 125.347 213.497 122.988C211.713 120.63 209.279 118.844 206.495 117.85Z" fill="#AEFFD3"/>
<path d="M190.909 200.319C193.044 201.649 195.517 202.336 198.033 202.295C200.397 202.255 202.761 202.39 205.106 202.697C207.186 202.966 209.093 203.999 210.459 205.589C212.748 209.211 209.64 213.492 205.036 214.011C199.57 214.678 194.046 214.741 188.566 214.197C187.444 214.076 187.444 215.851 188.566 215.967C194.867 216.643 201.23 216.412 207.466 215.283C211.913 213.757 214.691 208.567 211.887 204.555C206.726 198.158 197.625 202.374 192.34 199.145C191.393 198.556 190.624 197.719 190.117 196.726C189.61 195.732 189.384 194.619 189.462 193.506C189.54 192.394 189.921 191.323 190.563 190.411C191.204 189.498 192.083 188.778 193.103 188.327C198.358 185.938 204.428 188.552 209.732 186.227C210.832 185.754 211.816 185.047 212.615 184.156C213.415 183.265 214.011 182.211 214.364 181.066C214.614 179.79 214.482 178.467 213.984 177.265C213.486 176.063 212.644 175.035 211.563 174.31C205.644 169.854 196.411 174 191.833 170.61C190.854 169.315 190.391 167.702 190.534 166.085C190.678 164.467 191.417 162.961 192.61 161.859C194.485 160.345 196.8 159.479 199.209 159.391C203.527 159.208 207.853 159.452 212.124 160.118C213.246 160.257 213.246 158.484 212.124 158.347C209.125 157.963 206.112 157.688 203.093 157.521C200.511 157.361 197.921 157.618 195.421 158.282C193.111 158.944 191.123 160.428 189.834 162.456C188.738 164.513 188.452 166.905 189.033 169.163C190.511 174.932 198.28 173.771 202.754 173.785C205.353 173.631 207.94 174.231 210.206 175.513C211.301 176.11 212.116 177.116 212.473 178.311C212.83 179.506 212.7 180.794 212.111 181.894C209.005 187.138 201.688 185.09 196.736 185.612C194.198 185.739 191.778 186.725 189.874 188.408C189.093 189.226 188.496 190.201 188.121 191.269C187.746 192.336 187.603 193.47 187.701 194.597C187.799 195.724 188.135 196.817 188.689 197.803C189.242 198.79 189.998 199.647 190.909 200.319Z" fill="#AEFFD3"/>
<path d="M168.461 96.9348C168.699 96.9348 168.927 96.8402 169.096 96.6719C169.264 96.5036 169.359 96.2753 169.359 96.0373V55.8721C169.355 55.6364 169.259 55.4116 169.091 55.2461C168.923 55.0807 168.697 54.988 168.461 54.988H128.296C128.063 54.9915 127.84 55.0858 127.675 55.2508C127.51 55.4159 127.415 55.6387 127.412 55.8721V96.0373C127.412 96.273 127.505 96.4993 127.67 96.6672C127.835 96.8351 128.06 96.9313 128.296 96.9348H168.461ZM129.178 95.1644V56.7697H167.575V95.1711L129.176 95.1644H129.178Z" fill="#AEFFD3"/>
<path d="M225.985 276.271C225.839 275.659 225.624 275.065 225.343 274.501H218.387C218.285 275.087 218.217 275.678 218.181 276.271H225.985Z" fill="#AEFFD3"/>
<path d="M204.926 274.501H162.207L145.762 235.17C145.721 235.032 145.647 234.905 145.546 234.801C145.445 234.698 145.321 234.62 145.184 234.574C145.047 234.529 144.9 234.517 144.758 234.541C144.615 234.564 144.48 234.621 144.364 234.708C144.226 234.816 144.124 234.962 144.069 235.128C144.013 235.294 144.009 235.473 144.055 235.641L160.302 274.501H87.065C86.896 274.51 86.7332 274.568 86.5958 274.667C86.4584 274.765 86.3521 274.901 86.2893 275.059C86.2266 275.216 86.2102 275.388 86.2418 275.554C86.2735 275.72 86.352 275.874 86.4681 275.997C86.6252 276.161 86.8383 276.26 87.065 276.271C88.4113 276.294 161.05 276.271 161.05 276.271L177.811 316.385C177.878 316.608 178.028 316.798 178.231 316.913C178.434 317.028 178.673 317.061 178.9 317.004C179.125 316.939 179.316 316.789 179.431 316.585C179.547 316.381 179.577 316.14 179.517 315.913L162.946 276.282H205.092C204.989 275.694 204.934 275.098 204.926 274.501Z" fill="#AEFFD3"/>
<path d="M210.253 66.3398H192.751C192.517 66.3428 192.293 66.4371 192.127 66.6027C191.962 66.7683 191.867 66.992 191.865 67.2262V84.7283C191.868 84.9621 191.963 85.1853 192.128 85.3504C192.294 85.5155 192.517 85.6095 192.751 85.6124C211.247 85.7448 210.547 85.765 210.906 85.296C211.22 84.9617 211.263 86.3955 211.13 67.2374C211.13 67.0028 211.039 66.7775 210.875 66.6098C210.711 66.442 210.487 66.3451 210.253 66.3398ZM209.355 83.8308H193.648V68.1237H209.355V83.8308Z" fill="#AEFFD3"/>
<path d="M197.885 19.9705H180.394C180.159 19.9746 179.934 20.071 179.769 20.2388C179.604 20.4067 179.512 20.6327 179.512 20.868V38.3477C179.515 38.5815 179.609 38.8049 179.774 38.9704C179.939 39.136 180.162 39.2305 180.396 39.234C198.881 39.3664 198.194 39.3866 198.554 38.9154C198.865 38.5855 198.908 40.0171 198.778 20.859C198.776 20.6233 198.681 20.398 198.513 20.2317C198.346 20.0655 198.121 19.9716 197.885 19.9705Z" fill="#AEFFD3"/>
<path d="M91.9588 117.85C89.7635 117.081 87.4199 116.831 85.1117 117.119C82.8035 117.408 80.5936 118.227 78.6554 119.513C76.7171 120.8 75.1032 122.517 73.9402 124.532C72.7773 126.546 72.0969 128.803 71.9525 131.125C71.9525 131.361 72.0455 131.587 72.2114 131.755C72.3773 131.923 72.6027 132.019 72.8388 132.022H101.094C101.213 132.03 101.333 132.013 101.445 131.97C101.556 131.928 101.658 131.862 101.742 131.777C101.826 131.691 101.89 131.589 101.931 131.476C101.972 131.364 101.988 131.244 101.978 131.125C101.781 128.177 100.728 125.351 98.9487 122.993C97.169 120.635 94.7397 118.847 91.9588 117.85Z" fill="#AEFFD3"/>
<path d="M426.148 243.387C425.953 243.387 425.76 243.421 425.565 243.43C427.476 242.122 429.179 240.534 430.616 238.718C431.734 237.318 432.489 235.664 432.815 233.903C433.143 232.142 433.032 230.328 432.492 228.62C429.539 219.421 415.396 213.019 402.503 218.054C401.302 209.789 398.863 201.752 395.268 194.213C388.678 180.483 377.376 180.371 372.368 185.998C367.842 173.06 357.417 159.191 345.666 153.014C336.791 148.358 327.12 151.95 326.887 161.661C326.974 161.623 327.055 161.576 327.145 161.54C327.333 161.487 327.533 161.498 327.714 161.572C327.895 161.646 328.046 161.779 328.143 161.949C329.555 164.612 331.524 166.941 333.915 168.777C336.306 170.613 339.064 171.913 342.001 172.589C342.186 172.645 342.348 172.758 342.464 172.911C342.581 173.065 342.646 173.251 342.65 173.444C342.614 175.751 342.014 178.014 340.902 180.035C339.789 182.056 338.198 183.774 336.268 185.038C334.191 186.164 331.79 186.544 329.467 186.113C330.383 193.935 332.667 213.198 332.909 215.007C336.334 212.918 340.175 211.607 344.162 211.164C348.148 210.721 352.184 211.158 355.983 212.444C374.127 218.633 385.378 238.945 391.286 257.171C404.203 258.849 417.295 258.644 430.154 256.563C431.566 256.456 432.934 256.02 434.148 255.291C435.364 254.564 436.392 253.566 437.155 252.372C440.336 245.927 430.656 243.349 426.148 243.387Z" fill="#333333"/>
<path d="M402.009 314.944C401.165 305.969 399.866 297.058 398.419 288.17C396.79 277.679 394.402 267.319 391.274 257.174C385.51 238.933 373.902 218.563 355.972 212.447C342.461 207.838 329.18 214.567 321.062 226.031C311.911 238.953 311.189 255.551 311.213 270.845C315.768 281.533 318.818 292.802 320.274 304.328C321.024 283.709 320.799 284.979 320.685 274.312C320.424 250.058 320.279 248.353 320.842 243.54C321.538 237.692 324.312 232.29 328.659 228.317C333.045 224.301 338.81 222.13 344.756 222.256C350.702 222.381 356.37 224.793 360.583 228.991C369.85 238.28 371.201 250.949 370.976 264.069C370.528 290.58 365.728 318.577 362.957 327.781C360.622 336.099 355.931 343.564 349.449 349.275C341.268 355.852 330.338 357.328 320.11 356.758C294.806 355.347 284.011 338.745 272.336 315.833C267.193 315.608 262.039 315.474 256.916 315.409C236.21 315.146 216.792 315.777 195.266 320.251C168.629 325.786 157.388 333.056 152.408 358.585C148.307 379.585 152.435 410.07 170.842 420.839C176.541 424.121 183.045 425.744 189.618 425.524H345.641C358.848 425.524 366.343 418.402 368.739 405.511C372.056 387.681 365.113 375.219 356.732 371.002C365.168 370.632 373.495 368.954 381.415 366.028C386.478 364.206 391.071 361.279 394.86 357.458C404.834 347.235 403.346 329.13 402.009 314.944ZM280.511 370.334C289.262 370.002 340.951 369.254 346.48 369.358C346.65 369.365 346.814 369.422 346.953 369.52C347.091 369.619 347.199 369.755 347.262 369.913C347.325 370.071 347.341 370.244 347.308 370.411C347.275 370.578 347.195 370.732 347.077 370.854C346.921 371.019 346.707 371.117 346.48 371.128C334.042 371.328 263.179 370.679 232.142 376.022C231.02 376.213 230.551 374.507 231.673 374.314C245.536 371.929 266.419 370.868 280.511 370.334ZM165.176 364.5C164.838 360.738 165.034 356.947 165.759 353.24C165.984 352.118 167.68 352.596 167.467 353.709C166.784 357.263 166.609 360.896 166.946 364.5C167.043 365.628 165.27 365.617 165.167 364.493L165.176 364.5Z" fill="white"/>
<path d="M341.995 172.591C339.056 171.917 336.297 170.618 333.906 168.782C331.514 166.946 329.547 164.616 328.137 161.951C328.041 161.78 327.89 161.647 327.708 161.573C327.527 161.499 327.326 161.488 327.138 161.542C320.732 164.1 315.768 173.136 318.275 178.988C318.972 180.385 319.937 181.631 321.117 182.653C322.296 183.675 323.666 184.455 325.148 184.946C326.878 185.782 328.772 186.224 330.694 186.24C332.616 186.256 334.517 185.846 336.262 185.04C338.191 183.776 339.781 182.059 340.893 180.039C342.005 178.018 342.605 175.756 342.641 173.451C342.639 173.257 342.576 173.069 342.459 172.914C342.343 172.76 342.18 172.646 341.995 172.591Z" fill="white"/>
<path d="M360.592 228.984C356.38 224.786 350.711 222.373 344.765 222.247C338.819 222.122 333.054 224.294 328.668 228.311C324.321 232.283 321.547 237.686 320.851 243.533C319.655 253.729 321.708 265.103 320.283 304.322C318.836 292.793 315.786 281.524 311.222 270.839C304.868 255.621 294.999 243.661 278.987 238.976C260.812 233.651 244.117 239.252 231.958 252.32C229.499 254.946 227.337 257.836 225.514 260.937C215.416 257.472 204.841 264.809 204.931 274.505C204.998 281.627 211.519 284.58 215.643 281.867C216.404 281.302 217.024 280.568 217.455 279.723C217.886 278.879 218.116 277.946 218.127 276.998C218.203 276.251 218.208 275.58 218.394 274.505C218.426 273.929 218.628 273.375 218.975 272.913C219.321 272.451 219.797 272.103 220.341 271.911C221.228 271.725 222.151 271.815 222.985 272.169C223.82 272.523 224.526 273.123 225.009 273.89C227.771 278.311 225.103 285.04 227.336 291.538C227.623 292.408 228.101 293.203 228.736 293.864C229.37 294.525 230.145 295.035 231.002 295.358C231.86 295.681 232.778 295.808 233.691 295.729C234.604 295.65 235.488 295.369 236.277 294.904C240.586 292.034 238.456 280.095 239.684 288.116C239.809 289.804 240.17 291.467 240.758 293.053C241.359 294.407 242.337 295.56 243.574 296.374C246.166 298.057 249.55 296.758 250.432 291.886C250.829 289.546 251.031 287.176 251.04 284.802L251.773 274.146C276.472 320.655 283.394 354.712 320.119 356.761C330.347 357.331 341.277 355.863 349.458 349.277C355.939 343.565 360.63 336.101 362.966 327.783C365.717 318.653 370.525 290.865 370.985 264.071C371.205 250.94 369.852 238.271 360.592 228.984ZM328.823 347.909C331.25 347.151 333.59 346.136 335.802 344.882C335.953 344.798 336.125 344.761 336.297 344.774C336.468 344.787 336.633 344.849 336.77 344.954C336.907 345.058 337.01 345.201 337.068 345.363C337.126 345.526 337.135 345.701 337.094 345.869C337.038 346.094 336.896 346.288 336.699 346.41C334.376 347.787 331.888 348.865 329.294 349.616C329.072 349.667 328.838 349.63 328.641 349.514C328.445 349.397 328.3 349.21 328.238 348.99C328.173 348.769 328.199 348.532 328.308 348.329C328.418 348.127 328.603 347.976 328.823 347.909ZM242.789 265.274C241.705 266.413 241.064 267.902 240.983 269.472C240.927 270.608 239.159 270.61 239.212 269.472C239.309 267.435 240.134 265.501 241.537 264.022C242.316 263.192 243.565 264.448 242.789 265.274ZM233.915 262.016C232.658 262.552 231.645 263.535 231.072 264.776C230.589 265.808 229.052 264.901 229.544 263.878C230.351 262.243 231.739 260.967 233.437 260.301C234.487 259.884 234.936 261.58 233.906 262.016H233.915Z" fill="white"/>
<path d="M417.712 432.745C416.179 431.062 372.61 381.475 372.574 381.443C372.451 381.316 372.293 381.228 372.12 381.192C371.947 381.155 371.767 381.17 371.602 381.237C371.44 381.306 371.301 381.422 371.205 381.57C371.109 381.719 371.059 381.892 371.062 382.069C372.113 394.516 377.128 406.298 385.369 415.686C393.61 425.073 404.644 431.571 416.85 434.226C417.037 434.269 417.232 434.251 417.408 434.175C417.584 434.098 417.73 433.968 417.826 433.801C417.921 433.636 417.962 433.444 417.943 433.254C417.921 433.064 417.84 432.886 417.712 432.745Z" fill="#333333"/>
<path d="M290.72 105.812L267.55 129.3C266.749 130.113 267.999 131.365 268.802 130.553L291.972 107.064C292.773 106.251 291.521 104.999 290.72 105.812Z" fill="#333333"/>
<path d="M307.987 139.232C308.198 139.199 308.391 139.092 308.53 138.929C308.669 138.766 308.744 138.559 308.743 138.345C308.743 138.132 308.667 137.925 308.528 137.763C308.39 137.6 308.198 137.493 307.987 137.459H268.252C268.042 137.493 267.85 137.6 267.711 137.763C267.572 137.925 267.496 138.132 267.496 138.345C267.496 138.559 267.572 138.765 267.711 138.928C267.85 139.09 268.042 139.198 268.252 139.232C286.394 139.548 298.83 139.389 307.987 139.232Z" fill="#333333"/>
<path d="M267.312 148.01C274.978 155.924 282.782 163.704 290.72 171.346C290.889 171.499 291.11 171.582 291.338 171.576C291.565 171.571 291.782 171.478 291.944 171.317C292.105 171.156 292.198 170.939 292.203 170.711C292.208 170.483 292.126 170.262 291.972 170.094C284.308 162.178 276.504 154.398 268.564 146.758C268.396 146.604 268.175 146.522 267.947 146.527C267.719 146.532 267.502 146.625 267.341 146.786C267.18 146.947 267.087 147.164 267.082 147.392C267.076 147.62 267.159 147.841 267.312 148.01Z" fill="#333333"/>
<path d="M47.2005 279.585H12.3017C12.1327 279.595 11.9699 279.652 11.8325 279.751C11.6951 279.85 11.5888 279.986 11.5261 280.143C11.4634 280.3 11.4469 280.472 11.4786 280.639C11.5102 280.805 11.5888 280.959 11.7049 281.082C11.8619 281.246 12.0751 281.344 12.3017 281.356H47.2005C47.3695 281.346 47.5323 281.289 47.6697 281.19C47.8071 281.091 47.9134 280.955 47.9761 280.798C48.0389 280.64 48.0553 280.468 48.0237 280.302C47.992 280.136 47.9135 279.982 47.7974 279.859C47.6407 279.695 47.4271 279.597 47.2005 279.585Z" fill="#333333"/>
<path d="M46.5745 286.678L15.6518 317.601C15.4984 317.769 15.4158 317.99 15.4211 318.218C15.4265 318.446 15.5194 318.663 15.6805 318.824C15.8416 318.985 16.0586 319.078 16.2864 319.083C16.5143 319.089 16.7354 319.006 16.9039 318.853C25.0648 310.968 45.5804 290.253 47.8243 287.93C47.9734 287.761 48.0526 287.542 48.0457 287.316C48.0388 287.091 47.9463 286.877 47.7871 286.717C47.6279 286.558 47.4138 286.465 47.1886 286.458C46.9633 286.45 46.7437 286.529 46.5745 286.678Z" fill="#333333"/>
<path d="M52.7944 287.596V319.358C52.8049 319.585 52.903 319.8 53.0682 319.957C53.2334 320.114 53.4529 320.201 53.6808 320.199C53.908 320.199 54.1267 320.112 54.2913 319.956C54.4559 319.799 54.5539 319.585 54.5648 319.358V287.596C54.5544 287.368 54.4563 287.154 54.2911 286.997C54.1259 286.84 53.9063 286.753 53.6785 286.754C53.4512 286.754 53.2326 286.841 53.068 286.998C52.9034 287.155 52.8054 287.369 52.7944 287.596Z" fill="#333333"/>
<path d="M53.7638 141.458V224.465C53.7742 224.692 53.872 224.906 54.0367 225.063C54.2015 225.22 54.4204 225.307 54.6479 225.306C54.8755 225.307 55.0947 225.22 55.2598 225.063C55.4249 224.907 55.5232 224.692 55.5342 224.465V141.458C55.5342 141.223 55.4408 140.997 55.2746 140.831C55.1084 140.665 54.8829 140.571 54.6479 140.571C54.4128 140.571 54.1874 140.665 54.0211 140.831C53.8549 140.997 53.7615 141.223 53.7615 141.458H53.7638Z" fill="white"/>
<path d="M56.9793 239.355C56.5574 238.309 54.8453 238.767 55.2717 239.824L86.1113 316.385C86.5332 317.428 88.243 316.972 87.8167 315.913C77.5481 290.39 67.269 264.87 56.9793 239.355Z" fill="#AEFFD3"/>
<path d="M151.033 41.0628C149.503 38.2759 137.419 17.6795 136.827 16.6809C136.747 16.5506 136.634 16.4429 136.501 16.3683C136.367 16.2936 136.216 16.2544 136.063 16.2544C135.91 16.2544 135.759 16.2936 135.626 16.3683C135.492 16.4429 135.379 16.5506 135.299 16.6809C130.547 24.7986 125.812 32.9259 121.093 41.0628C121.018 41.1978 120.979 41.3498 120.98 41.5042C120.981 41.6586 121.022 41.8102 121.099 41.9442C121.176 42.0782 121.286 42.1902 121.418 42.2692C121.551 42.3483 121.702 42.3918 121.856 42.3956H150.268C150.42 42.386 150.567 42.3388 150.696 42.2583C150.825 42.1778 150.932 42.0666 151.008 41.9345C151.084 41.8024 151.125 41.6536 151.129 41.5015C151.133 41.3494 151.099 41.1986 151.031 41.0628H151.033Z" fill="#AEFFD3"/>
<path d="M117.788 16.0346C110.232 23.3408 102.799 30.7735 95.4929 38.3296C95.3495 38.4998 95.2751 38.7176 95.2846 38.94C95.2941 39.1624 95.3867 39.3731 95.5441 39.5305C95.7015 39.6879 95.9122 39.7805 96.1346 39.79C96.3569 39.7994 96.5748 39.7251 96.745 39.5817L119.04 17.2777C119.193 17.1091 119.276 16.888 119.271 16.6602C119.265 16.4324 119.172 16.2154 119.011 16.0543C118.85 15.8931 118.633 15.8003 118.405 15.7949C118.178 15.7896 117.956 15.8722 117.788 16.0256V16.0346Z" fill="#333333"/>
<path d="M87.5137 16.0257C87.6768 15.8582 87.7681 15.6336 87.7681 15.3997C87.7681 15.1659 87.6768 14.9412 87.5137 14.7737C87.3461 14.6106 87.1215 14.5193 86.8877 14.5193C86.6538 14.5193 86.4292 14.6106 86.2616 14.7737C80.8629 18.9517 68.7079 28.2795 68.0864 28.836C67.1641 29.812 68.6698 30.631 69.3025 31.109L86.2594 44.2333C86.4286 44.3934 86.6526 44.4825 86.8854 44.4825C87.1183 44.4825 87.3423 44.3934 87.5115 44.2333C87.5938 44.1512 87.6592 44.0536 87.7038 43.9462C87.7484 43.8388 87.7713 43.7236 87.7713 43.6073C87.7713 43.491 87.7484 43.3758 87.7038 43.2684C87.6592 43.161 87.5938 43.0634 87.5115 42.9813L70.0969 29.5024L87.5137 16.0257Z" fill="#333333"/>
<path d="M352.047 42.9812C351.883 43.1482 351.791 43.373 351.791 43.6072C351.791 43.8414 351.883 44.0662 352.047 44.2333C352.215 44.3958 352.439 44.4868 352.673 44.4868C352.907 44.4868 353.131 44.3958 353.299 44.2333C358.698 40.0552 370.851 30.7275 371.474 30.1687C372.397 29.1927 370.891 28.3849 370.258 27.8957L353.299 14.7736C353.131 14.6126 352.906 14.5227 352.673 14.5227C352.44 14.5227 352.216 14.6126 352.047 14.7736C351.964 14.8554 351.898 14.9529 351.853 15.0604C351.809 15.1678 351.785 15.2831 351.785 15.3996C351.785 15.5161 351.809 15.6314 351.853 15.7389C351.898 15.8464 351.964 15.9438 352.047 16.0257L369.462 29.5023L352.047 42.9812Z" fill="#333333"/>
<path d="M324.448 17.1095C322.639 16.4557 320.695 16.2709 318.796 16.5723C316.897 16.8737 315.105 17.6515 313.588 18.833C312.072 20.0146 310.879 21.5613 310.122 23.3288C309.365 25.0963 309.068 27.0268 309.259 28.94C309.451 30.8533 310.124 32.6868 311.216 34.2693C312.308 35.8519 313.783 37.1318 315.504 37.9896C317.225 38.8474 319.135 39.255 321.056 39.1744C322.977 39.0938 324.847 38.5276 326.49 37.5287C328.33 36.4193 329.818 34.8101 330.779 32.8883C331.741 30.9665 332.137 28.8111 331.922 26.6729C331.71 24.5346 330.894 22.5006 329.571 20.8076C328.248 19.1146 326.471 17.8321 324.448 17.1095Z" fill="#AEFFD3"/>
<path d="M61.9337 212.238C61.9121 215.073 62.7298 217.85 64.2839 220.221C65.838 222.592 68.0589 224.449 70.6668 225.56C74.4208 227.117 78.9803 226.63 82.9744 226.63H211.173C214.789 226.593 218.257 225.185 220.875 222.69C223.494 220.195 225.068 216.8 225.28 213.19C225.377 211.296 225.296 215.081 225.296 154.602C225.501 151.757 225.106 148.9 224.136 146.217C223.018 143.677 221.183 141.517 218.857 140.003C216.531 138.489 213.814 137.685 211.038 137.69H76.6086C74.7289 137.625 72.8549 137.933 71.0957 138.599C69.3365 139.264 67.7272 140.273 66.3615 141.566C64.9958 142.859 63.901 144.411 63.1409 146.131C62.3807 147.852 61.9703 149.706 61.9337 151.587C61.9337 151.813 62.2209 150.072 61.9337 212.238ZM63.7041 151.836C63.7108 150.158 64.0568 148.499 64.7214 146.959C65.386 145.418 66.3554 144.028 67.5713 142.872C68.7872 141.716 70.2244 140.818 71.7964 140.233C73.3684 139.647 75.0427 139.385 76.7185 139.463H210.901C213.245 139.436 215.55 140.064 217.555 141.278C219.56 142.492 221.186 144.242 222.249 146.331C223.33 148.921 223.769 151.734 223.528 154.531C223.528 154.531 223.57 206.725 223.528 212.498C223.503 215.766 222.195 218.892 219.886 221.204C217.578 223.517 214.454 224.829 211.186 224.86C65.5777 225.623 75.8344 225.073 72.9959 224.476C70.31 223.756 67.9401 222.163 66.2601 219.947C64.5801 217.731 63.6856 215.019 63.7176 212.238C63.6951 205.648 63.6996 152.358 63.7041 151.836Z" fill="#333333"/>
<path d="M103.36 260.205C103.517 260.248 122.134 260.066 131.271 260.234C131.996 260.248 132.51 259.24 131.918 258.751C131.734 258.527 132.142 258.944 110.646 240.663C110.535 240.557 110.398 240.481 110.25 240.442C110.101 240.404 109.944 240.404 109.796 240.443C109.647 240.482 109.511 240.559 109.401 240.666C109.29 240.773 109.209 240.906 109.165 241.054C107.415 246.369 102.725 259.114 102.725 259.114C102.666 259.343 102.7 259.586 102.818 259.79C102.937 259.994 103.132 260.143 103.36 260.205ZM110.424 242.786L128.866 258.459H104.832L110.424 242.786Z" fill="#333333"/>
<path d="M142.109 289.806C142.052 289.622 141.939 289.461 141.786 289.344C141.633 289.227 141.447 289.161 141.254 289.156H120.927C120.691 289.159 120.467 289.255 120.301 289.423C120.136 289.591 120.043 289.817 120.043 290.053C120.043 290.277 121.549 294.067 125.767 304.907C125.824 305.092 125.936 305.254 126.09 305.371C126.243 305.487 126.429 305.553 126.622 305.558C148.388 305.875 147.144 305.648 147.49 305.363C147.655 305.282 147.781 305.139 147.841 304.965C147.901 304.792 147.89 304.602 147.811 304.436C147.71 304.203 142.251 290.174 142.109 289.806ZM127.23 303.788L122.224 290.928H140.66L145.666 303.788H127.23Z" fill="#333333"/>
<path d="M208.207 258.284C209.62 253.922 206.008 249.839 202.651 247.595C196.314 243.356 185.227 242.061 181.684 248.524C181.284 249.42 181.083 250.393 181.095 251.375C181.107 252.357 181.332 253.325 181.754 254.212C185.954 263.86 204.993 267.244 208.207 258.284ZM182.929 250.31C183.148 249.493 183.558 248.739 184.126 248.113C184.695 247.486 185.404 247.005 186.197 246.708C194.449 243.053 208.79 250.747 206.497 257.813C204.224 264.161 189.233 262.566 184.103 254.827C183.62 254.188 183.268 253.46 183.067 252.685C182.866 251.91 182.819 251.103 182.929 250.31Z" fill="#333333"/>
<path d="M149.141 111.311C149.055 111.175 148.934 111.065 148.791 110.992C148.648 110.919 148.487 110.886 148.327 110.896C148.166 110.906 148.011 110.959 147.878 111.049C147.745 111.14 147.639 111.264 147.571 111.41C146.951 112.4 144.82 116.122 136.333 130.678C136.259 130.813 136.22 130.965 136.221 131.12C136.222 131.274 136.263 131.426 136.339 131.56C136.416 131.694 136.526 131.806 136.659 131.885C136.791 131.964 136.942 132.007 137.096 132.011H159.661C159.781 132.005 159.898 131.975 160.007 131.923C160.115 131.871 160.212 131.798 160.292 131.709C160.373 131.62 160.434 131.515 160.474 131.402C160.514 131.288 160.531 131.168 160.525 131.048C160.507 130.71 161.216 132.031 149.141 111.311ZM138.636 130.241L148.379 113.517L158.117 130.241H138.636Z" fill="#333333"/>
<path d="M128.291 200.285C156.968 200.496 165.34 200.487 167.869 200.337C168.964 200.274 169.287 200.238 169.37 199.174C169.531 197.123 169.552 189.411 169.347 159.233C169.344 158.998 169.248 158.773 169.08 158.607C168.912 158.442 168.686 158.349 168.45 158.349H128.285C128.051 158.353 127.828 158.447 127.663 158.612C127.498 158.777 127.404 159 127.401 159.233V199.399C127.404 199.634 127.499 199.858 127.665 200.024C127.832 200.189 128.057 200.283 128.291 200.285ZM129.189 160.12H167.577V198.515H129.178L129.189 160.12Z" fill="#333333"/>
<path d="M78.2197 188.944C96.6575 189.079 96 189.104 96.3747 188.626C96.6866 188.296 96.7248 189.728 96.5991 170.569C96.5992 170.334 96.5065 170.107 96.341 169.939C96.1756 169.772 95.9508 169.675 95.7151 169.672H78.2197C77.984 169.675 77.7591 169.772 77.5937 169.939C77.4283 170.107 77.3355 170.334 77.3356 170.569V188.072C77.3419 188.303 77.4374 188.523 77.6022 188.686C77.7669 188.848 77.9882 188.941 78.2197 188.944ZM79.106 171.442H94.8242V187.163H79.106V171.442Z" fill="#333333"/>
<path d="M200.604 117.027C196.938 117.253 193.481 118.811 190.883 121.407C188.285 124.003 186.724 127.459 186.495 131.125C186.495 131.361 186.588 131.587 186.754 131.755C186.92 131.923 187.145 132.019 187.381 132.022H215.638C215.759 132.032 215.879 132.015 215.993 131.973C216.106 131.931 216.209 131.866 216.294 131.78C216.379 131.695 216.445 131.592 216.487 131.479C216.529 131.366 216.545 131.245 216.536 131.125C216.417 129.153 215.91 127.223 215.044 125.447C214.179 123.671 212.972 122.083 211.492 120.773C210.013 119.464 208.29 118.459 206.421 117.816C204.553 117.173 202.576 116.905 200.604 117.027ZM203.297 118.898C206.168 119.287 208.833 120.607 210.882 122.656C212.931 124.705 214.251 127.369 214.64 130.241H188.387C188.62 128.516 189.191 126.855 190.066 125.351C190.942 123.848 192.106 122.532 193.491 121.478C194.875 120.425 196.454 119.655 198.137 119.212C199.82 118.769 201.573 118.663 203.297 118.898Z" fill="#333333"/>
<path d="M196.745 185.621C194.207 185.748 191.787 186.734 189.883 188.417C189.106 189.235 188.511 190.209 188.137 191.273C187.764 192.338 187.621 193.47 187.718 194.594C187.815 195.719 188.15 196.81 188.7 197.795C189.25 198.78 190.003 199.637 190.909 200.31C193.047 201.634 195.52 202.318 198.033 202.287C200.398 202.242 202.763 202.374 205.106 202.688C207.188 202.958 209.095 203.988 210.459 205.581C212.748 209.202 209.64 213.481 205.036 214.002C199.571 214.693 194.045 214.755 188.566 214.188C187.444 214.067 187.444 215.84 188.566 215.959C194.867 216.632 201.23 216.403 207.466 215.274C211.925 213.746 214.694 208.558 211.887 204.546C207.592 199.21 200.51 201.261 194.869 200.126C193.528 199.955 192.28 199.352 191.314 198.407C190.348 197.462 189.717 196.227 189.517 194.891C189.317 193.554 189.559 192.189 190.207 191.002C190.854 189.816 191.871 188.874 193.103 188.319C195.388 187.396 197.857 187.021 200.313 187.224C203.49 187.608 206.712 187.264 209.737 186.218C210.84 185.751 211.827 185.046 212.628 184.154C213.428 183.262 214.022 182.205 214.368 181.057C214.607 179.781 214.47 178.463 213.973 177.263C213.476 176.063 212.64 175.034 211.568 174.301C206.441 170.711 200.995 172.699 195.369 171.882C194.182 171.892 193.024 171.51 192.077 170.793C191.129 170.077 190.445 169.068 190.13 167.923C189.816 166.777 189.889 165.56 190.338 164.461C190.787 163.361 191.588 162.441 192.614 161.843C194.489 160.329 196.805 159.464 199.213 159.375C203.532 159.176 207.86 159.419 212.129 160.102C213.251 160.241 213.251 158.468 212.129 158.332C209.129 157.948 206.117 157.672 203.097 157.506C200.517 157.36 197.927 157.618 195.426 158.267C193.117 158.942 191.131 160.43 189.834 162.456C188.735 164.512 188.449 166.906 189.033 169.163C190.496 174.936 198.28 173.772 202.754 173.785C203.8 173.783 204.845 173.852 205.882 173.994C211.579 174.667 213.924 178.836 212.111 181.894C209.113 186.979 202.364 185.191 196.745 185.621Z" fill="#333333"/>
<path d="M78.2197 86.1778H95.7106C95.9523 86.1639 96.1787 86.0552 96.3409 85.8755C96.503 85.6957 96.5878 85.4592 96.5767 85.2174C96.5565 84.8965 97.0906 85.8704 87.7292 69.8357C87.6488 69.7053 87.5364 69.5977 87.4027 69.523C87.2689 69.4484 87.1183 69.4092 86.9651 69.4092C86.812 69.4092 86.6614 69.4484 86.5276 69.523C86.3939 69.5977 86.2815 69.7053 86.2011 69.8357C83.6476 74.2157 77.818 84.2234 77.45 84.8449C77.3749 84.9804 77.336 85.1331 77.3374 85.2881C77.3387 85.443 77.3801 85.595 77.4576 85.7292C77.5351 85.8634 77.646 85.9752 77.7796 86.0538C77.9131 86.1325 78.0647 86.1752 78.2197 86.1778ZM86.9708 72.0414L94.1758 84.4074H79.7612L86.9708 72.0414Z" fill="#333333"/>
<path d="M127.407 55.8857V96.0508C127.407 96.2865 127.5 96.5128 127.665 96.6807C127.831 96.8487 128.056 96.9448 128.291 96.9483C156.638 97.1391 165.149 97.1458 167.804 96.982C169.083 96.9035 169.314 96.8474 169.392 95.6806C169.545 93.4367 169.581 85.4373 169.347 55.8924C169.344 55.6567 169.248 55.4318 169.08 55.2664C168.912 55.101 168.686 55.0083 168.45 55.0083H128.285C128.054 55.0134 127.833 55.1075 127.67 55.271C127.507 55.4344 127.412 55.6546 127.407 55.8857ZM129.178 56.772H167.577V95.1712H129.178V56.772Z" fill="#333333"/>
<path d="M191.871 67.2262V84.7283C191.875 84.9621 191.969 85.1853 192.135 85.3504C192.3 85.5155 192.524 85.6095 192.758 85.6124C211.204 85.7493 210.549 85.7695 210.913 85.296C211.229 84.9594 211.285 86.3955 211.137 67.2374C211.134 67.0013 211.038 66.7759 210.87 66.61C210.702 66.4441 210.476 66.3511 210.24 66.3511H192.751C192.52 66.3556 192.299 66.4491 192.136 66.6122C191.972 66.7752 191.877 66.9951 191.871 67.2262ZM193.642 68.1125H209.356V83.8195H193.648L193.642 68.1125Z" fill="#333333"/>
<path d="M180.396 39.234C198.841 39.3686 198.186 39.391 198.549 38.9153C198.863 38.5855 198.899 40.0171 198.773 20.859C198.77 20.6229 198.675 20.3975 198.507 20.2316C198.339 20.0657 198.112 19.9726 197.876 19.9727H180.396C180.161 19.9762 179.936 20.072 179.771 20.2395C179.606 20.4069 179.513 20.6326 179.512 20.868V38.3476C179.515 38.5814 179.609 38.8049 179.774 38.9704C179.939 39.1359 180.162 39.2305 180.396 39.234ZM181.28 21.7431H197.001V37.4725H181.28V21.7431Z" fill="#333333"/>
<path d="M71.9526 131.125C71.9526 131.361 72.0456 131.587 72.2115 131.755C72.3774 131.923 72.6028 132.019 72.8389 132.022C103.057 132.175 101.213 132.074 101.5 131.921C101.657 131.865 101.791 131.756 101.878 131.613C101.965 131.47 102 131.302 101.978 131.136C101.768 127.297 100.095 123.684 97.3024 121.04C94.5103 118.396 90.8113 116.923 86.9663 116.923C83.1212 116.923 79.4222 118.396 76.6301 121.04C73.8379 123.684 72.1648 127.297 71.9548 131.136V131.125H71.9526ZM88.7636 118.898C91.635 119.287 94.2996 120.607 96.3485 122.656C98.3974 124.705 99.7175 127.369 100.106 130.241H73.8531C74.0863 128.516 74.6571 126.855 75.5329 125.351C76.4087 123.848 77.5723 122.532 78.9571 121.478C80.3419 120.425 81.9208 119.655 83.6035 119.212C85.2862 118.769 87.0396 118.662 88.7636 118.898Z" fill="#333333"/>
<path d="M426.149 243.387C425.953 243.387 425.76 243.421 425.563 243.43C427.475 242.123 429.179 240.535 430.616 238.718C431.728 237.315 432.48 235.662 432.807 233.902C433.134 232.142 433.026 230.329 432.492 228.621C429.472 219.421 415.396 213.019 402.503 218.054C401.278 209.794 398.84 201.761 395.268 194.213C392.291 188.096 387.161 182.06 379.719 182.545C378.323 182.597 376.952 182.931 375.689 183.526C374.426 184.121 373.296 184.966 372.368 186.01C367.146 171.081 356.499 158.951 345.666 153.025C336.603 148.456 327.116 151.979 326.887 161.673C323.585 163.188 320.92 165.814 319.356 169.093C318.446 170.558 317.877 172.208 317.691 173.923C317.505 175.637 317.707 177.372 318.282 178.998C318.977 180.395 319.942 181.642 321.122 182.664C322.302 183.687 323.672 184.465 325.155 184.955C326.543 185.508 327.99 185.9 329.467 186.124L332.909 215.018C328.235 217.823 324.203 221.578 321.073 226.04C311.873 238.922 311.2 255.56 311.225 270.855C305.014 255.623 294.809 243.704 278.989 238.992C271.014 236.511 262.503 236.319 254.424 238.436C246.345 240.553 239.022 244.895 233.289 250.967L230.336 243.971C226.772 234.861 219.386 230.844 210.226 231.327H74.7372C73.2847 231.296 71.8478 231.632 70.5589 232.302C69.27 232.973 68.1704 233.956 67.3614 235.163C66.5524 236.37 66.06 237.761 65.9294 239.208C65.7989 240.655 66.0345 242.111 66.6144 243.443C96.6822 315.247 93.6866 308.542 95.4772 311.72C97.2147 314.353 99.5814 316.512 102.363 318.001C105.145 319.49 108.254 320.261 111.409 320.246H195.271C168.694 325.771 157.493 332.913 152.413 358.581C148.345 379.72 152.343 409.698 170.846 420.834C176.56 424.081 183.054 425.701 189.623 425.519H345.645C358.853 425.519 366.347 418.397 368.744 405.507C372.083 387.556 365.055 375.192 356.737 370.998C365.173 370.637 373.502 368.958 381.419 366.023C386.468 364.174 391.055 361.251 394.862 357.454C404.827 346.982 403.389 329.406 402.018 314.946C401.174 305.971 399.94 297.052 398.428 288.173C396.799 277.681 394.411 267.322 391.283 257.176C404.201 258.834 417.29 258.628 430.149 256.568C431.561 256.457 432.928 256.021 434.143 255.294C435.358 254.567 436.388 253.568 437.152 252.376C440.336 245.927 430.656 243.349 426.149 243.387ZM326.55 183.575C324.011 182.844 321.802 181.259 320.297 179.087C319.66 177.834 319.334 176.445 319.348 175.039C319.362 173.633 319.714 172.25 320.375 171.009C321.663 167.834 324.004 165.199 327.006 163.546C328.503 166.131 330.498 168.392 332.875 170.201C335.252 172.009 337.965 173.328 340.855 174.081C340.756 175.787 340.295 177.453 339.503 178.968C338.712 180.482 337.606 181.811 336.262 182.866C333.542 185.186 329.723 184.538 326.55 183.575ZM256.151 239.748C263.76 238.11 271.665 238.492 279.08 240.857C286.495 243.222 293.162 247.488 298.417 253.229C302.454 257.807 305.776 262.969 308.269 268.541C315.591 284.54 317.835 297.765 319.902 314.715C319.909 314.885 319.966 315.049 320.064 315.188C320.163 315.327 320.299 315.434 320.457 315.497C320.615 315.56 320.788 315.576 320.955 315.543C321.122 315.51 321.276 315.43 321.398 315.312C321.563 315.156 321.661 314.942 321.672 314.715C322.812 284.735 322.63 290.3 322.235 253.37C322.168 247.112 322.235 240.715 325.428 235.134C326.82 232.629 328.698 230.426 330.952 228.656C333.206 226.885 335.791 225.583 338.555 224.824C341.318 224.063 344.205 223.861 347.048 224.229C349.89 224.598 352.63 225.53 355.108 226.971C365.654 233.38 368.82 245.786 369.188 258.053C369.274 278.931 367.193 299.76 362.979 320.208C358.669 341.274 348.203 354.138 326.707 355.042C320.143 355.396 313.569 354.538 307.316 352.511C291.701 347.126 283.181 332.832 275.453 317.989C266.78 301.342 255.207 275.997 251.861 270.702C251.758 270.541 251.607 270.417 251.429 270.349C251.251 270.281 251.055 270.272 250.871 270.323C250.687 270.373 250.524 270.48 250.405 270.629C250.286 270.777 250.218 270.96 250.209 271.151C250.028 274.725 249.182 285.541 249.088 287.383C249.054 288.79 248.919 290.193 248.681 291.581C248.32 293.448 247.111 296.242 244.75 295.001C242.017 293.569 241.797 290.316 241.384 287.636L239.547 275.616C239.383 274.543 237.913 274.943 237.808 275.84C237.256 280.481 238.223 288.029 236.152 292.378C234.644 295.151 230.295 294.049 229.182 291.444C226.714 284.542 230.45 274.274 224.275 270.832C223.564 270.405 222.769 270.137 221.945 270.046C221.121 269.956 220.287 270.045 219.5 270.307C218.668 270.684 217.956 271.282 217.442 272.036C216.927 272.791 216.63 273.672 216.583 274.584C216.336 276.341 216.583 278.578 215.214 279.933C214.626 280.434 213.924 280.781 213.169 280.946C212.414 281.11 211.631 281.086 210.888 280.876C206.984 279.814 206.176 275.042 207.006 271.656C207.565 269.815 208.5 268.111 209.751 266.651C211.002 265.19 212.543 264.005 214.275 263.17C216.008 262.334 217.894 261.867 219.816 261.798C221.738 261.729 223.654 262.059 225.442 262.768C225.645 262.883 225.886 262.914 226.112 262.855C226.338 262.796 226.532 262.651 226.653 262.451C229.799 256.884 234.031 252.006 239.099 248.106C244.166 244.206 249.965 241.364 256.151 239.748ZM257.26 308.379L250.427 291.877C250.824 289.537 251.026 287.167 251.035 284.793L251.769 274.137C253.941 278.226 271.549 314.276 272.341 315.826C267.198 315.602 262.044 315.492 256.921 315.402C257.478 314.324 257.796 313.139 257.855 311.927C257.913 310.715 257.71 309.505 257.26 308.379ZM225.341 274.496H218.385C218.417 273.92 218.619 273.366 218.965 272.904C219.312 272.442 219.788 272.094 220.332 271.902C221.339 271.693 222.386 271.838 223.299 272.311C224.211 272.784 224.932 273.558 225.341 274.501V274.496ZM111.353 318.476C108.097 318.488 104.904 317.572 102.15 315.836C99.3953 314.1 97.1921 311.615 95.7981 308.673C95.6859 308.437 68.0258 242.254 67.9518 242.03C67.4522 240.392 67.5738 238.627 68.2932 237.073C69.0126 235.52 70.2795 234.285 71.8516 233.606C73.8105 232.785 65.4476 233.081 210.43 233.081C214.08 232.68 217.763 233.451 220.945 235.284C224.127 237.117 226.642 239.916 228.125 243.275C228.238 243.533 231.256 250.68 231.94 252.322C229.481 254.947 227.319 257.836 225.496 260.937C215.549 257.522 204.821 264.715 204.913 274.505H162.207L145.764 235.177C145.696 234.954 145.545 234.766 145.342 234.651C145.14 234.536 144.9 234.502 144.674 234.558C144.449 234.623 144.258 234.773 144.142 234.977C144.026 235.181 143.995 235.422 144.055 235.648L160.3 274.505H87.065C86.8958 274.514 86.7327 274.572 86.595 274.67C86.4573 274.769 86.3506 274.905 86.2876 275.062C86.2247 275.22 86.208 275.392 86.2396 275.558C86.2711 275.725 86.3497 275.879 86.4659 276.002C86.6229 276.166 86.8383 276.264 87.065 276.276C88.4113 276.298 161.05 276.276 161.05 276.276L177.807 316.385C177.873 316.609 178.024 316.799 178.227 316.914C178.431 317.03 178.671 317.062 178.897 317.004C179.122 316.939 179.313 316.789 179.429 316.585C179.545 316.381 179.576 316.14 179.517 315.914L162.943 276.282H205.092C206.131 282.164 211.931 284.311 215.638 281.872C216.402 281.309 217.023 280.575 217.454 279.73C217.886 278.885 218.114 277.951 218.122 277.003C218.145 276.778 218.183 276.282 218.183 276.282H225.987C226.282 277.802 226.41 279.349 226.371 280.896C226.317 284.262 226.135 290.349 228.148 293.12C229.113 294.456 230.546 295.379 232.162 295.703C232.207 297.193 231.904 298.672 231.278 300.025C231.002 300.65 230.594 301.209 230.082 301.661C229.569 302.114 228.964 302.45 228.309 302.646C227.622 302.684 226.94 302.505 226.36 302.135C225.779 301.765 225.33 301.222 225.074 300.583C224.773 299.948 224.532 299.286 224.351 298.607C223.79 296.895 223.391 296.392 222.668 294.366C221.771 291.839 220.469 289.721 217.81 289.288C214.882 289.012 212.874 291.709 212.398 294.543C212.305 296.146 212.414 297.755 212.721 299.331C212.762 300.319 212.454 301.289 211.85 302.072C211.247 302.855 210.388 303.4 209.423 303.613C208.783 303.753 208.119 303.741 207.484 303.579C203.03 302.441 203.73 293.987 199.182 290.789C194.371 287.482 187.754 291.081 188.187 296.399C188.499 298.279 188.954 300.132 189.547 301.943C189.807 303.036 191.465 302.592 191.257 301.512C191.234 301.174 190.673 300.007 189.982 296.637C189.282 291.866 196.148 289.185 199.406 293.396C200.729 295.649 201.769 298.056 202.503 300.563C202.883 301.768 203.572 302.852 204.502 303.707C205.432 304.561 206.57 305.157 207.803 305.435C209.1 305.562 210.404 305.285 211.537 304.643C212.671 304 213.578 303.023 214.135 301.845C214.609 300.323 214.632 298.696 214.2 297.162C213.948 295.709 214.173 294.213 214.839 292.898C215.072 292.317 215.484 291.826 216.016 291.495C216.547 291.165 217.171 291.012 217.795 291.061C218.455 291.267 219.054 291.634 219.537 292.13C220.02 292.625 220.372 293.233 220.561 293.899C221.111 295.349 222.006 297.18 222.581 298.836C222.926 300.276 223.575 301.625 224.484 302.794C224.984 303.401 225.635 303.866 226.372 304.141C227.109 304.417 227.906 304.494 228.682 304.364C230.188 303.988 231.491 303.046 232.319 301.732C233.478 299.962 234.048 297.871 233.948 295.757C234.785 295.663 235.586 295.369 236.289 294.902C239.762 292.586 239.291 284.973 239.291 284.973C239.452 287.717 239.951 290.43 240.774 293.051C241.38 294.402 242.356 295.553 243.588 296.372C244.092 296.706 244.665 296.922 245.265 297.005C245.864 297.088 246.474 297.035 247.05 296.85C247.626 296.665 248.153 296.353 248.593 295.937C249.032 295.521 249.372 295.012 249.588 294.447V294.424L255.561 308.848C255.985 309.907 256.151 311.052 256.043 312.188C255.936 313.324 255.559 314.418 254.944 315.38C238.259 314.993 221.572 316.028 205.063 318.474C83.8383 318.474 117.44 318.485 111.359 318.474L111.353 318.476ZM394.068 274.649C397.728 291.362 400.054 308.339 401.024 325.421C401.432 333.362 401.405 342.025 398.125 349.446C390.563 365.653 368.21 369.156 350.331 369.499C350.103 369.511 349.889 369.609 349.732 369.773C349.577 369.939 349.491 370.158 349.491 370.384C349.491 370.611 349.577 370.83 349.732 370.996C349.889 371.16 350.104 371.258 350.331 371.27C358.471 371.101 364.577 379.469 366.543 386.611C367.521 390.755 367.898 395.019 367.664 399.271C367.508 404.637 366.115 409.894 363.596 414.635C362.135 417.1 360.12 419.191 357.71 420.741C355.299 422.291 352.561 423.258 349.711 423.565C346.379 423.825 343.038 423.769 339.695 423.751C310.679 423.597 215.27 423.839 188.564 423.585C179.903 423.502 172.291 421.341 165.56 414.354C161.635 410.076 158.654 405.02 156.809 399.515C150.905 382.209 151.251 363.381 157.785 346.302C159.409 341.917 161.977 337.941 165.305 334.657C168.634 331.372 172.644 328.858 177.051 327.292C181.235 325.591 185.552 324.234 189.957 323.235C219.666 316.488 243.375 316.504 273.294 317.711C284.485 339.494 295.702 355.605 320.108 356.754C330.329 357.412 341.227 355.798 349.447 349.271C355.929 343.56 360.621 336.095 362.955 327.777C365.735 318.485 370.516 290.693 370.974 264.065C371.199 250.797 369.906 238.453 360.581 228.986C356.358 224.807 350.693 222.407 344.753 222.281C338.813 222.156 333.052 224.315 328.657 228.313C324.329 232.3 321.558 237.695 320.84 243.535C320.476 246.799 320.348 250.084 320.456 253.366C320.822 287.495 321.039 283.232 320.272 304.324C319.002 294.391 316.56 284.643 312.997 275.284C312.966 264.513 312.824 253.518 315.466 242.972C318.773 229.733 327.807 216.425 341.889 213.293C356.966 209.938 370.101 221.662 377.993 233.182C386.466 245.539 390.956 260.124 394.068 274.649ZM435.876 250.765C435.164 253.619 431.944 254.436 429.436 254.907C416.601 256.882 403.553 257.026 390.68 255.334C384.803 237.85 373.427 218.4 355.976 212.447C352.477 211.253 348.772 210.784 345.086 211.071C341.4 211.357 337.811 212.392 334.538 214.112C334.462 213.522 332.232 194.951 331.233 186.252C332.991 186.34 334.737 185.919 336.262 185.04C338.191 183.777 339.781 182.06 340.893 180.039C342.005 178.019 342.605 175.757 342.641 173.451C342.639 173.258 342.574 173.07 342.458 172.916C342.341 172.762 342.178 172.65 341.992 172.596C339.235 171.943 336.636 170.747 334.346 169.078C332.057 167.408 330.124 165.299 328.659 162.873C328.46 161.294 328.675 159.691 329.281 158.22C329.888 156.749 330.866 155.461 332.119 154.481C334.022 153.374 336.185 152.792 338.386 152.794C340.587 152.796 342.748 153.382 344.649 154.492C355.527 160.349 366.368 172.87 371.259 188.179C371.312 188.342 371.409 188.487 371.54 188.596C371.672 188.706 371.832 188.775 372.001 188.798C372.171 188.82 372.343 188.793 372.498 188.721C372.653 188.649 372.785 188.534 372.877 188.39C376.018 183.063 383.214 183.351 387.516 186.759C390.144 188.974 392.236 191.756 393.635 194.895C397.265 202.699 399.732 210.993 400.957 219.513C401.049 220.137 401.8 220.244 402.256 220.042C412.966 215.4 425.805 219.232 430.304 227.896C431.003 229.331 431.314 230.923 431.207 232.515C431.1 234.107 430.578 235.644 429.694 236.972C427.46 239.932 424.612 242.371 421.344 244.123C421.176 244.24 421.053 244.411 420.996 244.607C420.939 244.804 420.952 245.014 421.033 245.203C421.111 245.391 421.251 245.547 421.43 245.645C421.61 245.743 421.817 245.777 422.018 245.741C424.977 244.948 428.098 244.991 431.033 245.867C433.163 246.491 436.576 247.947 435.876 250.761V250.765Z" fill="#333333"/>
<path d="M346.471 369.358C318.549 369.295 259.014 369.614 231.664 374.315C230.542 374.508 231.018 376.213 232.133 376.022C247.201 373.913 262.374 372.643 277.582 372.219C286.295 371.864 345.96 371.128 346.469 371.128C346.649 371.135 346.828 371.087 346.981 370.992C347.134 370.896 347.255 370.757 347.328 370.592C347.388 370.454 347.411 370.303 347.395 370.153C347.38 370.003 347.327 369.86 347.241 369.737C347.155 369.613 347.039 369.514 346.904 369.447C346.769 369.381 346.619 369.35 346.469 369.358H346.471Z" fill="#333333"/>
<path d="M165.75 353.233C165.024 356.94 164.828 360.731 165.167 364.493C165.27 365.615 167.043 365.629 166.937 364.493C166.6 360.89 166.775 357.257 167.458 353.702C167.673 352.589 165.966 352.114 165.75 353.233Z" fill="#333333"/>
<path d="M372.574 381.443C372.461 381.305 372.302 381.211 372.127 381.178C371.951 381.145 371.769 381.176 371.614 381.264C371.437 381.304 371.282 381.409 371.18 381.558C371.077 381.708 371.035 381.89 371.062 382.069C372.11 394.518 377.123 406.301 385.365 415.689C393.607 425.077 404.642 431.574 416.85 434.226C416.989 434.257 417.134 434.255 417.272 434.219C417.41 434.184 417.538 434.115 417.645 434.02C417.751 433.925 417.833 433.806 417.884 433.673C417.936 433.539 417.954 433.396 417.938 433.254C417.918 433.064 417.838 432.886 417.709 432.745C417.503 432.516 372.769 381.681 372.574 381.443ZM373.169 384.796L414.548 431.827C403.776 428.952 394.097 422.951 386.732 414.581C379.368 406.21 374.648 395.846 373.169 384.796Z" fill="#333333"/>
<path d="M329.29 349.619C331.884 348.867 334.372 347.79 336.695 346.412C336.892 346.29 337.033 346.096 337.089 345.872C337.144 345.647 337.11 345.409 336.992 345.21C336.875 345.01 336.684 344.864 336.461 344.803C336.238 344.743 336 344.771 335.797 344.884C333.598 346.163 331.256 347.179 328.819 347.911C328.601 347.981 328.418 348.133 328.309 348.334C328.2 348.536 328.173 348.772 328.233 348.993C328.293 349.214 328.437 349.403 328.635 349.52C328.832 349.637 329.067 349.672 329.29 349.619Z" fill="#333333"/>
<path d="M228.063 40.5825C230.119 41.6809 232.513 41.9661 234.769 41.3814C240.543 39.9184 239.378 32.1366 239.394 27.6624C239.207 25.0612 239.81 22.4642 241.122 20.2105C241.719 19.1159 242.724 18.3015 243.919 17.9443C245.114 17.5871 246.401 17.7161 247.501 18.3032C252.579 21.3122 250.786 28.0618 251.219 33.6782C251.345 36.2171 252.331 38.6376 254.015 40.5422C255.246 41.716 256.821 42.4645 258.509 42.6777C260.196 42.891 261.908 42.5577 263.392 41.7269C264.379 41.1772 265.234 40.4255 265.908 39.5167C267.231 37.3783 267.918 34.9056 267.884 32.3902C267.837 30.0259 267.972 27.6614 268.286 25.3175C268.554 23.236 269.586 21.3282 271.181 19.9637C274.804 17.6749 279.081 20.7894 279.6 25.3871C280.291 30.8532 280.354 36.3798 279.786 41.8593C279.665 42.9812 281.437 42.9812 281.558 41.8593C282.23 35.558 282 29.1932 280.874 22.957C279.346 18.5097 274.165 15.7273 270.144 18.5366C264.81 22.8336 266.854 29.9175 265.726 35.554C265.554 36.8936 264.949 38.1405 264.004 39.1054C263.059 40.0703 261.825 40.7004 260.49 40.9002C259.154 41.1 257.79 40.8585 256.604 40.2123C255.418 39.5661 254.475 38.5506 253.919 37.32C252.996 35.036 252.62 32.5678 252.821 30.1127C253.205 26.9358 252.862 23.7134 251.818 20.6885C251.349 19.5862 250.644 18.6002 249.752 17.8C248.86 16.9998 247.804 16.4049 246.657 16.0571C245.381 15.8181 244.062 15.9559 242.862 16.4535C241.663 16.9512 240.634 17.7872 239.901 18.8597C236.311 23.9847 238.299 29.4328 237.482 35.0582C237.408 36.334 236.964 37.5606 236.203 38.5877C234.909 39.5675 233.296 40.0308 231.679 39.8878C230.061 39.7447 228.555 39.0054 227.452 37.8136C225.938 35.9386 225.072 33.6231 224.984 31.2144C224.788 26.8957 225.032 22.5682 225.711 18.2987C225.85 17.1768 224.077 17.1768 223.941 18.2987C223.556 21.2975 223.281 24.3092 223.117 27.328C222.969 29.9085 223.225 32.4979 223.875 34.9998C224.552 37.3051 226.039 39.288 228.063 40.5825Z" fill="#333333"/>
<path d="M268.804 130.553L291.972 107.064C292.773 106.251 291.524 104.999 290.72 105.812L267.55 129.3C267.425 129.473 267.366 129.685 267.384 129.897C267.396 130.056 267.451 130.209 267.542 130.34C267.633 130.471 267.757 130.575 267.902 130.642C268.047 130.709 268.207 130.736 268.365 130.72C268.524 130.704 268.676 130.646 268.804 130.553Z" fill="#333333"/>
<path d="M267.397 138.377C267.408 138.6 267.501 138.812 267.659 138.97C267.818 139.128 268.029 139.221 268.252 139.232H307.987C308.198 139.199 308.391 139.092 308.53 138.929C308.669 138.766 308.744 138.559 308.743 138.345C308.743 138.132 308.667 137.925 308.528 137.763C308.39 137.6 308.198 137.493 307.987 137.459H268.252C268.018 137.47 267.798 137.572 267.638 137.744C267.478 137.915 267.392 138.142 267.397 138.377Z" fill="#333333"/>
<path d="M268.567 146.749C268.394 146.624 268.182 146.564 267.969 146.581C267.757 146.598 267.557 146.69 267.406 146.84C267.255 146.991 267.163 147.191 267.145 147.403C267.128 147.616 267.187 147.828 267.312 148.001C274.981 155.913 282.784 163.693 290.72 171.337C290.849 171.431 291.001 171.489 291.16 171.505C291.319 171.52 291.479 171.493 291.624 171.426C291.769 171.359 291.893 171.254 291.984 171.123C292.075 170.992 292.129 170.839 292.141 170.68C292.157 170.467 292.097 170.255 291.972 170.083C284.309 162.167 276.506 154.388 268.567 146.749Z" fill="#333333"/>
<path d="M48.0554 280.447C48.0461 280.223 47.953 280.011 47.7946 279.853C47.6363 279.694 47.4243 279.601 47.2005 279.592H12.3017C12.1327 279.602 11.9699 279.659 11.8325 279.758C11.6951 279.857 11.5888 279.993 11.5261 280.15C11.4634 280.307 11.4469 280.479 11.4786 280.645C11.5102 280.812 11.5888 280.966 11.7049 281.089C11.8619 281.252 12.0751 281.351 12.3017 281.362H47.2005C47.4344 281.352 47.6549 281.25 47.8147 281.079C47.9745 280.908 48.061 280.681 48.0554 280.447Z" fill="#333333"/>
<path d="M46.5745 286.678L15.6518 317.601C15.4984 317.769 15.4158 317.991 15.4211 318.218C15.4265 318.446 15.5194 318.663 15.6805 318.824C15.8416 318.985 16.0586 319.078 16.2864 319.084C16.5143 319.089 16.7354 319.006 16.9039 318.853C25.067 310.97 45.5804 290.253 47.8243 287.93C47.9734 287.761 48.0526 287.542 48.0457 287.317C48.0388 287.091 47.9463 286.877 47.7871 286.718C47.6279 286.558 47.4138 286.465 47.1886 286.458C46.9633 286.451 46.7437 286.529 46.5745 286.678Z" fill="#333333"/>
<path d="M53.6494 286.741C53.4256 286.751 53.2136 286.844 53.055 287.002C52.8964 287.16 52.8027 287.372 52.7922 287.596V319.358C52.8246 319.569 52.9319 319.762 53.0946 319.901C53.2574 320.04 53.4646 320.115 53.6786 320.114C53.8922 320.114 54.099 320.038 54.2615 319.9C54.4241 319.761 54.5317 319.569 54.5649 319.358V287.596C54.5544 287.362 54.4527 287.141 54.2815 286.982C54.1104 286.822 53.8835 286.735 53.6494 286.741Z" fill="#333333"/>
<path d="M240.976 269.472C241.053 267.903 241.69 266.413 242.771 265.274C243.554 264.446 242.304 263.192 241.519 264.022C240.114 265.5 239.289 267.435 239.194 269.472C239.145 270.61 240.918 270.61 240.976 269.472Z" fill="#333333"/>
<path d="M231.074 264.776C231.641 263.535 232.651 262.55 233.906 262.014C234.947 261.587 234.491 259.873 233.437 260.306C231.74 260.968 230.353 262.243 229.55 263.878C229.052 264.906 230.578 265.806 231.074 264.776Z" fill="#333333"/>
<path d="M55.5387 224.463V141.458C55.5387 141.223 55.4453 140.997 55.2791 140.831C55.1129 140.665 54.8874 140.571 54.6524 140.571C54.4173 140.571 54.1919 140.665 54.0256 140.831C53.8594 140.997 53.7661 141.223 53.7661 141.458V224.463C53.7765 224.69 53.8746 224.905 54.0398 225.062C54.205 225.219 54.4246 225.305 54.6524 225.304C54.8796 225.304 55.0983 225.217 55.2629 225.06C55.4275 224.904 55.5255 224.69 55.5365 224.463H55.5387Z" fill="#333333"/>
<path d="M56.9793 239.355C56.5597 238.31 54.8476 238.765 55.2739 239.824L86.1091 316.385C86.5309 317.428 88.243 316.973 87.8167 315.914C45.6208 211.116 60.1498 247.083 56.977 239.355H56.9793Z" fill="#333333"/>
<path d="M121.97 42.3776C123.317 42.4248 128.54 42.3911 150.268 42.3911C150.421 42.3835 150.569 42.3376 150.7 42.2577C150.83 42.1778 150.938 42.0663 151.014 41.9337C151.091 41.801 151.132 41.6513 151.135 41.4983C151.139 41.3454 151.103 41.194 151.033 41.0582L136.827 16.6764C136.743 16.537 136.622 16.4235 136.477 16.3486C136.332 16.2737 136.17 16.2402 136.007 16.2518C135.845 16.2634 135.689 16.3196 135.556 16.4144C135.424 16.5091 135.32 16.6386 135.256 16.7886C134.543 17.924 131.929 22.4611 121.1 41.0582C121.017 41.2002 120.976 41.3626 120.98 41.5269C120.985 41.6912 121.035 41.851 121.126 41.9882C121.216 42.1254 121.343 42.2346 121.492 42.3034C121.642 42.3722 121.807 42.3979 121.97 42.3776ZM136.062 18.8844L148.726 40.614H123.4L136.062 18.8844Z" fill="#333333"/>
<path d="M96.745 39.5819L119.04 17.2779C119.193 17.1094 119.276 16.8883 119.271 16.6605C119.265 16.4327 119.172 16.2157 119.011 16.0545C118.85 15.8934 118.633 15.8005 118.405 15.7952C118.178 15.7898 117.956 15.8724 117.788 16.0258L95.4929 38.3231C95.3699 38.4474 95.2862 38.6052 95.2523 38.7768C95.2184 38.9484 95.2357 39.1262 95.3022 39.2879C95.3575 39.4227 95.4454 39.5416 95.5579 39.6341C95.6704 39.7266 95.8041 39.7898 95.947 39.818C96.0899 39.8463 96.2376 39.8387 96.3768 39.7959C96.5161 39.7531 96.6426 39.6765 96.745 39.5729V39.5819Z" fill="#333333"/>
<path d="M54.4347 42.2341C54.6581 42.2237 54.8696 42.1303 55.0277 41.9722C55.1858 41.814 55.2793 41.6026 55.2896 41.3792V17.8276C55.2782 17.6005 55.1799 17.3865 55.0152 17.2299C54.8504 17.0732 54.6318 16.9858 54.4044 16.9858C54.1771 16.9858 53.9584 17.0732 53.7937 17.2299C53.6289 17.3865 53.5307 17.6005 53.5192 17.8276V41.3881C53.5291 41.6215 53.631 41.8414 53.8025 41.9999C53.9741 42.1584 54.2013 42.2426 54.4347 42.2341Z" fill="#333333"/>
<path d="M69.3048 31.109L86.2617 44.2333C86.4306 44.3939 86.6547 44.4834 86.8877 44.4834C87.1207 44.4834 87.3448 44.3939 87.5137 44.2333C87.5961 44.1512 87.6614 44.0536 87.706 43.9462C87.7506 43.8388 87.7736 43.7236 87.7736 43.6073C87.7736 43.491 87.7506 43.3758 87.706 43.2684C87.6614 43.161 87.5961 43.0634 87.5137 42.9813L70.0969 29.5024C71.1537 28.6856 86.4771 16.8201 87.5137 16.0257C87.6769 15.8582 87.7681 15.6336 87.7681 15.3997C87.7681 15.1659 87.6769 14.9412 87.5137 14.7737C87.3462 14.6106 87.1215 14.5193 86.8877 14.5193C86.6538 14.5193 86.4292 14.6106 86.2617 14.7737C80.8629 18.9517 68.7079 28.2795 68.0864 28.836C67.1664 29.812 68.6653 30.6198 69.3048 31.109Z" fill="#333333"/>
<path d="M369.462 29.5023L352.047 42.9812C351.923 43.1042 351.837 43.2617 351.803 43.4334C351.768 43.6051 351.786 43.7832 351.853 43.945C351.92 44.1067 352.034 44.2447 352.18 44.3412C352.326 44.4378 352.498 44.4885 352.673 44.4868C352.907 44.487 353.132 44.3961 353.299 44.2333C353.299 44.2333 370.851 30.7275 371.475 30.1687C372.399 29.1927 370.893 28.3849 370.261 27.8957L353.299 14.7736C353.131 14.6126 352.906 14.5227 352.673 14.5227C352.44 14.5227 352.216 14.6126 352.047 14.7736C351.964 14.8554 351.898 14.9529 351.853 15.0604C351.809 15.1678 351.785 15.2831 351.785 15.3996C351.785 15.5161 351.809 15.6314 351.853 15.7389C351.898 15.8464 351.964 15.9438 352.047 16.0257L369.462 29.5023Z" fill="#333333"/>
<path d="M322.834 38.9602C325.399 38.4205 327.702 37.0204 329.362 34.992C331.022 32.9637 331.939 30.429 331.96 27.8082C331.963 26.0512 331.558 24.3174 330.777 22.7433C329.997 21.1691 328.862 19.7975 327.461 18.7363C325.351 17.1329 322.748 16.317 320.1 16.4297C317.452 16.5424 314.927 17.5765 312.961 19.3534C310.995 21.1294 309.71 23.5358 309.328 26.1578C308.946 28.7798 309.49 31.4529 310.868 33.7163C312.095 35.7013 313.897 37.2661 316.034 38.2027C318.171 39.1393 320.543 39.4035 322.834 38.9602ZM312.349 22.8874C312.997 21.8047 313.852 20.8602 314.865 20.1078C315.878 19.3554 317.029 18.8099 318.253 18.5025C319.477 18.1951 320.749 18.1317 321.997 18.316C323.246 18.5003 324.445 18.9286 325.528 19.5766C326.611 20.2246 327.555 21.0795 328.308 22.0925C329.06 23.1055 329.606 24.2568 329.913 25.4806C330.22 26.7044 330.284 27.9768 330.1 29.2251C329.915 30.4734 329.487 31.6732 328.839 32.7559C327.53 34.9427 325.407 36.52 322.935 37.1409C320.463 37.7618 317.846 37.3754 315.66 36.0668C313.473 34.7581 311.896 32.6344 311.275 30.1628C310.654 27.6912 311.04 25.0742 312.349 22.8874Z" fill="#333333"/>
</svg>
